<?xml version="1.0" encoding="UTF-8"?>
<svg id="Capa_1" xmlns="http://www.w3.org/2000/svg" version="1.1" xmlns:xlink="http://www.w3.org/1999/xlink" viewBox="0 0 338.27 344.72">
  <!-- Generator: Adobe Illustrator 30.5.1, SVG Export Plug-In . SVG Version: 2.1.4 Build 3)  -->
  <defs>
    <style>
      .st0 {
        fill: url(#Degradado_sin_nombre_100);
      }

      .st1 {
        fill: url(#Degradado_sin_nombre_1001);
      }

      .st2 {
        fill: #1d1d1b;
      }

      .st3 {
        fill: #3c3c3b;
      }
    </style>
    <linearGradient id="Degradado_sin_nombre_100" data-name="Degradado sin nombre 100" x1="105.47" y1="116.56" x2="233.69" y2="116.56" gradientUnits="userSpaceOnUse">
      <stop offset="0" stop-color="#dadada"/>
      <stop offset="1" stop-color="#3c3c3b"/>
    </linearGradient>
    <linearGradient id="Degradado_sin_nombre_1001" data-name="Degradado sin nombre 100" x1="117.41" y1="145.43" x2="249.77" y2="145.43" xlink:href="#Degradado_sin_nombre_100"/>
  </defs>
  <g>
    <path class="st3" d="M96.64,228.18c-3.42,1.29-7.3,1.94-11.65,1.94-14.24,0-21.36-6.89-21.36-20.67,0-13.04,7.12-19.56,21.36-19.56,4.35,0,8.23.65,11.65,1.94v6.66c-3.42-1.48-7.12-2.22-11.1-2.22-9.52,0-14.29,4.39-14.29,13.18,0,9.52,4.76,14.29,14.29,14.29,3.98,0,7.67-.74,11.1-2.22v6.66Z"/>
    <path class="st3" d="M107.66,229.84h-7.54l16.84-39.67h7.91l17.2,39.67h-7.91l-4.52-10.82h-13.18l2.52-6.38h7.99l-6.24-14.9-13.06,32.09Z"/>
    <path class="st3" d="M146.91,229.84v-39.67h7.63l13.45,30.1,13.18-30.1h7.35v39.67h-6.8v-27.63l-10.76,27.63h-6.27l-10.98-27.63v27.63h-6.8Z"/>
    <path class="st3" d="M196.84,229.84v-39.67h17.75c8.1,0,12.15,3.73,12.15,11.18,0,8.08-5.54,12.97-16.62,14.67l-1.05-6.55c6.66-1.2,9.99-3.84,9.99-7.91,0-3.29-1.65-4.94-4.94-4.94h-9.93v33.2h-7.35Z"/>
    <path class="st3" d="M231.59,214.25v-24.08h7.35v24.08c0,6.32,3.24,9.49,9.71,9.49s9.71-3.16,9.71-9.49v-24.08h7.35v24.08c0,10.58-5.69,15.87-17.06,15.87s-17.06-5.29-17.06-15.87Z"/>
    <path class="st3" d="M273.34,228.18v-6.66c3.98,1.48,8.47,2.22,13.48,2.22,6.08,0,9.13-2.03,9.13-6.1,0-2.96-1.87-4.44-5.6-4.44h-6.21c-8.12,0-12.18-3.7-12.18-11.1,0-8.14,5.78-12.2,17.34-12.2,4.44,0,8.65.65,12.62,1.94v6.66c-3.98-1.48-8.18-2.22-12.62-2.22-6.66,0-9.99,1.94-9.99,5.83,0,2.96,1.61,4.44,4.83,4.44h6.21c8.64,0,12.95,3.7,12.95,11.1,0,8.32-5.49,12.48-16.48,12.48-5.01,0-9.51-.65-13.48-1.94Z"/>
  </g>
  <g>
    <path class="st3" d="M141.58,240.15v31.31h14.82v6h-21.73v-37.31h6.91Z"/>
    <path class="st3" d="M166.75,277.46h-7.1l15.84-37.31h7.44l16.18,37.31h-7.44l-4.25-10.17h-12.39l2.37-6h7.51l-5.87-14.01-12.29,30.19Z"/>
    <path class="st3" d="M203.67,277.46v-37.31h17.48c7.1,0,10.64,2.9,10.64,8.69,0,4.24-2.31,7.28-6.94,9.11,4.94.92,7.41,3.75,7.41,8.48,0,7.36-3.89,11.04-11.66,11.04h-16.93ZM220.32,271.45c3.06,0,4.59-1.57,4.59-4.7,0-3.88-2.29-5.82-6.86-5.82h-2.09v-4.46c5.74-.96,8.61-3.36,8.61-7.2,0-2.09-1.29-3.13-3.86-3.13h-10.12v25.31h9.73Z"/>
  </g>
  <g>
    <path class="st3" d="M164.59,299.96v-12.28h3.75v12.28c0,3.22,1.65,4.84,4.95,4.84s4.95-1.61,4.95-4.84v-12.28h3.75v12.28c0,5.39-2.9,8.09-8.7,8.09s-8.7-2.7-8.7-8.09Z"/>
    <path class="st3" d="M202.34,307.06c-1.74.66-3.72.99-5.94.99-7.26,0-10.89-3.51-10.89-10.54,0-6.65,3.63-9.97,10.89-9.97,2.22,0,4.2.33,5.94.99v3.39c-1.74-.75-3.63-1.13-5.66-1.13-4.86,0-7.28,2.24-7.28,6.72,0,4.86,2.43,7.28,7.28,7.28,2.03,0,3.91-.38,5.66-1.13v3.39Z"/>
  </g>
  <g>
    <path class="st2" d="M152.9,149.08c.76.39,1.45.75,2.05,1.07,2.04,1.09,4.1,2.12,6.19,3.12,1.81.87,4.06,2.37,6.09,2.56.88.08,1.89-.23,2.37-1.02.79-1.29-.06-2.94-1.02-3.87-1.75-1.7-4.3-2.26-6.42-3.33-2.18-1.09-4.31-2.26-6.45-3.43-.24-.13-.48-.26-.73-.4-.71,1.76-1.4,3.52-2.07,5.29ZM144.65,137.8c.29.67.57,1.34.87,2.01.62,1.4,1.39,2.74,2.22,4.35.56-1.27,1.06-2.45,1.55-3.58-1.56-.91-3.11-1.84-4.65-2.78ZM138.11,110c.04,1.48.13,2.97.27,4.46,0,.01,0,.03,0,.04,5.68,4.24,11.54,8.22,17.43,12.16.03-.06.06-.11.09-.17.75-1.39,1.51-2.77,2.29-4.14-5.2-3.69-10.11-7.77-14.95-11.92-.38-.32-.65-.35-1.09-.26-1.46.29-2.84.22-4.05-.17ZM138.12,106.41c.52.32,1.1.5,1.66.47,1.67-.1,2.95-1.36,2.87-2.84-.08-1.6-1.83-3.21-3.41-3.14-.25,0-.49.05-.71.11h0c-.22,1.79-.36,3.59-.41,5.4ZM139.06,97.55c1.34-.02,2.67.4,3.95,1.27,2.36,1.61,3.44,3.9,3.07,6.75-.11.83.1,1.29.74,1.77,2.99,2.24,5.95,4.52,8.92,6.79,1.66,1.27,3.34,2.52,5.04,3.73,1.28-2.2,2.57-4.4,3.83-6.61.27-.49.48-1.09.48-1.64l1.53-32.01,3.3,25.9c5.79-6.56,12.27-13.96,18.03-20.54.3-.35.49-.88.56-1.35l3.67-23.88.81,20.82c6.41-5.02,14.49-10.68,21.46-14.75,5.51-3.22,13.71-7.47,20.52-9.27-14.88,9.95-30.65,21.6-43.99,33.9l26.91-6.05c-1.98,1.82-25.32,9.05-31.14,11.96l-1.34.61c-.64.17-1.29.71-1.71,1.25l-12.86,16.59,34.4-13.49c-1.34,2-25.7,14.98-36.42,19.24l-.53.16c-.64.19-1.49.46-1.76.95-.29.53-.59,1.05-.87,1.58,1.13.75,2.28,1.49,3.43,2.21,2.56,1.6,5.15,3.15,7.72,4.72l.31.18c-.17.33-.61-.26.8.45,2.72,1.52,5.52,2.86,8.34,4.16,6.79,3.14,13.76,5.78,21.04,7.49,4.26,1,8.59,1.67,12.99,1.01.66-.1,1.3-.21,1.91-.35,1.34-1.37,2.88-2.82,5.11-5.25,3.19-3.49,2.72-3.13,6.7-7.32.32-.34,1.12-1.29,1.49-1.89.66-1.06,1.27-2.15,1.83-3.26.33-.66.7-.99,1-1.59,1.63-3.27,1.01-2.05,3.33-6.19,2.52-4.49,3.54-5.45,6.13-10.82.34-.71,1.05-2.24,1.28-2.97,2.27-7.16,4.72-14.27,6.69-21.52,3.94-14.55,5.57-33.1,5.72-48.52-9.03,3.08-20.69,5.02-29.85,5.81-9.2.8-18.43,1.32-27.55,2.91-10.38,1.82-20.34,4.89-29.6,9.95-16.04,8.77-27.39,21.61-33.3,39.03-.9,2.67-1.6,5.36-2.1,8.08ZM139.04,119.33c.55,3.22,1.33,6.36,2.3,9.47.3.19.61.38.92.57,3.15,1.95,6.36,3.78,9.58,5.6.78-1.71,1.55-3.42,2.37-5.11-1.48-.95-2.96-1.9-4.44-2.84-3.72-2.36-7.19-5.08-10.72-7.69ZM157.29,138.02c.17.1.35.2.52.29,10.69,6.03,21.76,11.24,33.36,15.22,1.85.63,3.7,1.24,5.57,1.79,2.9-.82,5.73-1.82,8.47-3.01-5.99-1.07-11.8-2.92-17.5-5.07-5.97-2.26-11.73-4.97-17.34-8.01-2.44-1.32-4.9-2.6-7.3-3.99h0c-1.21.44-2.52.91-3.92,1.41l-.13.04c-.78.24-1.36.63-1.73,1.33Z"/>
    <g>
      <path class="st0" d="M105.59,88.44c.58,3.29,4,6.3,7.45,6.36.74.01,1.16.21,1.59.87,4.43,6.74,10.07,12.31,16.46,17.2,1.28.98,2.42,2.19,3.79,3.09,1.22,1.32,2.71,2.31,4.14,3.36,0,0,0,0,0,0h0c3.54,2.62,7,5.33,10.72,7.69,1.48.94,2.96,1.89,4.44,2.84,1.55.99,3.09,1.98,4.64,2.96.5.32,1.05.55,1.58.83.87.55,1.75,1.09,2.64,1.6h0c2.4,1.39,4.86,2.67,7.3,3.99,5.61,3.04,11.37,5.75,17.34,8.01,5.7,2.16,11.51,4,17.5,5.07h0c.67.13,1.34.24,2.01.34,5.78.86,11.6,1.23,17.32-.6,3.56-1.14,6.46-3.13,8.05-6.62,1.45-3.17,1.3-6.48.5-9.78-.29-1.18-.6-2.36-1.05-3.49l-3.91,4.48c-.78,2.62-2.98,3.8-5.96,4.46-.6.14-1.24.25-1.91.35-4.4.66-8.73,0-12.99-1.01-7.28-1.71-14.26-4.34-21.04-7.49-2.82-1.31-5.62-2.65-8.34-4.16-.35-.19-.69-.38-1.03-.58-.03-.02-.05-.03-.08-.05-2.57-1.57-5.17-3.12-7.72-4.72-1.15-.72-2.3-1.46-3.43-2.21-1.64-1.09-3.26-2.21-4.86-3.36-1.7-1.21-3.38-2.46-5.04-3.73-2.97-2.27-5.93-4.55-8.92-6.79-.64-.48-.85-.94-.74-1.77.37-2.85-.71-5.14-3.07-6.75-1.28-.87-2.61-1.29-3.95-1.27-1.12.02-2.26.34-3.37.95-1.59.88-2.48,2.38-2.49,4.31-.01,3.58,1.97,6.27,4.9,7.18,1.21.38,2.59.46,4.05.17.44-.08.71-.06,1.09.26,4.84,4.16,9.74,8.23,14.95,11.92.77.55,1.55,1.09,2.34,1.62.89.6.87,2.85-.02,3.52-.99.75-2.27.8-3.33.09-.45-.3-.91-.61-1.36-.91-5.89-3.94-11.75-7.92-17.43-12.16-.92-.69-1.84-1.38-2.75-2.09-.26-.2-.56-.37-.84-.56-2.1-1.66-4.18-3.34-6.29-4.98-.58-.45-.57-1.05-.51-1.62.14-1.25.32-.76-.91-2.13-3.02-2.77-5.51-5.97-7.69-9.44-.39-.62-.33-.98.08-1.53,2.84-3.83,1.46-8.42-1.45-10.71-2.46-1.94-6.39-2.27-9.07-.69-2.5,1.47-3.92,4.4-3.35,7.68ZM142.65,104.05c.08,1.48-1.2,2.74-2.87,2.84-.56.03-1.14-.15-1.66-.47-.94-.58-1.67-1.62-1.73-2.66-.06-1.27.85-2.38,2.14-2.73h0c.23-.06.47-.1.71-.11,1.58-.07,3.33,1.54,3.41,3.14ZM109.24,87.1c.03-2.03,1.7-3.59,3.82-3.57,2.18.01,4.06,1.87,4.03,3.97-.04,1.99-1.67,3.54-3.73,3.53-2.15-.02-4.16-1.92-4.12-3.92Z"/>
      <path class="st1" d="M118.44,126.55c1.95,3.63,7.17,5.73,11.01,3.97,1.22-.56,1.68-1.41,2.99-.47,3.3,2.37,6.82,4.38,10.26,6.54.65.41,1.3.81,1.95,1.21,1.54.94,3.09,1.87,4.65,2.78,1.88,1.09,3.77,2.17,5.68,3.21.24.14.48.27.73.4,2.13,1.17,4.27,2.34,6.45,3.43,2.13,1.06,4.68,1.62,6.42,3.33.96.93,1.8,2.59,1.02,3.87-.48.79-1.49,1.1-2.37,1.02-2.02-.19-4.28-1.7-6.09-2.56-2.09-1-4.15-2.03-6.19-3.12-.6-.32-1.28-.68-2.05-1.07-.26.69-.51,1.37-.76,2.07-2.12,5.91-3.73,11.97-4.79,18.16-.46,2.74.38,4.26,3.04,4.92,3.09.76,6.26.38,5.99-4.23-.15-2.69.26-5.43.57-8.13.21-1.8,1.36-2.85,3.03-3.19.14-.03.29-.05.43-.07.14-.02.27-.03.41-.05.07.03.13.06.2.09,2.83,1.31,5.65,2.65,8.52,3.87,6.76,2.88,13.66,5.35,20.72,7.4,5.28,1.53,10.61,2.79,16.04,3.58,8.51,1.25,17.04,1.66,25.51-.32,3.42-.8,6.67-2.08,9.58-4.12,5.9-4.14,8.56-9.89,8.37-17.01-.08-2.88-.52-5.72-1.39-8.48h.01c-.5-2.43-1.48-4.69-2.55-6.9-2.16-4.49-4.82-8.73-7.88-12.66l-1.42,2.46c1.51,2.77,3.07,5.89,4.01,9.01,1.14,3.78,1.67,7.63.97,11.56-.03.18-.05.35-.06.54h-.01c-.51,2.9-1.98,5.22-4.21,7.08-2.19,1.82-4.74,2.96-7.49,3.66-5.2,1.32-10.47,1.2-15.75.64-5.88-.63-11.62-1.92-17.25-3.61-1.87-.56-3.73-1.16-5.57-1.79-11.6-3.99-22.67-9.2-33.36-15.22-.17-.1-.35-.2-.52-.29-1.82-1.02-3.64-2.04-5.45-3.06-3.23-1.82-6.44-3.65-9.58-5.6-.31-.19-.61-.38-.92-.57-2.38-1.48-4.75-2.99-7.14-4.47-.64-.39-1-.92-1.25-1.63-1.45-4-4.76-6.34-8.68-6.4-5.01-.08-8.73,4.82-5.82,10.25ZM121.41,123.23c0-1.78,1.46-3.19,3.35-3.19,2.17,0,4.22,1.94,4.19,3.98-.02,1.83-1.44,3.3-3.23,3.33-1.94.04-4.3-2.22-4.31-4.12Z"/>
    </g>
  </g>
</svg>