<svg width="459" height="583" viewBox="0 0 459 583" fill="none" xmlns="http://www.w3.org/2000/svg">
<path d="M459 219.695C459 341.029 349.503 580 228 580C106.497 580 0 341.029 0 219.695C0 98.3608 117.497 0 239 0C360.503 0 459 98.3608 459 219.695Z" fill="#60702F"/>
<path d="M416 291.029C416 389.351 327.257 583 228.784 583C130.312 583 44 389.351 44 291.029C44 192.706 139.227 113 237.699 113C336.172 113 416 192.706 416 291.029Z" fill="url(#paint0_radial_723_24)"/>
<path d="M416 291.029C416 389.351 327.257 583 228.784 583C130.312 583 44 389.351 44 291.029C44 192.706 139.227 113 237.699 113C336.172 113 416 192.706 416 291.029Z" fill="#9EA940"/>
<path d="M376 350.771C376 427.965 306.342 580 229.046 580C151.75 580 84 427.965 84 350.771C84 273.578 158.748 211 236.044 211C313.339 211 376 273.578 376 350.771Z" fill="url(#paint1_radial_723_24)"/>
<path d="M376 350.771C376 427.965 306.342 580 229.046 580C151.75 580 84 427.965 84 350.771C84 273.578 158.748 211 236.044 211C313.339 211 376 273.578 376 350.771Z" fill="#F4F08D"/>
<path d="M325 437.014C325 486.176 280.867 583 231.895 583C182.924 583 140 486.176 140 437.014C140 387.853 187.357 348 236.329 348C285.301 348 325 387.853 325 437.014Z" fill="#FFFED9"/>
<path d="M192.833 163.858C191.866 159.704 189.391 157.004 185.814 155.471C185.859 154.944 185.92 154.409 185.945 153.876C186.165 148.963 184.423 145.15 180.702 142.708C178.915 141.535 177.16 141 175.096 141C173.033 141 171.278 141.535 169.491 142.708C165.772 145.149 164.028 148.963 164.247 153.876C164.273 154.409 164.334 154.942 164.377 155.471C160.8 157.006 158.324 159.704 157.358 163.858C155.518 171.743 161.014 179.901 168.423 178.783C168.986 178.718 169.397 178.15 169.342 177.51C169.286 176.87 168.786 176.4 168.223 176.461C168.221 176.461 168.22 176.461 168.218 176.463C168.207 176.465 168.196 176.465 168.184 176.467C168.173 176.47 168.162 176.472 168.151 176.474C167.658 176.549 167.158 176.574 166.662 176.545C166.195 176.518 165.73 176.442 165.276 176.321C164.836 176.201 164.406 176.037 163.993 175.83C163.583 175.624 163.19 175.379 162.819 175.098C162.446 174.814 162.096 174.495 161.769 174.147C161.379 173.73 161.025 173.27 160.711 172.777C160.172 171.93 159.753 170.986 159.473 169.992C159.29 169.35 159.166 168.685 159.104 168.013C159.054 167.476 159.043 166.937 159.07 166.398C159.1 165.846 159.168 165.297 159.279 164.758C159.307 164.617 159.338 164.476 159.373 164.338C159.408 164.193 159.447 164.051 159.486 163.908C159.563 163.633 159.65 163.363 159.75 163.096C159.934 162.595 160.158 162.11 160.418 161.655C160.669 161.214 160.957 160.799 161.274 160.417C161.599 160.027 161.953 159.67 162.332 159.345C162.734 159.001 163.162 158.697 163.605 158.426C164.089 158.131 164.591 157.879 165.104 157.659C165.266 157.589 165.431 157.52 165.593 157.449C166.171 157.201 166.531 156.545 166.474 155.848C166.457 155.651 166.44 155.454 166.424 155.257C166.405 155.03 166.383 154.806 166.363 154.579C166.346 154.401 166.33 154.22 166.317 154.042C166.311 153.962 166.306 153.88 166.302 153.801C166.3 153.757 166.298 153.713 166.296 153.669C166.293 153.574 166.289 153.478 166.287 153.383C166.283 153.197 166.282 153.01 166.285 152.823C166.291 152.464 166.311 152.108 166.346 151.751C166.363 151.579 166.383 151.409 166.407 151.239C166.431 151.076 166.457 150.912 166.486 150.751C166.546 150.436 166.618 150.125 166.704 149.819C166.787 149.523 166.885 149.234 166.998 148.951C167.109 148.672 167.23 148.401 167.367 148.139C167.503 147.874 167.655 147.616 167.817 147.371C167.983 147.119 168.162 146.878 168.352 146.647C168.55 146.408 168.759 146.182 168.976 145.97C169.207 145.743 169.447 145.529 169.696 145.33C169.962 145.116 170.237 144.919 170.517 144.734C171.977 143.775 173.41 143.339 175.097 143.339C176.782 143.339 178.216 143.775 179.676 144.734C179.958 144.919 180.231 145.116 180.497 145.33C180.746 145.529 180.986 145.741 181.217 145.97C181.435 146.184 181.643 146.41 181.841 146.647C182.031 146.878 182.21 147.119 182.378 147.371C182.54 147.616 182.692 147.872 182.828 148.139C182.965 148.401 183.088 148.674 183.197 148.951C183.31 149.234 183.408 149.523 183.491 149.819C183.577 150.125 183.649 150.436 183.709 150.751C183.738 150.912 183.766 151.076 183.788 151.239C183.812 151.409 183.832 151.579 183.849 151.751C183.884 152.108 183.902 152.464 183.91 152.823C183.913 153.01 183.912 153.197 183.908 153.383C183.906 153.478 183.902 153.574 183.899 153.669C183.897 153.713 183.895 153.757 183.893 153.801C183.889 153.88 183.884 153.962 183.878 154.042C183.865 154.222 183.849 154.401 183.832 154.579C183.812 154.806 183.79 155.03 183.771 155.257C183.755 155.454 183.738 155.651 183.721 155.848C183.664 156.547 184.024 157.201 184.602 157.449C184.764 157.52 184.929 157.589 185.091 157.659C185.604 157.879 186.106 158.133 186.59 158.426C187.033 158.697 187.461 159.001 187.863 159.345C188.242 159.668 188.596 160.027 188.921 160.417C189.238 160.799 189.526 161.214 189.777 161.655C190.037 162.11 190.261 162.595 190.445 163.096C190.543 163.363 190.632 163.633 190.709 163.908C190.75 164.051 190.787 164.193 190.822 164.338C190.855 164.476 190.888 164.617 190.916 164.758C191.027 165.297 191.097 165.846 191.125 166.398C191.152 166.937 191.141 167.476 191.09 168.013C191.027 168.685 190.901 169.35 190.72 169.992C190.438 170.986 190.019 171.93 189.482 172.777C189.168 173.27 188.814 173.73 188.424 174.147C188.098 174.496 187.747 174.814 187.372 175.098C187.001 175.379 186.608 175.624 186.198 175.83C185.785 176.035 185.355 176.201 184.916 176.321C184.462 176.444 183.997 176.52 183.53 176.545C183.033 176.574 182.533 176.547 182.04 176.474C182.029 176.472 182.018 176.47 182.007 176.467C181.996 176.465 181.985 176.465 181.974 176.463C181.972 176.463 181.97 176.461 181.968 176.461C181.405 176.4 180.905 176.87 180.85 177.51C180.794 178.15 181.206 178.718 181.769 178.783C189.178 179.901 194.673 171.741 192.833 163.858Z" fill="#DBF7DA"/>
<path d="M186.393 186.491H176.121V173.279C177.694 171.263 179.266 169.247 180.841 167.231C181.217 166.748 181.179 166.01 180.754 165.584C180.33 165.156 179.682 165.2 179.305 165.683C178.244 167.042 177.183 168.401 176.123 169.761V159.186C176.123 158.542 175.664 158.02 175.097 158.02C174.53 158.02 174.071 158.542 174.071 159.186V170.726C172.999 169.352 171.928 167.98 170.856 166.606C170.479 166.123 169.831 166.079 169.407 166.507C168.982 166.935 168.944 167.671 169.32 168.154C170.904 170.182 172.487 172.213 174.071 174.242V186.489H163.8C163.233 186.489 162.774 187.011 162.774 187.655C162.774 188.299 163.233 188.824 163.8 188.824H186.395C186.961 188.824 187.421 188.301 187.421 187.655C187.419 187.013 186.959 186.491 186.393 186.491Z" fill="#DBF7DA"/>
<path d="M218.827 497.88C221.94 497.88 223.576 496.83 225.022 495.902C226.469 494.974 227.725 494.167 230.401 494.167C233.074 494.167 234.389 495.007 235.779 495.902C237.226 496.83 238.863 497.88 241.974 497.88C242.429 497.88 242.801 497.463 242.801 496.952C242.801 496.441 242.429 496.024 241.974 496.024C239.3 496.024 237.986 495.184 236.596 494.289C235.422 493.536 234.091 492.682 231.958 492.409L231.227 492.316V487.675H234.534C238.407 487.675 241.56 484.134 241.56 479.785C241.56 478.249 240.448 477 239.08 477H236.6C234.422 477 232.401 478.119 231.053 480.068L230.4 481.014L229.748 480.068C228.4 478.119 226.38 477 224.2 477H221.72C220.353 477 219.24 478.249 219.24 479.785C219.24 484.134 222.393 487.675 226.267 487.675H229.574V492.316L228.842 492.409C226.709 492.682 225.379 493.536 224.205 494.289C222.816 495.181 221.502 496.024 218.827 496.024C218.371 496.024 218 496.441 218 496.952C218 497.463 218.372 497.88 218.827 497.88ZM231.227 484.885C231.227 481.556 233.636 478.851 236.601 478.851H239.081C239.536 478.851 239.907 479.268 239.907 479.779C239.907 483.108 237.498 485.813 234.534 485.813H231.227V484.885ZM226.267 485.813C223.303 485.813 220.894 483.108 220.894 479.779C220.894 479.268 221.265 478.851 221.721 478.851H224.201C227.165 478.851 229.574 481.556 229.574 484.885V485.813H226.267Z" fill="#214120"/>
<path d="M195.963 289.724C195.647 289.701 195.331 289.678 195.014 289.632C194.263 289.563 193.472 289.472 192.72 289.472C189.853 289.426 186.867 290.434 186.492 297.013C192.127 297.013 195.647 296.738 195.963 289.724ZM178.186 311.178L180.105 322.662H190.802L192.72 311.178H178.186ZM194.757 311.178L192.621 323.969C192.562 324.542 192.147 325 191.633 325H179.274C178.799 324.977 178.384 324.61 178.285 324.037L176.15 311.178H176.051C175.576 311.178 175.161 310.949 174.845 310.605C174.548 310.239 174.35 309.757 174.35 309.207V305.769C174.35 304.692 175.121 303.821 176.051 303.821H184.455V290.641C175.458 290.641 170 290.366 170 277.484C170 276.842 170.435 276.315 170.989 276.315C171.641 276.315 172.393 276.269 173.243 276.2C174.963 276.04 177 275.879 178.958 276.131C183.486 276.773 187.46 279.593 186.452 289.54V289.815C188.073 287.569 190.446 287.111 192.74 287.157C193.65 287.157 194.441 287.248 195.172 287.317C195.845 287.386 196.477 287.455 196.992 287.455C197.545 287.455 198 287.959 198 288.624C198 299.03 193.65 299.328 186.452 299.351V303.821H194.856C195.785 303.821 196.557 304.692 196.557 305.769V309.207C196.557 310.284 195.785 311.178 194.856 311.178H194.757ZM194.54 306.136H176.367V308.84H194.54V306.136ZM173.381 278.515C172.907 278.538 172.452 278.584 172.017 278.607C172.353 288.119 177.02 288.326 184.554 288.326C185.028 281.014 182.082 278.928 178.72 278.446C176.941 278.194 175.023 278.378 173.381 278.515Z" fill="#214120"/>
<path d="M178.127 81.1475C180.597 80.7581 182.851 78.299 183.608 75.2046C184.149 72.9709 183.914 70.2453 182.941 67.7249C182.165 65.6756 181.048 63.9747 179.948 62.3353C180.597 61.2696 181.282 60.0811 181.697 58.7081C182.165 57.1916 182.202 55.3882 181.787 53.6259C181.048 50.47 178.415 48.7281 177.261 48.0928C177.568 46.7813 178.199 43.7484 178.037 41.9245C177.676 38.1743 174.521 35.9202 171.78 36.0022H170.734C168.048 36.0022 164.856 38.5023 164.514 41.9451C164.334 43.7689 164.983 46.8018 165.289 48.1133C164.135 48.7486 161.521 50.4905 160.764 53.6464C160.349 55.4088 160.385 57.2121 160.854 58.7286C161.287 60.1016 161.936 61.2697 162.603 62.3558C161.503 63.9952 160.385 65.6961 159.61 67.7454C158.654 70.2865 158.402 73.012 158.943 75.2251C159.7 78.3196 161.954 80.7582 164.424 81.168C166.065 81.4344 168.589 81.4754 169.995 81.4754H170.897V98.2591C170.897 98.669 171.185 98.9969 171.546 98.9969C171.906 98.9969 172.195 98.669 172.195 98.2591V81.4964C172.754 81.4964 173.475 81.4964 174.25 81.4759C175.927 81.4349 177.225 81.3324 178.109 81.189L178.127 81.1475ZM172.213 79.9794V73.0532L176.883 67.7455C177.135 67.4586 177.135 66.9874 176.883 66.7004C176.63 66.4134 176.216 66.4135 175.963 66.7004L172.213 70.9629V62.3356L176.937 56.9665C177.189 56.6796 177.189 56.2083 176.937 55.9213C176.684 55.6344 176.27 55.6344 176.017 55.9213L172.213 60.2453V47.2119C172.213 46.8021 171.924 46.4742 171.564 46.4742C171.203 46.4742 170.915 46.8021 170.915 47.2119V57.1508L168.679 54.6097C168.427 54.3228 168.012 54.3228 167.759 54.6097C167.507 54.8966 167.507 55.3679 167.759 55.6548L170.915 59.2411V74.4057L167.507 70.5326C167.255 70.2457 166.84 70.2457 166.587 70.5326C166.335 70.8195 166.335 71.2908 166.587 71.5778L170.825 76.3936C170.825 76.3936 170.879 76.3936 170.915 76.4346V79.9798C170.302 79.9798 166.678 80.0208 164.622 79.6929C162.639 79.365 160.836 77.3773 160.205 74.8157C159.736 72.9099 159.953 70.5327 160.8 68.299C161.575 66.2292 162.765 64.4873 163.919 62.8069C164.099 62.561 164.099 62.1921 163.937 61.9257C163.234 60.7781 162.495 59.569 162.062 58.196C161.683 56.9664 161.647 55.4705 162.008 53.995C162.783 50.7366 166.245 49.1997 166.281 49.1792C166.606 49.0357 166.768 48.6464 166.678 48.2775C166.678 48.2365 165.614 44.0765 165.794 42.0681C166.047 39.3836 168.697 37.3753 170.825 37.4573H171.78C173.962 37.3753 176.45 39.1582 176.72 42.0681C176.919 44.0764 175.855 48.2364 175.837 48.2775C175.747 48.6464 175.909 49.0357 176.234 49.1792C176.27 49.1792 179.732 50.7162 180.507 53.995C180.849 55.4705 180.831 56.9664 180.453 58.196C180.02 59.5895 179.281 60.7781 178.578 61.9257C178.415 62.1921 178.415 62.5404 178.596 62.8069C179.75 64.4873 180.939 66.2292 181.715 68.299C182.562 70.5326 182.779 72.9098 182.31 74.8157C181.697 77.3568 179.876 79.365 177.892 79.6929C177.063 79.8364 175.819 79.9183 174.196 79.9593C173.439 79.9593 172.736 79.9798 172.177 79.9798L172.213 79.9794Z" fill="#DBF7DA"/>
<path d="M181.413 49.7533C181.612 49.7533 181.792 49.6509 181.918 49.4664C183.198 47.5811 184.677 45.6548 185.38 44.7326C187.111 46.9663 190.59 51.6588 191.095 53.3808C191.167 53.6473 191.167 53.8317 191.095 53.9342C190.825 54.3235 189.689 54.3645 188.986 54.262C188.733 54.2211 188.499 54.344 188.355 54.5694C188.21 54.7949 188.211 55.1022 188.319 55.3482C190.572 59.8361 192.88 65.308 192.7 66.2706C192.394 67.3363 190.536 67.1108 190.5 67.1108C190.23 67.0698 189.977 67.2338 189.851 67.5002C189.725 67.7666 189.743 68.0945 189.923 68.3199C192.177 71.3938 195.332 76.3124 195.332 77.5826C195.332 78.2588 195.188 78.7507 194.864 79.0991C193.944 80.1032 191.546 80.0212 189.004 79.9188C187.94 79.8778 186.804 79.8368 185.65 79.8573H182.982C182.91 79.8573 182.856 79.8983 182.784 79.8573C182.423 79.8573 182.135 80.1852 182.135 80.595C182.135 81.0049 182.423 81.3328 182.784 81.3328H184.767V84.1608C184.767 84.5706 185.055 84.8985 185.416 84.8985C185.777 84.8985 186.065 84.5706 186.065 84.1608V81.3123C187.057 81.3123 188.03 81.3123 188.968 81.3737C189.743 81.3942 190.482 81.4352 191.186 81.4352C193.169 81.4352 194.792 81.2098 195.765 80.1441C196.342 79.5294 196.631 78.6482 196.631 77.562C196.631 75.6972 193.439 70.9021 191.763 68.5249C192.664 68.361 193.602 67.8487 193.926 66.7215C194.395 65.1231 191.69 59.2005 190.014 55.7577C190.735 55.7168 191.6 55.5118 192.087 54.8561C192.358 54.5077 192.61 53.8724 192.322 52.8888C191.6 50.4092 186.498 43.9336 185.921 43.1959C185.777 43.0114 185.578 42.9704 185.38 42.9909C185.182 42.9704 184.983 42.9909 184.839 43.1959C184.821 43.2163 182.675 45.9214 180.908 48.5444C180.692 48.8723 180.746 49.3232 181.017 49.5691C181.143 49.6715 181.269 49.733 181.413 49.733L181.413 49.7533Z" fill="#DBF7DA"/>
<path d="M155.954 81.2314V85.166C155.954 85.5758 156.242 85.9037 156.603 85.9037C156.963 85.9037 157.252 85.5758 157.252 85.166V81.2929C158.027 81.2929 159.217 81.2519 159.596 81.2109C159.956 81.1699 160.209 80.801 160.173 80.3912C160.137 79.9813 159.83 79.6944 159.452 79.7354C159.073 79.7764 157.144 79.8174 156.603 79.8174C151.969 79.8174 148.201 76.9484 148.201 73.4236C148.201 71.8047 149.03 70.2472 150.527 69.0382C150.725 68.8743 150.833 68.6078 150.797 68.3414C150.617 66.8455 150.527 65.288 150.527 63.7511C150.527 55.1854 153.322 47.951 156.621 47.951C158.117 47.951 159.289 49.4469 159.992 50.697C160.191 51.0454 160.587 51.1273 160.894 50.9224C161.2 50.697 161.273 50.2462 161.092 49.8978C159.812 47.6641 158.28 46.4755 156.621 46.4755C152.474 46.4755 149.229 54.0575 149.229 63.751C149.229 65.206 149.301 66.661 149.463 68.0955C147.822 69.5505 146.921 71.4153 146.921 73.4031C146.921 77.5632 150.924 80.9445 155.972 81.2107L155.954 81.2314Z" fill="#DBF7DA"/>
<path d="M198.199 97.705C196.811 96.0451 195.927 93.9958 195.711 91.9465C195.531 90.2867 195.765 88.6062 195.999 86.8439C196.162 85.6143 196.342 84.3643 196.36 83.0937C196.36 82.8068 196.216 82.5404 195.981 82.4174C195.747 82.2945 195.477 82.3355 195.278 82.5404C192.79 85.02 190.951 88.5243 190.086 92.1723C189.689 89.3033 189.238 86.3934 188.697 83.8113C188.625 83.5039 188.391 83.258 188.102 83.2375C187.796 83.2375 187.543 83.4219 187.453 83.7293C186.624 86.3728 185.957 89.9386 185.614 93.2583C185.199 91.5779 184.641 89.9384 183.865 88.8318C182.17 86.4342 179.827 84.6718 177.284 83.8726C176.996 83.7906 176.708 83.9136 176.545 84.2005C176.401 84.4874 176.437 84.8562 176.635 85.0817C179.682 88.668 180.746 93.627 179.43 97.9715C179.322 98.3608 179.502 98.7707 179.827 98.9141C180.169 99.0371 180.53 98.8322 180.656 98.4633C181.864 94.4263 181.269 89.979 179.124 86.2909C180.53 87.1311 181.81 88.3197 182.838 89.7542C183.902 91.2501 184.497 94.1806 184.983 96.5165C185.128 97.2337 185.272 97.8895 185.398 98.4428C185.47 98.7707 185.741 98.9961 186.029 98.9961H186.119C186.444 98.9346 186.678 98.6272 186.678 98.2379C186.588 95.0206 187.111 90.5733 187.94 86.9055C188.535 90.3279 189.022 94.0574 189.455 97.4182L189.581 98.3608C189.635 98.7502 189.96 99.0371 190.302 98.9961C190.645 98.9552 190.897 98.5863 190.879 98.1969C190.501 93.75 192.123 88.6063 194.918 85.0408C194.864 85.5737 194.792 86.1269 194.72 86.6598C194.485 88.4427 194.233 90.287 194.431 92.1723C194.684 94.5495 195.693 96.8857 197.28 98.7707C197.532 99.0576 197.929 99.0781 198.199 98.7912C198.452 98.5043 198.47 98.033 198.217 97.746L198.199 97.705Z" fill="#DBF7DA"/>
<path d="M168.033 83.3814C164.878 84.5086 163.652 88.7505 162.588 92.5005C162.48 92.9104 162.354 93.2998 162.246 93.6686C162.228 93.4432 162.21 93.1973 162.174 92.9718C161.849 89.3651 161.489 85.2462 160.19 82.9714C160.028 82.6845 159.704 82.541 159.433 82.664C159.145 82.7869 158.964 83.0943 159 83.4427C159.109 84.5493 158.514 86.4141 157.865 88.4225C157.179 90.5537 156.44 92.8694 156.296 94.9802C154.835 92.0907 153.555 88.2585 153.88 86.1476C153.916 85.8607 153.808 85.5738 153.609 85.4099C153.393 85.2459 153.123 85.2459 152.906 85.4099C151.86 86.1476 151.41 89.0166 151.031 92.7873C150.418 90.2666 149.661 87.3567 148.885 85.7994C147.804 83.6477 146.379 81.2705 143.945 79.8975C143.693 79.754 143.404 79.8155 143.206 80.0204C143.008 80.2254 142.954 80.5738 143.062 80.8606C144.324 84.1599 143.693 93.1969 143.008 98.1362C142.954 98.546 143.188 98.9149 143.549 98.9763H143.657C143.963 98.9763 144.252 98.7099 144.288 98.3616C144.721 95.1852 145.532 87.0089 144.739 82.2336C146.073 83.4427 147.01 85.0616 147.75 86.5371C148.525 88.0741 149.318 91.2914 149.949 93.8738C150.22 94.9804 150.472 95.9846 150.671 96.7223C150.761 97.0297 151.031 97.2347 151.32 97.2347C151.608 97.2347 151.861 96.9682 151.915 96.6404C151.987 96.21 152.077 95.3493 152.185 94.3042C152.293 93.1771 152.51 90.9638 152.798 89.2015C153.519 92.7467 155.611 96.9475 156.999 98.7508C157.215 99.0377 157.594 99.0787 157.864 98.8533C158.135 98.6279 158.207 98.1975 158.045 97.8696C156.909 95.7179 158.063 92.1317 159.09 88.9551C159.415 87.951 159.722 87.0083 159.938 86.1477C160.443 88.2379 160.677 90.902 160.875 93.1565C161.002 94.5295 161.11 95.8 161.272 96.8247C161.326 97.1321 161.543 97.378 161.831 97.419C162.12 97.4805 162.39 97.2961 162.498 97.0092C162.985 95.8411 163.382 94.4476 163.814 92.9926C164.409 90.9433 165.004 88.8531 165.888 87.2751C165.167 89.8572 165.852 92.5622 167.348 97.911C167.456 98.3003 167.817 98.5258 168.16 98.3823C168.502 98.2594 168.682 97.8495 168.574 97.4602C166.501 90.0421 166.14 88.3411 168.736 84.5704C168.917 84.3245 168.917 83.9556 168.755 83.6892C168.592 83.4227 168.304 83.2998 168.033 83.4023L168.033 83.3814Z" fill="#DBF7DA"/>
<path d="M186.54 418.59C186.687 418.59 186.817 418.647 186.93 418.76L187.99 419.91C187.403 420.637 186.68 421.193 185.82 421.58C184.967 421.967 183.94 422.16 182.74 422.16C181.667 422.16 180.7 421.977 179.84 421.61C178.987 421.243 178.257 420.733 177.65 420.08C177.043 419.427 176.577 418.647 176.25 417.74C175.93 416.833 175.77 415.843 175.77 414.77C175.77 413.683 175.943 412.69 176.29 411.79C176.637 410.883 177.123 410.103 177.75 409.45C178.383 408.797 179.137 408.29 180.01 407.93C180.883 407.563 181.85 407.38 182.91 407.38C183.963 407.38 184.897 407.553 185.71 407.9C186.53 408.247 187.227 408.7 187.8 409.26L186.9 410.51C186.847 410.59 186.777 410.66 186.69 410.72C186.61 410.78 186.497 410.81 186.35 410.81C186.25 410.81 186.147 410.783 186.04 410.73C185.933 410.67 185.817 410.6 185.69 410.52C185.563 410.433 185.417 410.34 185.25 410.24C185.083 410.14 184.89 410.05 184.67 409.97C184.45 409.883 184.193 409.813 183.9 409.76C183.613 409.7 183.28 409.67 182.9 409.67C182.253 409.67 181.66 409.787 181.12 410.02C180.587 410.247 180.127 410.58 179.74 411.02C179.353 411.453 179.053 411.987 178.84 412.62C178.627 413.247 178.52 413.963 178.52 414.77C178.52 415.583 178.633 416.307 178.86 416.94C179.093 417.573 179.407 418.107 179.8 418.54C180.193 418.973 180.657 419.307 181.19 419.54C181.723 419.767 182.297 419.88 182.91 419.88C183.277 419.88 183.607 419.86 183.9 419.82C184.2 419.78 184.473 419.717 184.72 419.63C184.973 419.543 185.21 419.433 185.43 419.3C185.657 419.16 185.88 418.99 186.1 418.79C186.167 418.73 186.237 418.683 186.31 418.65C186.383 418.61 186.46 418.59 186.54 418.59Z" fill="#2D302D"/>
<path d="M198.146 411.74V422H196.636C196.309 422 196.103 421.85 196.016 421.55L195.846 420.73C195.426 421.157 194.963 421.503 194.456 421.77C193.949 422.03 193.353 422.16 192.666 422.16C192.106 422.16 191.609 422.067 191.176 421.88C190.749 421.687 190.389 421.417 190.096 421.07C189.803 420.723 189.579 420.313 189.426 419.84C189.279 419.36 189.206 418.833 189.206 418.26V411.74H191.676V418.26C191.676 418.887 191.819 419.373 192.106 419.72C192.399 420.06 192.836 420.23 193.416 420.23C193.843 420.23 194.243 420.137 194.616 419.95C194.989 419.757 195.343 419.493 195.676 419.16V411.74H198.146Z" fill="#2D302D"/>
<path d="M202.925 413.52C203.245 412.907 203.625 412.427 204.065 412.08C204.505 411.727 205.025 411.55 205.625 411.55C206.098 411.55 206.478 411.653 206.765 411.86L206.605 413.71C206.572 413.83 206.522 413.917 206.455 413.97C206.395 414.017 206.312 414.04 206.205 414.04C206.105 414.04 205.955 414.023 205.755 413.99C205.562 413.957 205.372 413.94 205.185 413.94C204.912 413.94 204.668 413.98 204.455 414.06C204.242 414.14 204.048 414.257 203.875 414.41C203.708 414.557 203.558 414.737 203.425 414.95C203.298 415.163 203.178 415.407 203.065 415.68V422H200.595V411.74H202.045C202.298 411.74 202.475 411.787 202.575 411.88C202.675 411.967 202.742 412.127 202.775 412.36L202.925 413.52Z" fill="#2D302D"/>
<path d="M214.277 413.74C214.21 413.847 214.14 413.923 214.067 413.97C213.994 414.01 213.9 414.03 213.787 414.03C213.667 414.03 213.537 413.997 213.397 413.93C213.264 413.863 213.107 413.79 212.927 413.71C212.747 413.623 212.54 413.547 212.307 413.48C212.08 413.413 211.81 413.38 211.497 413.38C211.01 413.38 210.627 413.483 210.347 413.69C210.074 413.897 209.937 414.167 209.937 414.5C209.937 414.72 210.007 414.907 210.147 415.06C210.294 415.207 210.484 415.337 210.717 415.45C210.957 415.563 211.227 415.667 211.527 415.76C211.827 415.847 212.13 415.943 212.437 416.05C212.75 416.157 213.057 416.28 213.357 416.42C213.657 416.553 213.924 416.727 214.157 416.94C214.397 417.147 214.587 417.397 214.727 417.69C214.874 417.983 214.947 418.337 214.947 418.75C214.947 419.243 214.857 419.7 214.677 420.12C214.504 420.533 214.244 420.893 213.897 421.2C213.55 421.5 213.12 421.737 212.607 421.91C212.1 422.077 211.514 422.16 210.847 422.16C210.494 422.16 210.147 422.127 209.807 422.06C209.474 422 209.15 421.913 208.837 421.8C208.53 421.687 208.244 421.553 207.977 421.4C207.717 421.247 207.487 421.08 207.287 420.9L207.857 419.96C207.93 419.847 208.017 419.76 208.117 419.7C208.217 419.64 208.344 419.61 208.497 419.61C208.65 419.61 208.794 419.653 208.927 419.74C209.067 419.827 209.227 419.92 209.407 420.02C209.587 420.12 209.797 420.213 210.037 420.3C210.284 420.387 210.594 420.43 210.967 420.43C211.26 420.43 211.51 420.397 211.717 420.33C211.93 420.257 212.104 420.163 212.237 420.05C212.377 419.937 212.477 419.807 212.537 419.66C212.604 419.507 212.637 419.35 212.637 419.19C212.637 418.95 212.564 418.753 212.417 418.6C212.277 418.447 212.087 418.313 211.847 418.2C211.614 418.087 211.344 417.987 211.037 417.9C210.737 417.807 210.427 417.707 210.107 417.6C209.794 417.493 209.484 417.37 209.177 417.23C208.877 417.083 208.607 416.9 208.367 416.68C208.134 416.46 207.944 416.19 207.797 415.87C207.657 415.55 207.587 415.163 207.587 414.71C207.587 414.29 207.67 413.89 207.837 413.51C208.004 413.13 208.247 412.8 208.567 412.52C208.894 412.233 209.297 412.007 209.777 411.84C210.264 411.667 210.824 411.58 211.457 411.58C212.164 411.58 212.807 411.697 213.387 411.93C213.967 412.163 214.45 412.47 214.837 412.85L214.277 413.74Z" fill="#2D302D"/>
<path d="M221.346 411.58C222.106 411.58 222.796 411.703 223.416 411.95C224.043 412.197 224.576 412.547 225.016 413C225.463 413.453 225.806 414.007 226.046 414.66C226.286 415.313 226.406 416.043 226.406 416.85C226.406 417.663 226.286 418.397 226.046 419.05C225.806 419.703 225.463 420.26 225.016 420.72C224.576 421.18 224.043 421.533 223.416 421.78C222.796 422.027 222.106 422.15 221.346 422.15C220.579 422.15 219.883 422.027 219.256 421.78C218.629 421.533 218.093 421.18 217.646 420.72C217.206 420.26 216.863 419.703 216.616 419.05C216.376 418.397 216.256 417.663 216.256 416.85C216.256 416.043 216.376 415.313 216.616 414.66C216.863 414.007 217.206 413.453 217.646 413C218.093 412.547 218.629 412.197 219.256 411.95C219.883 411.703 220.579 411.58 221.346 411.58ZM221.346 420.25C222.199 420.25 222.829 419.963 223.236 419.39C223.649 418.817 223.856 417.977 223.856 416.87C223.856 415.763 223.649 414.92 223.236 414.34C222.829 413.76 222.199 413.47 221.346 413.47C220.479 413.47 219.836 413.763 219.416 414.35C219.003 414.93 218.796 415.77 218.796 416.87C218.796 417.97 219.003 418.81 219.416 419.39C219.836 419.963 220.479 420.25 221.346 420.25Z" fill="#2D302D"/>
<path d="M234.55 413.74C234.484 413.847 234.414 413.923 234.34 413.97C234.267 414.01 234.174 414.03 234.06 414.03C233.94 414.03 233.81 413.997 233.67 413.93C233.537 413.863 233.38 413.79 233.2 413.71C233.02 413.623 232.814 413.547 232.58 413.48C232.354 413.413 232.084 413.38 231.77 413.38C231.284 413.38 230.9 413.483 230.62 413.69C230.347 413.897 230.21 414.167 230.21 414.5C230.21 414.72 230.28 414.907 230.42 415.06C230.567 415.207 230.757 415.337 230.99 415.45C231.23 415.563 231.5 415.667 231.8 415.76C232.1 415.847 232.404 415.943 232.71 416.05C233.024 416.157 233.33 416.28 233.63 416.42C233.93 416.553 234.197 416.727 234.43 416.94C234.67 417.147 234.86 417.397 235 417.69C235.147 417.983 235.22 418.337 235.22 418.75C235.22 419.243 235.13 419.7 234.95 420.12C234.777 420.533 234.517 420.893 234.17 421.2C233.824 421.5 233.394 421.737 232.88 421.91C232.374 422.077 231.787 422.16 231.12 422.16C230.767 422.16 230.42 422.127 230.08 422.06C229.747 422 229.424 421.913 229.11 421.8C228.804 421.687 228.517 421.553 228.25 421.4C227.99 421.247 227.76 421.08 227.56 420.9L228.13 419.96C228.204 419.847 228.29 419.76 228.39 419.7C228.49 419.64 228.617 419.61 228.77 419.61C228.924 419.61 229.067 419.653 229.2 419.74C229.34 419.827 229.5 419.92 229.68 420.02C229.86 420.12 230.07 420.213 230.31 420.3C230.557 420.387 230.867 420.43 231.24 420.43C231.534 420.43 231.784 420.397 231.99 420.33C232.204 420.257 232.377 420.163 232.51 420.05C232.65 419.937 232.75 419.807 232.81 419.66C232.877 419.507 232.91 419.35 232.91 419.19C232.91 418.95 232.837 418.753 232.69 418.6C232.55 418.447 232.36 418.313 232.12 418.2C231.887 418.087 231.617 417.987 231.31 417.9C231.01 417.807 230.7 417.707 230.38 417.6C230.067 417.493 229.757 417.37 229.45 417.23C229.15 417.083 228.88 416.9 228.64 416.68C228.407 416.46 228.217 416.19 228.07 415.87C227.93 415.55 227.86 415.163 227.86 414.71C227.86 414.29 227.944 413.89 228.11 413.51C228.277 413.13 228.52 412.8 228.84 412.52C229.167 412.233 229.57 412.007 230.05 411.84C230.537 411.667 231.097 411.58 231.73 411.58C232.437 411.58 233.08 411.697 233.66 411.93C234.24 412.163 234.724 412.47 235.11 412.85L234.55 413.74Z" fill="#2D302D"/>
<path d="M188.53 438.75V444.6C187.797 445.14 187.013 445.537 186.18 445.79C185.353 446.037 184.467 446.16 183.52 446.16C182.34 446.16 181.27 445.977 180.31 445.61C179.357 445.243 178.54 444.733 177.86 444.08C177.187 443.427 176.667 442.647 176.3 441.74C175.933 440.833 175.75 439.843 175.75 438.77C175.75 437.683 175.927 436.687 176.28 435.78C176.633 434.873 177.133 434.093 177.78 433.44C178.433 432.787 179.223 432.28 180.15 431.92C181.077 431.56 182.117 431.38 183.27 431.38C183.857 431.38 184.403 431.427 184.91 431.52C185.423 431.613 185.897 431.743 186.33 431.91C186.77 432.07 187.17 432.267 187.53 432.5C187.89 432.733 188.22 432.99 188.52 433.27L187.75 434.49C187.63 434.683 187.473 434.803 187.28 434.85C187.087 434.89 186.877 434.84 186.65 434.7C186.43 434.573 186.21 434.447 185.99 434.32C185.77 434.193 185.523 434.083 185.25 433.99C184.983 433.897 184.68 433.82 184.34 433.76C184.007 433.7 183.62 433.67 183.18 433.67C182.467 433.67 181.82 433.79 181.24 434.03C180.667 434.27 180.177 434.613 179.77 435.06C179.363 435.507 179.05 436.043 178.83 436.67C178.61 437.297 178.5 437.997 178.5 438.77C178.5 439.597 178.617 440.337 178.85 440.99C179.09 441.637 179.423 442.187 179.85 442.64C180.283 443.087 180.803 443.43 181.41 443.67C182.017 443.903 182.693 444.02 183.44 444.02C183.973 444.02 184.45 443.963 184.87 443.85C185.29 443.737 185.7 443.583 186.1 443.39V440.77H184.28C184.107 440.77 183.97 440.723 183.87 440.63C183.777 440.53 183.73 440.41 183.73 440.27V438.75H188.53Z" fill="#2D302D"/>
<path d="M197.225 439.69C197.225 439.37 197.178 439.07 197.085 438.79C196.998 438.503 196.865 438.253 196.685 438.04C196.505 437.827 196.275 437.66 195.995 437.54C195.721 437.413 195.401 437.35 195.035 437.35C194.321 437.35 193.758 437.553 193.345 437.96C192.938 438.367 192.678 438.943 192.565 439.69H197.225ZM192.515 441.18C192.555 441.707 192.648 442.163 192.795 442.55C192.941 442.93 193.135 443.247 193.375 443.5C193.615 443.747 193.898 443.933 194.225 444.06C194.558 444.18 194.925 444.24 195.325 444.24C195.725 444.24 196.068 444.193 196.355 444.1C196.648 444.007 196.901 443.903 197.115 443.79C197.335 443.677 197.525 443.573 197.685 443.48C197.851 443.387 198.011 443.34 198.165 443.34C198.371 443.34 198.525 443.417 198.625 443.57L199.335 444.47C199.061 444.79 198.755 445.06 198.415 445.28C198.075 445.493 197.718 445.667 197.345 445.8C196.978 445.927 196.601 446.017 196.215 446.07C195.835 446.123 195.465 446.15 195.105 446.15C194.391 446.15 193.728 446.033 193.115 445.8C192.501 445.56 191.968 445.21 191.515 444.75C191.061 444.283 190.705 443.71 190.445 443.03C190.185 442.343 190.055 441.55 190.055 440.65C190.055 439.95 190.168 439.293 190.395 438.68C190.621 438.06 190.945 437.523 191.365 437.07C191.791 436.61 192.308 436.247 192.915 435.98C193.528 435.713 194.218 435.58 194.985 435.58C195.631 435.58 196.228 435.683 196.775 435.89C197.321 436.097 197.791 436.4 198.185 436.8C198.578 437.193 198.885 437.68 199.105 438.26C199.331 438.833 199.445 439.49 199.445 440.23C199.445 440.603 199.405 440.857 199.325 440.99C199.245 441.117 199.091 441.18 198.865 441.18H192.515Z" fill="#2D302D"/>
<path d="M203.628 437.52C203.948 436.907 204.328 436.427 204.768 436.08C205.208 435.727 205.728 435.55 206.328 435.55C206.801 435.55 207.181 435.653 207.468 435.86L207.308 437.71C207.275 437.83 207.225 437.917 207.158 437.97C207.098 438.017 207.015 438.04 206.908 438.04C206.808 438.04 206.658 438.023 206.458 437.99C206.265 437.957 206.075 437.94 205.888 437.94C205.615 437.94 205.371 437.98 205.158 438.06C204.945 438.14 204.751 438.257 204.578 438.41C204.411 438.557 204.261 438.737 204.128 438.95C204.001 439.163 203.881 439.407 203.768 439.68V446H201.298L201.298 435.74H202.748C203.001 435.74 203.178 435.787 203.278 435.88C203.378 435.967 203.445 436.127 203.478 436.36L203.628 437.52Z" fill="#2D302D"/>
<path d="M208.759 446L208.759 435.74H210.269C210.589 435.74 210.799 435.89 210.899 436.19L211.059 436.95C211.239 436.75 211.426 436.567 211.619 436.4C211.819 436.233 212.029 436.09 212.249 435.97C212.476 435.85 212.716 435.757 212.969 435.69C213.229 435.617 213.512 435.58 213.819 435.58C214.466 435.58 214.996 435.757 215.409 436.11C215.829 436.457 216.142 436.92 216.349 437.5C216.509 437.16 216.709 436.87 216.949 436.63C217.189 436.383 217.452 436.183 217.739 436.03C218.026 435.877 218.329 435.763 218.649 435.69C218.976 435.617 219.302 435.58 219.629 435.58C220.196 435.58 220.699 435.667 221.139 435.84C221.579 436.013 221.949 436.267 222.249 436.6C222.549 436.933 222.776 437.34 222.929 437.82C223.089 438.3 223.169 438.85 223.169 439.47V446H220.699V439.47C220.699 438.817 220.556 438.327 220.269 438C219.982 437.667 219.562 437.5 219.009 437.5C218.756 437.5 218.519 437.543 218.299 437.63C218.086 437.717 217.896 437.843 217.729 438.01C217.569 438.17 217.442 438.373 217.349 438.62C217.256 438.867 217.209 439.15 217.209 439.47V446H214.729V439.47C214.729 438.783 214.589 438.283 214.309 437.97C214.036 437.657 213.632 437.5 213.099 437.5C212.739 437.5 212.402 437.59 212.089 437.77C211.782 437.943 211.496 438.183 211.229 438.49V446H208.759Z" fill="#2D302D"/>
<path d="M228.077 435.74V446H225.597V435.74H228.077ZM228.417 432.75C228.417 432.963 228.374 433.163 228.287 433.35C228.2 433.537 228.084 433.7 227.937 433.84C227.797 433.98 227.63 434.093 227.437 434.18C227.244 434.26 227.037 434.3 226.817 434.3C226.604 434.3 226.4 434.26 226.207 434.18C226.02 434.093 225.857 433.98 225.717 433.84C225.577 433.7 225.464 433.537 225.377 433.35C225.297 433.163 225.257 432.963 225.257 432.75C225.257 432.53 225.297 432.323 225.377 432.13C225.464 431.937 225.577 431.77 225.717 431.63C225.857 431.49 226.02 431.38 226.207 431.3C226.4 431.213 226.604 431.17 226.817 431.17C227.037 431.17 227.244 431.213 227.437 431.3C227.63 431.38 227.797 431.49 227.937 431.63C228.084 431.77 228.2 431.937 228.287 432.13C228.374 432.323 228.417 432.53 228.417 432.75Z" fill="#2D302D"/>
<path d="M232.905 437C233.112 436.793 233.328 436.603 233.555 436.43C233.788 436.25 234.032 436.1 234.285 435.98C234.545 435.853 234.822 435.757 235.115 435.69C235.408 435.617 235.728 435.58 236.075 435.58C236.635 435.58 237.132 435.677 237.565 435.87C237.998 436.057 238.358 436.323 238.645 436.67C238.938 437.01 239.158 437.42 239.305 437.9C239.458 438.373 239.535 438.897 239.535 439.47V446H237.065V439.47C237.065 438.843 236.922 438.36 236.635 438.02C236.348 437.673 235.912 437.5 235.325 437.5C234.898 437.5 234.498 437.597 234.125 437.79C233.752 437.983 233.398 438.247 233.065 438.58V446H230.595L230.595 435.74H232.105C232.425 435.74 232.635 435.89 232.735 436.19L232.905 437Z" fill="#2D302D"/>
<path d="M247.304 441.62C246.591 441.653 245.991 441.717 245.504 441.81C245.017 441.897 244.627 442.01 244.334 442.15C244.041 442.29 243.831 442.453 243.704 442.64C243.577 442.827 243.514 443.03 243.514 443.25C243.514 443.683 243.641 443.993 243.894 444.18C244.154 444.367 244.491 444.46 244.904 444.46C245.411 444.46 245.847 444.37 246.214 444.19C246.587 444.003 246.951 443.723 247.304 443.35V441.62ZM241.644 437.17C242.824 436.09 244.244 435.55 245.904 435.55C246.504 435.55 247.041 435.65 247.514 435.85C247.987 436.043 248.387 436.317 248.714 436.67C249.041 437.017 249.287 437.433 249.454 437.92C249.627 438.407 249.714 438.94 249.714 439.52V446H248.594C248.361 446 248.181 445.967 248.054 445.9C247.927 445.827 247.827 445.683 247.754 445.47L247.534 444.73C247.274 444.963 247.021 445.17 246.774 445.35C246.527 445.523 246.271 445.67 246.004 445.79C245.737 445.91 245.451 446 245.144 446.06C244.844 446.127 244.511 446.16 244.144 446.16C243.711 446.16 243.311 446.103 242.944 445.99C242.577 445.87 242.261 445.693 241.994 445.46C241.727 445.227 241.521 444.937 241.374 444.59C241.227 444.243 241.154 443.84 241.154 443.38C241.154 443.12 241.197 442.863 241.284 442.61C241.371 442.35 241.511 442.103 241.704 441.87C241.904 441.637 242.161 441.417 242.474 441.21C242.787 441.003 243.171 440.823 243.624 440.67C244.084 440.517 244.617 440.393 245.224 440.3C245.831 440.2 246.524 440.14 247.304 440.12V439.52C247.304 438.833 247.157 438.327 246.864 438C246.571 437.667 246.147 437.5 245.594 437.5C245.194 437.5 244.861 437.547 244.594 437.64C244.334 437.733 244.104 437.84 243.904 437.96C243.704 438.073 243.521 438.177 243.354 438.27C243.194 438.363 243.014 438.41 242.814 438.41C242.641 438.41 242.494 438.367 242.374 438.28C242.254 438.187 242.157 438.08 242.084 437.96L241.644 437.17Z" fill="#2D302D"/>
<path d="M259.39 437.91C259.317 438.003 259.244 438.077 259.17 438.13C259.104 438.183 259.004 438.21 258.87 438.21C258.744 438.21 258.62 438.173 258.5 438.1C258.38 438.02 258.237 437.933 258.07 437.84C257.904 437.74 257.704 437.653 257.47 437.58C257.244 437.5 256.96 437.46 256.62 437.46C256.187 437.46 255.807 437.54 255.48 437.7C255.154 437.853 254.88 438.077 254.66 438.37C254.447 438.663 254.287 439.02 254.18 439.44C254.074 439.853 254.02 440.323 254.02 440.85C254.02 441.397 254.077 441.883 254.19 442.31C254.31 442.737 254.48 443.097 254.7 443.39C254.92 443.677 255.187 443.897 255.5 444.05C255.814 444.197 256.167 444.27 256.56 444.27C256.954 444.27 257.27 444.223 257.51 444.13C257.757 444.03 257.964 443.923 258.13 443.81C258.297 443.69 258.44 443.583 258.56 443.49C258.687 443.39 258.827 443.34 258.98 443.34C259.18 443.34 259.33 443.417 259.43 443.57L260.14 444.47C259.867 444.79 259.57 445.06 259.25 445.28C258.93 445.493 258.597 445.667 258.25 445.8C257.91 445.927 257.557 446.017 257.19 446.07C256.83 446.123 256.47 446.15 256.11 446.15C255.477 446.15 254.88 446.033 254.32 445.8C253.76 445.56 253.27 445.213 252.85 444.76C252.43 444.307 252.097 443.753 251.85 443.1C251.61 442.44 251.49 441.69 251.49 440.85C251.49 440.097 251.597 439.4 251.81 438.76C252.03 438.113 252.35 437.557 252.77 437.09C253.19 436.617 253.71 436.247 254.33 435.98C254.95 435.713 255.664 435.58 256.47 435.58C257.237 435.58 257.907 435.703 258.48 435.95C259.06 436.197 259.58 436.55 260.04 437.01L259.39 437.91Z" fill="#2D302D"/>
<path d="M264.249 435.74V446H261.769V435.74H264.249ZM264.589 432.75C264.589 432.963 264.545 433.163 264.459 433.35C264.372 433.537 264.255 433.7 264.109 433.84C263.969 433.98 263.802 434.093 263.609 434.18C263.415 434.26 263.209 434.3 262.989 434.3C262.775 434.3 262.572 434.26 262.379 434.18C262.192 434.093 262.029 433.98 261.889 433.84C261.749 433.7 261.635 433.537 261.549 433.35C261.469 433.163 261.429 432.963 261.429 432.75C261.429 432.53 261.469 432.323 261.549 432.13C261.635 431.937 261.749 431.77 261.889 431.63C262.029 431.49 262.192 431.38 262.379 431.3C262.572 431.213 262.775 431.17 262.989 431.17C263.209 431.17 263.415 431.213 263.609 431.3C263.802 431.38 263.969 431.49 264.109 431.63C264.255 431.77 264.372 431.937 264.459 432.13C264.545 432.323 264.589 432.53 264.589 432.75Z" fill="#2D302D"/>
<path d="M271.307 435.58C272.067 435.58 272.757 435.703 273.377 435.95C274.004 436.197 274.537 436.547 274.977 437C275.424 437.453 275.767 438.007 276.007 438.66C276.247 439.313 276.367 440.043 276.367 440.85C276.367 441.663 276.247 442.397 276.007 443.05C275.767 443.703 275.424 444.26 274.977 444.72C274.537 445.18 274.004 445.533 273.377 445.78C272.757 446.027 272.067 446.15 271.307 446.15C270.54 446.15 269.844 446.027 269.217 445.78C268.59 445.533 268.054 445.18 267.607 444.72C267.167 444.26 266.824 443.703 266.577 443.05C266.337 442.397 266.217 441.663 266.217 440.85C266.217 440.043 266.337 439.313 266.577 438.66C266.824 438.007 267.167 437.453 267.607 437C268.054 436.547 268.59 436.197 269.217 435.95C269.844 435.703 270.54 435.58 271.307 435.58ZM271.307 444.25C272.16 444.25 272.79 443.963 273.197 443.39C273.61 442.817 273.817 441.977 273.817 440.87C273.817 439.763 273.61 438.92 273.197 438.34C272.79 437.76 272.16 437.47 271.307 437.47C270.44 437.47 269.797 437.763 269.377 438.35C268.964 438.93 268.757 439.77 268.757 440.87C268.757 441.97 268.964 442.81 269.377 443.39C269.797 443.963 270.44 444.25 271.307 444.25ZM274.767 431.38L272.297 433.99C272.17 434.123 272.047 434.217 271.927 434.27C271.814 434.317 271.664 434.34 271.477 434.34H269.997L271.417 431.91C271.517 431.737 271.634 431.607 271.767 431.52C271.9 431.427 272.1 431.38 272.367 431.38H274.767Z" fill="#2D302D"/>
<path d="M280.561 437C280.768 436.793 280.985 436.603 281.211 436.43C281.445 436.25 281.688 436.1 281.941 435.98C282.201 435.853 282.478 435.757 282.771 435.69C283.065 435.617 283.385 435.58 283.731 435.58C284.291 435.58 284.788 435.677 285.221 435.87C285.655 436.057 286.015 436.323 286.301 436.67C286.595 437.01 286.815 437.42 286.961 437.9C287.115 438.373 287.191 438.897 287.191 439.47V446H284.721V439.47C284.721 438.843 284.578 438.36 284.291 438.02C284.005 437.673 283.568 437.5 282.981 437.5C282.555 437.5 282.155 437.597 281.781 437.79C281.408 437.983 281.055 438.247 280.721 438.58V446H278.251V435.74H279.761C280.081 435.74 280.291 435.89 280.391 436.19L280.561 437Z" fill="#2D302D"/>
<path d="M229.71 148.75H225.35L225.35 161H222.66V148.75H218.3V146.54L229.71 146.54L229.71 148.75Z" fill="#DBF7DA"/>
<path d="M235.42 154.69C235.42 154.37 235.373 154.07 235.28 153.79C235.193 153.503 235.06 153.253 234.88 153.04C234.7 152.827 234.47 152.66 234.19 152.54C233.917 152.413 233.597 152.35 233.23 152.35C232.517 152.35 231.953 152.553 231.54 152.96C231.133 153.367 230.873 153.943 230.76 154.69H235.42ZM230.71 156.18C230.75 156.707 230.843 157.163 230.99 157.55C231.137 157.93 231.33 158.247 231.57 158.5C231.81 158.747 232.093 158.933 232.42 159.06C232.753 159.18 233.12 159.24 233.52 159.24C233.92 159.24 234.263 159.193 234.55 159.1C234.843 159.007 235.097 158.903 235.31 158.79C235.53 158.677 235.72 158.573 235.88 158.48C236.047 158.387 236.207 158.34 236.36 158.34C236.567 158.34 236.72 158.417 236.82 158.57L237.53 159.47C237.257 159.79 236.95 160.06 236.61 160.28C236.27 160.493 235.913 160.667 235.54 160.8C235.173 160.927 234.797 161.017 234.41 161.07C234.03 161.123 233.66 161.15 233.3 161.15C232.587 161.15 231.923 161.033 231.31 160.8C230.697 160.56 230.163 160.21 229.71 159.75C229.257 159.283 228.9 158.71 228.64 158.03C228.38 157.343 228.25 156.55 228.25 155.65C228.25 154.95 228.363 154.293 228.59 153.68C228.817 153.06 229.14 152.523 229.56 152.07C229.987 151.61 230.503 151.247 231.11 150.98C231.723 150.713 232.413 150.58 233.18 150.58C233.827 150.58 234.423 150.683 234.97 150.89C235.517 151.097 235.987 151.4 236.38 151.8C236.773 152.193 237.08 152.68 237.3 153.26C237.527 153.833 237.64 154.49 237.64 155.23C237.64 155.603 237.6 155.857 237.52 155.99C237.44 156.117 237.287 156.18 237.06 156.18H230.71Z" fill="#DBF7DA"/>
<path d="M245.753 152.74C245.687 152.847 245.617 152.923 245.543 152.97C245.47 153.01 245.377 153.03 245.263 153.03C245.143 153.03 245.013 152.997 244.873 152.93C244.74 152.863 244.583 152.79 244.403 152.71C244.223 152.623 244.017 152.547 243.783 152.48C243.557 152.413 243.287 152.38 242.973 152.38C242.487 152.38 242.103 152.483 241.823 152.69C241.55 152.897 241.413 153.167 241.413 153.5C241.413 153.72 241.483 153.907 241.623 154.06C241.77 154.207 241.96 154.337 242.193 154.45C242.433 154.563 242.703 154.667 243.003 154.76C243.303 154.847 243.607 154.943 243.913 155.05C244.227 155.157 244.533 155.28 244.833 155.42C245.133 155.553 245.4 155.727 245.633 155.94C245.873 156.147 246.063 156.397 246.203 156.69C246.35 156.983 246.423 157.337 246.423 157.75C246.423 158.243 246.333 158.7 246.153 159.12C245.98 159.533 245.72 159.893 245.373 160.2C245.027 160.5 244.597 160.737 244.083 160.91C243.577 161.077 242.99 161.16 242.323 161.16C241.97 161.16 241.623 161.127 241.283 161.06C240.95 161 240.627 160.913 240.313 160.8C240.007 160.687 239.72 160.553 239.453 160.4C239.193 160.247 238.963 160.08 238.763 159.9L239.333 158.96C239.407 158.847 239.493 158.76 239.593 158.7C239.693 158.64 239.82 158.61 239.973 158.61C240.127 158.61 240.27 158.653 240.403 158.74C240.543 158.827 240.703 158.92 240.883 159.02C241.063 159.12 241.273 159.213 241.513 159.3C241.76 159.387 242.07 159.43 242.443 159.43C242.737 159.43 242.987 159.397 243.193 159.33C243.407 159.257 243.58 159.163 243.713 159.05C243.853 158.937 243.953 158.807 244.013 158.66C244.08 158.507 244.113 158.35 244.113 158.19C244.113 157.95 244.04 157.753 243.893 157.6C243.753 157.447 243.563 157.313 243.323 157.2C243.09 157.087 242.82 156.987 242.513 156.9C242.213 156.807 241.903 156.707 241.583 156.6C241.27 156.493 240.96 156.37 240.653 156.23C240.353 156.083 240.083 155.9 239.843 155.68C239.61 155.46 239.42 155.19 239.273 154.87C239.133 154.55 239.063 154.163 239.063 153.71C239.063 153.29 239.147 152.89 239.313 152.51C239.48 152.13 239.723 151.8 240.043 151.52C240.37 151.233 240.773 151.007 241.253 150.84C241.74 150.667 242.3 150.58 242.933 150.58C243.64 150.58 244.283 150.697 244.863 150.93C245.443 151.163 245.927 151.47 246.313 151.85L245.753 152.74Z" fill="#DBF7DA"/>
<path d="M250.842 150.74V161H248.363V150.74H250.842ZM251.182 147.75C251.182 147.963 251.139 148.163 251.053 148.35C250.966 148.537 250.849 148.7 250.702 148.84C250.562 148.98 250.396 149.093 250.202 149.18C250.009 149.26 249.803 149.3 249.583 149.3C249.369 149.3 249.166 149.26 248.973 149.18C248.786 149.093 248.622 148.98 248.482 148.84C248.342 148.7 248.229 148.537 248.143 148.35C248.063 148.163 248.022 147.963 248.022 147.75C248.022 147.53 248.063 147.323 248.143 147.13C248.229 146.937 248.342 146.77 248.482 146.63C248.622 146.49 248.786 146.38 248.973 146.3C249.166 146.213 249.369 146.17 249.583 146.17C249.803 146.17 250.009 146.213 250.202 146.3C250.396 146.38 250.562 146.49 250.702 146.63C250.849 146.77 250.966 146.937 251.053 147.13C251.139 147.323 251.182 147.53 251.182 147.75Z" fill="#DBF7DA"/>
<path d="M259.621 152.74C259.554 152.847 259.484 152.923 259.411 152.97C259.337 153.01 259.244 153.03 259.131 153.03C259.011 153.03 258.881 152.997 258.741 152.93C258.607 152.863 258.451 152.79 258.271 152.71C258.091 152.623 257.884 152.547 257.651 152.48C257.424 152.413 257.154 152.38 256.841 152.38C256.354 152.38 255.971 152.483 255.691 152.69C255.417 152.897 255.281 153.167 255.281 153.5C255.281 153.72 255.351 153.907 255.491 154.06C255.637 154.207 255.827 154.337 256.061 154.45C256.301 154.563 256.571 154.667 256.871 154.76C257.171 154.847 257.474 154.943 257.781 155.05C258.094 155.157 258.401 155.28 258.701 155.42C259.001 155.553 259.267 155.727 259.501 155.94C259.741 156.147 259.931 156.397 260.071 156.69C260.217 156.983 260.291 157.337 260.291 157.75C260.291 158.243 260.201 158.7 260.021 159.12C259.847 159.533 259.587 159.893 259.241 160.2C258.894 160.5 258.464 160.737 257.951 160.91C257.444 161.077 256.857 161.16 256.191 161.16C255.837 161.16 255.491 161.127 255.151 161.06C254.817 161 254.494 160.913 254.181 160.8C253.874 160.687 253.587 160.553 253.321 160.4C253.061 160.247 252.831 160.08 252.631 159.9L253.201 158.96C253.274 158.847 253.361 158.76 253.461 158.7C253.561 158.64 253.687 158.61 253.841 158.61C253.994 158.61 254.137 158.653 254.271 158.74C254.411 158.827 254.571 158.92 254.751 159.02C254.931 159.12 255.141 159.213 255.381 159.3C255.627 159.387 255.937 159.43 256.311 159.43C256.604 159.43 256.854 159.397 257.061 159.33C257.274 159.257 257.447 159.163 257.581 159.05C257.721 158.937 257.821 158.807 257.881 158.66C257.947 158.507 257.981 158.35 257.981 158.19C257.981 157.95 257.907 157.753 257.761 157.6C257.621 157.447 257.431 157.313 257.191 157.2C256.957 157.087 256.687 156.987 256.381 156.9C256.081 156.807 255.771 156.707 255.451 156.6C255.137 156.493 254.827 156.37 254.521 156.23C254.221 156.083 253.951 155.9 253.711 155.68C253.477 155.46 253.287 155.19 253.141 154.87C253.001 154.55 252.931 154.163 252.931 153.71C252.931 153.29 253.014 152.89 253.181 152.51C253.347 152.13 253.591 151.8 253.911 151.52C254.237 151.233 254.641 151.007 255.121 150.84C255.607 150.667 256.167 150.58 256.801 150.58C257.507 150.58 258.151 150.697 258.731 150.93C259.311 151.163 259.794 151.47 260.181 151.85L259.621 152.74Z" fill="#DBF7DA"/>
<path d="M263.87 161.03C263.756 161.337 263.573 161.567 263.32 161.72C263.073 161.873 262.82 161.95 262.56 161.95H261.51L267.35 147.01C267.456 146.73 267.62 146.517 267.84 146.37C268.06 146.217 268.316 146.14 268.61 146.14H269.67L263.87 161.03Z" fill="#DBF7DA"/>
<path d="M281.956 148.75H277.596V161H274.906V148.75H270.546V146.54H281.956V148.75Z" fill="#DBF7DA"/>
<path d="M285.276 150.74V161H282.806V150.74L285.276 150.74ZM287.576 146.38L285.106 148.99C284.979 149.123 284.856 149.217 284.736 149.27C284.623 149.317 284.473 149.34 284.286 149.34H282.806L284.226 146.91C284.326 146.737 284.443 146.607 284.576 146.52C284.709 146.427 284.909 146.38 285.176 146.38H287.576Z" fill="#DBF7DA"/>
<path d="M291.234 161.16C290.34 161.16 289.654 160.91 289.174 160.41C288.7 159.903 288.464 159.207 288.464 158.32V152.59H287.414C287.28 152.59 287.167 152.547 287.074 152.46C286.98 152.373 286.934 152.243 286.934 152.07V151.09L288.584 150.82L289.104 148.02C289.137 147.887 289.2 147.783 289.294 147.71C289.387 147.637 289.507 147.6 289.654 147.6H290.934V150.83H293.674V152.59H290.934V158.15C290.934 158.47 291.01 158.72 291.164 158.9C291.324 159.08 291.54 159.17 291.814 159.17C291.967 159.17 292.094 159.153 292.194 159.12C292.3 159.08 292.39 159.04 292.464 159C292.544 158.96 292.614 158.923 292.674 158.89C292.734 158.85 292.794 158.83 292.854 158.83C292.927 158.83 292.987 158.85 293.034 158.89C293.08 158.923 293.13 158.977 293.184 159.05L293.924 160.25C293.564 160.55 293.15 160.777 292.684 160.93C292.217 161.083 291.734 161.16 291.234 161.16Z" fill="#DBF7DA"/>
<path d="M304.095 150.74V161H302.585C302.258 161 302.052 160.85 301.965 160.55L301.795 159.73C301.375 160.157 300.912 160.503 300.405 160.77C299.898 161.03 299.302 161.16 298.615 161.16C298.055 161.16 297.558 161.067 297.125 160.88C296.698 160.687 296.338 160.417 296.045 160.07C295.752 159.723 295.528 159.313 295.375 158.84C295.228 158.36 295.155 157.833 295.155 157.26V150.74H297.625V157.26C297.625 157.887 297.768 158.373 298.055 158.72C298.348 159.06 298.785 159.23 299.365 159.23C299.792 159.23 300.192 159.137 300.565 158.95C300.938 158.757 301.292 158.493 301.625 158.16V150.74H304.095Z" fill="#DBF7DA"/>
<path d="M309.044 146.14V161H306.574V146.14H309.044Z" fill="#DBF7DA"/>
<path d="M316.045 150.58C316.805 150.58 317.495 150.703 318.115 150.95C318.742 151.197 319.275 151.547 319.715 152C320.162 152.453 320.505 153.007 320.745 153.66C320.985 154.313 321.105 155.043 321.105 155.85C321.105 156.663 320.985 157.397 320.745 158.05C320.505 158.703 320.162 159.26 319.715 159.72C319.275 160.18 318.742 160.533 318.115 160.78C317.495 161.027 316.805 161.15 316.045 161.15C315.278 161.15 314.582 161.027 313.955 160.78C313.328 160.533 312.792 160.18 312.345 159.72C311.905 159.26 311.562 158.703 311.315 158.05C311.075 157.397 310.955 156.663 310.955 155.85C310.955 155.043 311.075 154.313 311.315 153.66C311.562 153.007 311.905 152.453 312.345 152C312.792 151.547 313.329 151.197 313.955 150.95C314.582 150.703 315.278 150.58 316.045 150.58ZM316.045 159.25C316.898 159.25 317.528 158.963 317.935 158.39C318.348 157.817 318.555 156.977 318.555 155.87C318.555 154.763 318.348 153.92 317.935 153.34C317.528 152.76 316.898 152.47 316.045 152.47C315.178 152.47 314.535 152.763 314.115 153.35C313.702 153.93 313.495 154.77 313.495 155.87C313.495 156.97 313.702 157.81 314.115 158.39C314.535 158.963 315.178 159.25 316.045 159.25Z" fill="#DBF7DA"/>
<path d="M227.25 179.54L225.49 174.73C225.403 174.517 225.313 174.263 225.22 173.97C225.127 173.677 225.033 173.36 224.94 173.02C224.853 173.36 224.763 173.68 224.67 173.98C224.577 174.273 224.487 174.53 224.4 174.75L222.65 179.54L227.25 179.54ZM232 185H229.92C229.687 185 229.497 184.943 229.35 184.83C229.203 184.71 229.093 184.563 229.02 184.39L227.94 181.44H221.95L220.87 184.39C220.817 184.543 220.713 184.683 220.56 184.81C220.407 184.937 220.217 185 219.99 185H217.89L223.58 170.54H226.32L232 185Z" fill="#DBF7DA"/>
<path d="M235.417 176.52C235.737 175.907 236.117 175.427 236.557 175.08C236.997 174.727 237.517 174.55 238.117 174.55C238.591 174.55 238.971 174.653 239.257 174.86L239.097 176.71C239.064 176.83 239.014 176.917 238.947 176.97C238.887 177.017 238.804 177.04 238.697 177.04C238.597 177.04 238.447 177.023 238.247 176.99C238.054 176.957 237.864 176.94 237.677 176.94C237.404 176.94 237.161 176.98 236.947 177.06C236.734 177.14 236.541 177.257 236.367 177.41C236.201 177.557 236.051 177.737 235.917 177.95C235.791 178.163 235.671 178.407 235.557 178.68V185H233.087L233.087 174.74H234.537C234.791 174.74 234.967 174.787 235.067 174.88C235.167 174.967 235.234 175.127 235.267 175.36L235.417 176.52Z" fill="#DBF7DA"/>
<path d="M243.018 182.34C243.298 182.68 243.601 182.92 243.928 183.06C244.261 183.2 244.611 183.27 244.978 183.27C245.358 183.27 245.698 183.203 245.998 183.07C246.305 182.93 246.565 182.717 246.778 182.43C246.991 182.137 247.155 181.767 247.268 181.32C247.381 180.867 247.438 180.327 247.438 179.7C247.438 178.573 247.251 177.76 246.878 177.26C246.505 176.753 245.968 176.5 245.268 176.5C244.795 176.5 244.381 176.61 244.028 176.83C243.675 177.043 243.338 177.347 243.018 177.74V182.34ZM243.018 176C243.431 175.567 243.888 175.223 244.388 174.97C244.895 174.71 245.471 174.58 246.118 174.58C246.711 174.58 247.245 174.697 247.718 174.93C248.198 175.163 248.605 175.5 248.938 175.94C249.278 176.373 249.538 176.9 249.718 177.52C249.898 178.14 249.988 178.837 249.988 179.61C249.988 180.443 249.885 181.2 249.678 181.88C249.471 182.56 249.175 183.143 248.788 183.63C248.408 184.11 247.948 184.483 247.408 184.75C246.868 185.017 246.268 185.15 245.608 185.15C245.288 185.15 244.998 185.117 244.738 185.05C244.478 184.99 244.238 184.903 244.018 184.79C243.798 184.677 243.595 184.54 243.408 184.38C243.228 184.213 243.055 184.03 242.888 183.83L242.778 184.52C242.738 184.693 242.668 184.817 242.568 184.89C242.475 184.963 242.345 185 242.178 185H240.548L240.548 170.14H243.018L243.018 176Z" fill="#DBF7DA"/>
<path d="M256.436 174.58C257.196 174.58 257.886 174.703 258.506 174.95C259.132 175.197 259.666 175.547 260.106 176C260.552 176.453 260.896 177.007 261.136 177.66C261.376 178.313 261.496 179.043 261.496 179.85C261.496 180.663 261.376 181.397 261.136 182.05C260.896 182.703 260.552 183.26 260.106 183.72C259.666 184.18 259.132 184.533 258.506 184.78C257.886 185.027 257.196 185.15 256.436 185.15C255.669 185.15 254.972 185.027 254.346 184.78C253.719 184.533 253.182 184.18 252.736 183.72C252.296 183.26 251.952 182.703 251.706 182.05C251.466 181.397 251.346 180.663 251.346 179.85C251.346 179.043 251.466 178.313 251.706 177.66C251.952 177.007 252.296 176.453 252.736 176C253.182 175.547 253.719 175.197 254.346 174.95C254.972 174.703 255.669 174.58 256.436 174.58ZM256.436 183.25C257.289 183.25 257.919 182.963 258.326 182.39C258.739 181.817 258.946 180.977 258.946 179.87C258.946 178.763 258.739 177.92 258.326 177.34C257.919 176.76 257.289 176.47 256.436 176.47C255.569 176.47 254.926 176.763 254.506 177.35C254.092 177.93 253.886 178.77 253.886 179.87C253.886 180.97 254.092 181.81 254.506 182.39C254.926 182.963 255.569 183.25 256.436 183.25Z" fill="#DBF7DA"/>
<path d="M265.88 170.14V185H263.41V170.14H265.88Z" fill="#DBF7DA"/>
<path d="M226.31 293.81C226.803 293.81 227.233 293.75 227.6 293.63C227.967 293.503 228.27 293.327 228.51 293.1C228.757 292.867 228.94 292.587 229.06 292.26C229.18 291.927 229.24 291.557 229.24 291.15C229.24 290.763 229.18 290.413 229.06 290.1C228.94 289.787 228.76 289.52 228.52 289.3C228.28 289.08 227.977 288.913 227.61 288.8C227.243 288.68 226.81 288.62 226.31 288.62H224.3V293.81H226.31ZM226.31 286.54C227.277 286.54 228.113 286.653 228.82 286.88C229.527 287.107 230.11 287.423 230.57 287.83C231.03 288.237 231.37 288.723 231.59 289.29C231.817 289.857 231.93 290.477 231.93 291.15C231.93 291.85 231.813 292.493 231.58 293.08C231.347 293.66 230.997 294.16 230.53 294.58C230.063 295 229.477 295.327 228.77 295.56C228.07 295.793 227.25 295.91 226.31 295.91H224.3V301H221.61V286.54H226.31Z" fill="#2D302D"/>
<path d="M235.777 292.52C236.097 291.907 236.477 291.427 236.917 291.08C237.357 290.727 237.877 290.55 238.477 290.55C238.95 290.55 239.33 290.653 239.617 290.86L239.457 292.71C239.423 292.83 239.373 292.917 239.307 292.97C239.247 293.017 239.163 293.04 239.057 293.04C238.957 293.04 238.807 293.023 238.607 292.99C238.413 292.957 238.223 292.94 238.037 292.94C237.763 292.94 237.52 292.98 237.307 293.06C237.093 293.14 236.9 293.257 236.727 293.41C236.56 293.557 236.41 293.737 236.277 293.95C236.15 294.163 236.03 294.407 235.917 294.68V301H233.447V290.74H234.897C235.15 290.74 235.327 290.787 235.427 290.88C235.527 290.967 235.593 291.127 235.627 291.36L235.777 292.52Z" fill="#2D302D"/>
<path d="M246.191 296.62C245.477 296.653 244.877 296.717 244.391 296.81C243.904 296.897 243.514 297.01 243.221 297.15C242.927 297.29 242.717 297.453 242.591 297.64C242.464 297.827 242.401 298.03 242.401 298.25C242.401 298.683 242.527 298.993 242.781 299.18C243.041 299.367 243.377 299.46 243.791 299.46C244.297 299.46 244.734 299.37 245.101 299.19C245.474 299.003 245.837 298.723 246.191 298.35V296.62ZM240.531 292.17C241.711 291.09 243.131 290.55 244.791 290.55C245.391 290.55 245.927 290.65 246.401 290.85C246.874 291.043 247.274 291.317 247.601 291.67C247.927 292.017 248.174 292.433 248.341 292.92C248.514 293.407 248.601 293.94 248.601 294.52V301H247.481C247.247 301 247.067 300.967 246.941 300.9C246.814 300.827 246.714 300.683 246.641 300.47L246.421 299.73C246.161 299.963 245.907 300.17 245.661 300.35C245.414 300.523 245.157 300.67 244.891 300.79C244.624 300.91 244.337 301 244.031 301.06C243.731 301.127 243.397 301.16 243.031 301.16C242.597 301.16 242.197 301.103 241.831 300.99C241.464 300.87 241.147 300.693 240.881 300.46C240.614 300.227 240.407 299.937 240.261 299.59C240.114 299.243 240.041 298.84 240.041 298.38C240.041 298.12 240.084 297.863 240.171 297.61C240.257 297.35 240.397 297.103 240.591 296.87C240.791 296.637 241.047 296.417 241.361 296.21C241.674 296.003 242.057 295.823 242.511 295.67C242.971 295.517 243.504 295.393 244.111 295.3C244.717 295.2 245.411 295.14 246.191 295.12V294.52C246.191 293.833 246.044 293.327 245.751 293C245.457 292.667 245.034 292.5 244.481 292.5C244.081 292.5 243.747 292.547 243.481 292.64C243.221 292.733 242.991 292.84 242.791 292.96C242.591 293.073 242.407 293.177 242.241 293.27C242.081 293.363 241.901 293.41 241.701 293.41C241.527 293.41 241.381 293.367 241.261 293.28C241.141 293.187 241.044 293.08 240.971 292.96L240.531 292.17ZM248.021 286.38L245.551 288.99C245.424 289.123 245.301 289.217 245.181 289.27C245.067 289.317 244.917 289.34 244.731 289.34H243.251L244.671 286.91C244.771 286.737 244.887 286.607 245.021 286.52C245.154 286.427 245.354 286.38 245.621 286.38H248.021Z" fill="#2D302D"/>
<path d="M258.277 292.91C258.204 293.003 258.13 293.077 258.057 293.13C257.99 293.183 257.89 293.21 257.757 293.21C257.63 293.21 257.507 293.173 257.387 293.1C257.267 293.02 257.124 292.933 256.957 292.84C256.79 292.74 256.59 292.653 256.357 292.58C256.13 292.5 255.847 292.46 255.507 292.46C255.074 292.46 254.694 292.54 254.367 292.7C254.04 292.853 253.767 293.077 253.547 293.37C253.334 293.663 253.174 294.02 253.067 294.44C252.96 294.853 252.907 295.323 252.907 295.85C252.907 296.397 252.964 296.883 253.077 297.31C253.197 297.737 253.367 298.097 253.587 298.39C253.807 298.677 254.074 298.897 254.387 299.05C254.7 299.197 255.054 299.27 255.447 299.27C255.84 299.27 256.157 299.223 256.397 299.13C256.644 299.03 256.85 298.923 257.017 298.81C257.184 298.69 257.327 298.583 257.447 298.49C257.574 298.39 257.714 298.34 257.867 298.34C258.067 298.34 258.217 298.417 258.317 298.57L259.027 299.47C258.754 299.79 258.457 300.06 258.137 300.28C257.817 300.493 257.484 300.667 257.137 300.8C256.797 300.927 256.444 301.017 256.077 301.07C255.717 301.123 255.357 301.15 254.997 301.15C254.364 301.15 253.767 301.033 253.207 300.8C252.647 300.56 252.157 300.213 251.737 299.76C251.317 299.307 250.984 298.753 250.737 298.1C250.497 297.44 250.377 296.69 250.377 295.85C250.377 295.097 250.484 294.4 250.697 293.76C250.917 293.113 251.237 292.557 251.657 292.09C252.077 291.617 252.597 291.247 253.217 290.98C253.837 290.713 254.55 290.58 255.357 290.58C256.124 290.58 256.794 290.703 257.367 290.95C257.947 291.197 258.467 291.55 258.927 292.01L258.277 292.91Z" fill="#2D302D"/>
<path d="M270.925 301H268.455V292.59H263.695V298.15C263.695 298.47 263.772 298.72 263.925 298.9C264.085 299.08 264.302 299.17 264.575 299.17C264.729 299.17 264.855 299.153 264.955 299.12C265.062 299.08 265.152 299.04 265.225 299C265.305 298.96 265.375 298.923 265.435 298.89C265.495 298.85 265.555 298.83 265.615 298.83C265.689 298.83 265.749 298.85 265.795 298.89C265.842 298.923 265.892 298.977 265.945 299.05L266.685 300.25C266.325 300.55 265.912 300.777 265.445 300.93C264.979 301.083 264.495 301.16 263.995 301.16C263.102 301.16 262.415 300.91 261.935 300.41C261.462 299.903 261.225 299.207 261.225 298.32V292.59H260.175C260.042 292.59 259.929 292.547 259.835 292.46C259.742 292.373 259.695 292.243 259.695 292.07V291.09L261.345 290.81L261.865 288.02C261.899 287.887 261.962 287.783 262.055 287.71C262.149 287.637 262.269 287.6 262.415 287.6H263.695V290.83H270.925V301ZM271.355 287.71C271.355 287.923 271.312 288.127 271.225 288.32C271.139 288.507 271.022 288.67 270.875 288.81C270.735 288.95 270.565 289.063 270.365 289.15C270.172 289.23 269.965 289.27 269.745 289.27C269.532 289.27 269.332 289.23 269.145 289.15C268.959 289.063 268.795 288.95 268.655 288.81C268.515 288.67 268.402 288.507 268.315 288.32C268.235 288.127 268.195 287.923 268.195 287.71C268.195 287.49 268.235 287.287 268.315 287.1C268.402 286.907 268.515 286.74 268.655 286.6C268.795 286.453 268.959 286.34 269.145 286.26C269.332 286.173 269.532 286.13 269.745 286.13C269.965 286.13 270.172 286.173 270.365 286.26C270.565 286.34 270.735 286.453 270.875 286.6C271.022 286.74 271.139 286.907 271.225 287.1C271.312 287.287 271.355 287.49 271.355 287.71Z" fill="#2D302D"/>
<path d="M280.797 292.91C280.723 293.003 280.65 293.077 280.577 293.13C280.51 293.183 280.41 293.21 280.277 293.21C280.15 293.21 280.027 293.173 279.907 293.1C279.787 293.02 279.643 292.933 279.477 292.84C279.31 292.74 279.11 292.653 278.877 292.58C278.65 292.5 278.367 292.46 278.027 292.46C277.593 292.46 277.213 292.54 276.887 292.7C276.56 292.853 276.287 293.077 276.067 293.37C275.853 293.663 275.693 294.02 275.587 294.44C275.48 294.853 275.427 295.323 275.427 295.85C275.427 296.397 275.483 296.883 275.597 297.31C275.717 297.737 275.887 298.097 276.107 298.39C276.327 298.677 276.593 298.897 276.907 299.05C277.22 299.197 277.573 299.27 277.967 299.27C278.36 299.27 278.677 299.223 278.917 299.13C279.163 299.03 279.37 298.923 279.537 298.81C279.703 298.69 279.847 298.583 279.967 298.49C280.093 298.39 280.233 298.34 280.387 298.34C280.587 298.34 280.737 298.417 280.837 298.57L281.547 299.47C281.273 299.79 280.977 300.06 280.657 300.28C280.337 300.493 280.003 300.667 279.657 300.8C279.317 300.927 278.963 301.017 278.597 301.07C278.237 301.123 277.877 301.15 277.517 301.15C276.883 301.15 276.287 301.033 275.727 300.8C275.167 300.56 274.677 300.213 274.257 299.76C273.837 299.307 273.503 298.753 273.257 298.1C273.017 297.44 272.897 296.69 272.897 295.85C272.897 295.097 273.003 294.4 273.217 293.76C273.437 293.113 273.757 292.557 274.177 292.09C274.597 291.617 275.117 291.247 275.737 290.98C276.357 290.713 277.07 290.58 277.877 290.58C278.643 290.58 279.313 290.703 279.887 290.95C280.467 291.197 280.987 291.55 281.447 292.01L280.797 292.91Z" fill="#2D302D"/>
<path d="M288.515 296.62C287.802 296.653 287.202 296.717 286.715 296.81C286.228 296.897 285.838 297.01 285.545 297.15C285.252 297.29 285.042 297.453 284.915 297.64C284.788 297.827 284.725 298.03 284.725 298.25C284.725 298.683 284.852 298.993 285.105 299.18C285.365 299.367 285.702 299.46 286.115 299.46C286.622 299.46 287.058 299.37 287.425 299.19C287.798 299.003 288.162 298.723 288.515 298.35V296.62ZM282.855 292.17C284.035 291.09 285.455 290.55 287.115 290.55C287.715 290.55 288.252 290.65 288.725 290.85C289.198 291.043 289.598 291.317 289.925 291.67C290.252 292.017 290.498 292.433 290.665 292.92C290.838 293.407 290.925 293.94 290.925 294.52V301H289.805C289.572 301 289.392 300.967 289.265 300.9C289.138 300.827 289.038 300.683 288.965 300.47L288.745 299.73C288.485 299.963 288.232 300.17 287.985 300.35C287.738 300.523 287.482 300.67 287.215 300.79C286.948 300.91 286.662 301 286.355 301.06C286.055 301.127 285.722 301.16 285.355 301.16C284.922 301.16 284.522 301.103 284.155 300.99C283.788 300.87 283.472 300.693 283.205 300.46C282.938 300.227 282.732 299.937 282.585 299.59C282.438 299.243 282.365 298.84 282.365 298.38C282.365 298.12 282.408 297.863 282.495 297.61C282.582 297.35 282.722 297.103 282.915 296.87C283.115 296.637 283.372 296.417 283.685 296.21C283.998 296.003 284.382 295.823 284.835 295.67C285.295 295.517 285.828 295.393 286.435 295.3C287.042 295.2 287.735 295.14 288.515 295.12V294.52C288.515 293.833 288.368 293.327 288.075 293C287.782 292.667 287.358 292.5 286.805 292.5C286.405 292.5 286.072 292.547 285.805 292.64C285.545 292.733 285.315 292.84 285.115 292.96C284.915 293.073 284.732 293.177 284.565 293.27C284.405 293.363 284.225 293.41 284.025 293.41C283.852 293.41 283.705 293.367 283.585 293.28C283.465 293.187 283.368 293.08 283.295 292.96L282.855 292.17Z" fill="#2D302D"/>
<path d="M226.31 317.81C226.803 317.81 227.233 317.75 227.6 317.63C227.967 317.503 228.27 317.327 228.51 317.1C228.757 316.867 228.94 316.587 229.06 316.26C229.18 315.927 229.24 315.557 229.24 315.15C229.24 314.763 229.18 314.413 229.06 314.1C228.94 313.787 228.76 313.52 228.52 313.3C228.28 313.08 227.977 312.913 227.61 312.8C227.243 312.68 226.81 312.62 226.31 312.62H224.3V317.81H226.31ZM226.31 310.54C227.277 310.54 228.113 310.653 228.82 310.88C229.527 311.107 230.11 311.423 230.57 311.83C231.03 312.237 231.37 312.723 231.59 313.29C231.817 313.857 231.93 314.477 231.93 315.15C231.93 315.85 231.813 316.493 231.58 317.08C231.347 317.66 230.997 318.16 230.53 318.58C230.063 319 229.477 319.327 228.77 319.56C228.07 319.793 227.25 319.91 226.31 319.91H224.3V325H221.61V310.54H226.31Z" fill="#2D302D"/>
<path d="M236.064 310.14L236.064 325H233.594V310.14H236.064Z" fill="#2D302D"/>
<path d="M243.945 320.62C243.231 320.653 242.631 320.717 242.145 320.81C241.658 320.897 241.268 321.01 240.975 321.15C240.681 321.29 240.471 321.453 240.345 321.64C240.218 321.827 240.155 322.03 240.155 322.25C240.155 322.683 240.281 322.993 240.535 323.18C240.795 323.367 241.131 323.46 241.545 323.46C242.051 323.46 242.488 323.37 242.855 323.19C243.228 323.003 243.591 322.723 243.945 322.35V320.62ZM238.285 316.17C239.465 315.09 240.885 314.55 242.545 314.55C243.145 314.55 243.681 314.65 244.155 314.85C244.628 315.043 245.028 315.317 245.355 315.67C245.681 316.017 245.928 316.433 246.095 316.92C246.268 317.407 246.355 317.94 246.355 318.52V325H245.235C245.001 325 244.821 324.967 244.695 324.9C244.568 324.827 244.468 324.683 244.395 324.47L244.175 323.73C243.915 323.963 243.661 324.17 243.415 324.35C243.168 324.523 242.911 324.67 242.645 324.79C242.378 324.91 242.091 325 241.785 325.06C241.485 325.127 241.151 325.16 240.785 325.16C240.351 325.16 239.951 325.103 239.585 324.99C239.218 324.87 238.901 324.693 238.635 324.46C238.368 324.227 238.161 323.937 238.015 323.59C237.868 323.243 237.795 322.84 237.795 322.38C237.795 322.12 237.838 321.863 237.925 321.61C238.011 321.35 238.151 321.103 238.345 320.87C238.545 320.637 238.801 320.417 239.115 320.21C239.428 320.003 239.811 319.823 240.265 319.67C240.725 319.517 241.258 319.393 241.865 319.3C242.471 319.2 243.165 319.14 243.945 319.12V318.52C243.945 317.833 243.798 317.327 243.505 317C243.211 316.667 242.788 316.5 242.235 316.5C241.835 316.5 241.501 316.547 241.235 316.64C240.975 316.733 240.745 316.84 240.545 316.96C240.345 317.073 240.161 317.177 239.995 317.27C239.835 317.363 239.655 317.41 239.455 317.41C239.281 317.41 239.135 317.367 239.015 317.28C238.895 317.187 238.798 317.08 238.725 316.96L238.285 316.17Z" fill="#2D302D"/>
<path d="M250.991 316C251.198 315.793 251.414 315.603 251.641 315.43C251.874 315.25 252.118 315.1 252.371 314.98C252.631 314.853 252.908 314.757 253.201 314.69C253.494 314.617 253.814 314.58 254.161 314.58C254.721 314.58 255.218 314.677 255.651 314.87C256.084 315.057 256.444 315.323 256.731 315.67C257.024 316.01 257.244 316.42 257.391 316.9C257.544 317.373 257.621 317.897 257.621 318.47V325H255.151V318.47C255.151 317.843 255.008 317.36 254.721 317.02C254.434 316.673 253.998 316.5 253.411 316.5C252.984 316.5 252.584 316.597 252.211 316.79C251.838 316.983 251.484 317.247 251.151 317.58V325H248.681L248.681 314.74L250.191 314.74C250.511 314.74 250.721 314.89 250.821 315.19L250.991 316Z" fill="#2D302D"/>
<path d="M263.253 325.16C262.36 325.16 261.673 324.91 261.193 324.41C260.72 323.903 260.483 323.207 260.483 322.32V316.59H259.433C259.3 316.59 259.187 316.547 259.093 316.46C259 316.373 258.953 316.243 258.953 316.07V315.09L260.603 314.82L261.123 312.02C261.157 311.887 261.22 311.783 261.313 311.71C261.407 311.637 261.527 311.6 261.673 311.6H262.953V314.83H265.693V316.59H262.953V322.15C262.953 322.47 263.03 322.72 263.183 322.9C263.343 323.08 263.56 323.17 263.833 323.17C263.987 323.17 264.113 323.153 264.213 323.12C264.32 323.08 264.41 323.04 264.483 323C264.563 322.96 264.633 322.923 264.693 322.89C264.753 322.85 264.813 322.83 264.873 322.83C264.947 322.83 265.007 322.85 265.053 322.89C265.1 322.923 265.15 322.977 265.203 323.05L265.943 324.25C265.583 324.55 265.17 324.777 264.703 324.93C264.237 325.083 263.753 325.16 263.253 325.16Z" fill="#2D302D"/>
<path d="M272.695 320.62C271.981 320.653 271.381 320.717 270.895 320.81C270.408 320.897 270.018 321.01 269.725 321.15C269.431 321.29 269.221 321.453 269.095 321.64C268.968 321.827 268.905 322.03 268.905 322.25C268.905 322.683 269.031 322.993 269.285 323.18C269.545 323.367 269.881 323.46 270.295 323.46C270.801 323.46 271.238 323.37 271.605 323.19C271.978 323.003 272.341 322.723 272.695 322.35V320.62ZM267.035 316.17C268.215 315.09 269.635 314.55 271.295 314.55C271.895 314.55 272.431 314.65 272.905 314.85C273.378 315.043 273.778 315.317 274.105 315.67C274.431 316.017 274.678 316.433 274.845 316.92C275.018 317.407 275.105 317.94 275.105 318.52V325H273.985C273.751 325 273.571 324.967 273.445 324.9C273.318 324.827 273.218 324.683 273.145 324.47L272.925 323.73C272.665 323.963 272.411 324.17 272.165 324.35C271.918 324.523 271.661 324.67 271.395 324.79C271.128 324.91 270.841 325 270.535 325.06C270.235 325.127 269.901 325.16 269.535 325.16C269.101 325.16 268.701 325.103 268.335 324.99C267.968 324.87 267.651 324.693 267.385 324.46C267.118 324.227 266.911 323.937 266.765 323.59C266.618 323.243 266.545 322.84 266.545 322.38C266.545 322.12 266.588 321.863 266.675 321.61C266.761 321.35 266.901 321.103 267.095 320.87C267.295 320.637 267.551 320.417 267.865 320.21C268.178 320.003 268.561 319.823 269.015 319.67C269.475 319.517 270.008 319.393 270.615 319.3C271.221 319.2 271.915 319.14 272.695 319.12V318.52C272.695 317.833 272.548 317.327 272.255 317C271.961 316.667 271.538 316.5 270.985 316.5C270.585 316.5 270.251 316.547 269.985 316.64C269.725 316.733 269.495 316.84 269.295 316.96C269.095 317.073 268.911 317.177 268.745 317.27C268.585 317.363 268.405 317.41 268.205 317.41C268.031 317.41 267.885 317.367 267.765 317.28C267.645 317.187 267.548 317.08 267.475 316.96L267.035 316.17Z" fill="#2D302D"/>
<path d="M222.31 56H219.61V41.54H222.31V56Z" fill="#DDF5DC"/>
<path d="M227.311 47C227.518 46.7933 227.735 46.6033 227.961 46.43C228.195 46.25 228.438 46.1 228.691 45.98C228.951 45.8533 229.228 45.7567 229.521 45.69C229.815 45.6167 230.135 45.58 230.481 45.58C231.041 45.58 231.538 45.6767 231.971 45.87C232.405 46.0567 232.765 46.3233 233.051 46.67C233.345 47.01 233.565 47.42 233.711 47.9C233.865 48.3733 233.941 48.8967 233.941 49.47V56H231.471V49.47C231.471 48.8433 231.328 48.36 231.041 48.02C230.755 47.6733 230.318 47.5 229.731 47.5C229.305 47.5 228.905 47.5967 228.531 47.79C228.158 47.9833 227.805 48.2467 227.471 48.58V56H225.001V45.74H226.511C226.831 45.74 227.041 45.89 227.141 46.19L227.311 47Z" fill="#DDF5DC"/>
<path d="M245.306 45.74L241.236 56H238.996L234.926 45.74H236.966C237.153 45.74 237.306 45.7833 237.426 45.87C237.553 45.9567 237.636 46.0667 237.676 46.2L239.656 51.68C239.763 52 239.856 52.3133 239.936 52.62C240.016 52.9267 240.086 53.2333 240.146 53.54C240.213 53.2333 240.286 52.9267 240.366 52.62C240.446 52.3133 240.543 52 240.656 51.68L242.676 46.2C242.723 46.0667 242.806 45.9567 242.926 45.87C243.046 45.7833 243.189 45.74 243.356 45.74H245.306Z" fill="#DDF5DC"/>
<path d="M252.92 49.69C252.92 49.37 252.873 49.07 252.78 48.79C252.693 48.5033 252.56 48.2533 252.38 48.04C252.2 47.8267 251.97 47.66 251.69 47.54C251.417 47.4133 251.097 47.35 250.73 47.35C250.017 47.35 249.453 47.5533 249.04 47.96C248.633 48.3667 248.373 48.9433 248.26 49.69H252.92ZM248.21 51.18C248.25 51.7067 248.343 52.1633 248.49 52.55C248.637 52.93 248.83 53.2467 249.07 53.5C249.31 53.7467 249.593 53.9333 249.92 54.06C250.253 54.18 250.62 54.24 251.02 54.24C251.42 54.24 251.763 54.1933 252.05 54.1C252.343 54.0067 252.597 53.9033 252.81 53.79C253.03 53.6767 253.22 53.5733 253.38 53.48C253.547 53.3867 253.707 53.34 253.86 53.34C254.067 53.34 254.22 53.4167 254.32 53.57L255.03 54.47C254.757 54.79 254.45 55.06 254.11 55.28C253.77 55.4933 253.413 55.6667 253.04 55.8C252.673 55.9267 252.297 56.0167 251.91 56.07C251.53 56.1233 251.16 56.15 250.8 56.15C250.087 56.15 249.423 56.0333 248.81 55.8C248.197 55.56 247.663 55.21 247.21 54.75C246.757 54.2833 246.4 53.71 246.14 53.03C245.88 52.3433 245.75 51.55 245.75 50.65C245.75 49.95 245.863 49.2933 246.09 48.68C246.317 48.06 246.64 47.5233 247.06 47.07C247.487 46.61 248.003 46.2467 248.61 45.98C249.223 45.7133 249.913 45.58 250.68 45.58C251.327 45.58 251.923 45.6833 252.47 45.89C253.017 46.0967 253.487 46.4 253.88 46.8C254.273 47.1933 254.58 47.68 254.8 48.26C255.027 48.8333 255.14 49.49 255.14 50.23C255.14 50.6033 255.1 50.8567 255.02 50.99C254.94 51.1167 254.787 51.18 254.56 51.18L248.21 51.18Z" fill="#DDF5DC"/>
<path d="M263.253 47.74C263.187 47.8467 263.117 47.9233 263.043 47.97C262.97 48.01 262.877 48.03 262.763 48.03C262.643 48.03 262.513 47.9967 262.373 47.93C262.24 47.8633 262.083 47.79 261.903 47.71C261.723 47.6233 261.517 47.5467 261.283 47.48C261.057 47.4133 260.787 47.38 260.473 47.38C259.987 47.38 259.603 47.4833 259.323 47.69C259.05 47.8967 258.913 48.1667 258.913 48.5C258.913 48.72 258.983 48.9067 259.123 49.06C259.27 49.2067 259.46 49.3367 259.693 49.45C259.933 49.5633 260.203 49.6667 260.503 49.76C260.803 49.8467 261.107 49.9433 261.413 50.05C261.727 50.1567 262.033 50.28 262.333 50.42C262.633 50.5533 262.9 50.7267 263.133 50.94C263.373 51.1467 263.563 51.3967 263.703 51.69C263.85 51.9833 263.923 52.3367 263.923 52.75C263.923 53.2433 263.833 53.7 263.653 54.12C263.48 54.5333 263.22 54.8933 262.873 55.2C262.527 55.5 262.097 55.7367 261.583 55.91C261.077 56.0767 260.49 56.16 259.823 56.16C259.47 56.16 259.123 56.1267 258.783 56.06C258.45 56 258.127 55.9133 257.813 55.8C257.507 55.6867 257.22 55.5533 256.953 55.4C256.693 55.2467 256.463 55.08 256.263 54.9L256.833 53.96C256.907 53.8467 256.993 53.76 257.093 53.7C257.193 53.64 257.32 53.61 257.473 53.61C257.627 53.61 257.77 53.6533 257.903 53.74C258.043 53.8267 258.203 53.92 258.383 54.02C258.563 54.12 258.773 54.2133 259.013 54.3C259.26 54.3867 259.57 54.43 259.943 54.43C260.237 54.43 260.487 54.3967 260.693 54.33C260.907 54.2567 261.08 54.1633 261.213 54.05C261.353 53.9367 261.453 53.8067 261.513 53.66C261.58 53.5067 261.613 53.35 261.613 53.19C261.613 52.95 261.54 52.7533 261.393 52.6C261.253 52.4467 261.063 52.3133 260.823 52.2C260.59 52.0867 260.32 51.9867 260.013 51.9C259.713 51.8067 259.403 51.7067 259.083 51.6C258.77 51.4933 258.46 51.37 258.153 51.23C257.853 51.0833 257.583 50.9 257.343 50.68C257.11 50.46 256.92 50.19 256.773 49.87C256.633 49.55 256.563 49.1633 256.563 48.71C256.563 48.29 256.647 47.89 256.813 47.51C256.98 47.13 257.223 46.8 257.543 46.52C257.87 46.2333 258.273 46.0067 258.753 45.84C259.24 45.6667 259.8 45.58 260.433 45.58C261.14 45.58 261.783 45.6967 262.363 45.93C262.943 46.1633 263.427 46.47 263.813 46.85L263.253 47.74Z" fill="#DDF5DC"/>
<path d="M276.133 56H273.663V47.59H268.902V53.15C268.902 53.47 268.979 53.72 269.133 53.9C269.293 54.08 269.509 54.17 269.783 54.17C269.936 54.17 270.063 54.1533 270.163 54.12C270.269 54.08 270.359 54.04 270.432 54C270.512 53.96 270.582 53.9233 270.642 53.89C270.702 53.85 270.763 53.83 270.823 53.83C270.896 53.83 270.956 53.85 271.003 53.89C271.049 53.9233 271.099 53.9767 271.152 54.05L271.892 55.25C271.532 55.55 271.119 55.7767 270.652 55.93C270.186 56.0833 269.702 56.16 269.202 56.16C268.309 56.16 267.622 55.91 267.142 55.41C266.669 54.9033 266.432 54.2067 266.432 53.32V47.59H265.383C265.249 47.59 265.136 47.5467 265.043 47.46C264.949 47.3733 264.902 47.2433 264.902 47.07V46.09L266.552 45.81L267.073 43.02C267.106 42.8867 267.169 42.7833 267.263 42.71C267.356 42.6367 267.476 42.6 267.622 42.6H268.902V45.83H276.133V56ZM276.562 42.71C276.562 42.9233 276.519 43.1267 276.432 43.32C276.346 43.5067 276.229 43.67 276.082 43.81C275.942 43.95 275.773 44.0633 275.573 44.15C275.379 44.23 275.172 44.27 274.952 44.27C274.739 44.27 274.539 44.23 274.353 44.15C274.166 44.0633 274.002 43.95 273.862 43.81C273.722 43.67 273.609 43.5067 273.522 43.32C273.442 43.1267 273.402 42.9233 273.402 42.71C273.402 42.49 273.442 42.2867 273.522 42.1C273.609 41.9067 273.722 41.74 273.862 41.6C274.002 41.4533 274.166 41.34 274.353 41.26C274.539 41.1733 274.739 41.13 274.953 41.13C275.173 41.13 275.379 41.1733 275.573 41.26C275.773 41.34 275.942 41.4533 276.082 41.6C276.229 41.74 276.346 41.9067 276.432 42.1C276.519 42.2867 276.563 42.49 276.562 42.71Z" fill="#DDF5DC"/>
<path d="M282.404 50.62C282.71 50.62 282.977 50.58 283.204 50.5C283.43 50.4133 283.617 50.2967 283.764 50.15C283.917 50.0033 284.03 49.8267 284.104 49.62C284.184 49.4133 284.224 49.1867 284.224 48.94C284.224 48.4333 284.07 48.0333 283.764 47.74C283.464 47.44 283.01 47.29 282.404 47.29C281.797 47.29 281.34 47.44 281.034 47.74C280.734 48.0333 280.584 48.4333 280.584 48.94C280.584 49.18 280.62 49.4033 280.694 49.61C280.774 49.8167 280.887 49.9967 281.034 50.15C281.187 50.2967 281.377 50.4133 281.604 50.5C281.837 50.58 282.104 50.62 282.404 50.62ZM285.194 56.46C285.194 56.26 285.134 56.0967 285.014 55.97C284.894 55.8433 284.73 55.7467 284.524 55.68C284.317 55.6067 284.074 55.5533 283.794 55.52C283.52 55.4867 283.227 55.4633 282.914 55.45C282.607 55.43 282.287 55.4133 281.954 55.4C281.627 55.3867 281.307 55.36 280.994 55.32C280.72 55.4733 280.497 55.6533 280.324 55.86C280.157 56.0667 280.074 56.3067 280.074 56.58C280.074 56.76 280.117 56.9267 280.204 57.08C280.297 57.24 280.44 57.3767 280.634 57.49C280.834 57.6033 281.09 57.69 281.404 57.75C281.717 57.8167 282.1 57.85 282.554 57.85C283.014 57.85 283.41 57.8133 283.744 57.74C284.077 57.6733 284.35 57.5767 284.564 57.45C284.784 57.33 284.944 57.1833 285.044 57.01C285.144 56.8433 285.194 56.66 285.194 56.46ZM287.654 46.09V47.01C287.654 47.3033 287.477 47.4833 287.124 47.55L286.204 47.72C286.344 48.0733 286.414 48.46 286.414 48.88C286.414 49.3867 286.31 49.8467 286.104 50.26C285.904 50.6667 285.624 51.0133 285.264 51.3C284.904 51.5867 284.477 51.81 283.984 51.97C283.497 52.1233 282.97 52.2 282.404 52.2C282.204 52.2 282.01 52.19 281.824 52.17C281.637 52.15 281.454 52.1233 281.274 52.09C280.954 52.2833 280.794 52.5 280.794 52.74C280.794 52.9467 280.887 53.1 281.074 53.2C281.267 53.2933 281.52 53.36 281.834 53.4C282.147 53.44 282.504 53.4667 282.904 53.48C283.304 53.4867 283.714 53.5067 284.134 53.54C284.554 53.5733 284.964 53.6333 285.364 53.72C285.764 53.8 286.12 53.93 286.434 54.11C286.747 54.29 286.997 54.5367 287.184 54.85C287.377 55.1567 287.474 55.5533 287.474 56.04C287.474 56.4933 287.36 56.9333 287.134 57.36C286.914 57.7867 286.59 58.1667 286.164 58.5C285.744 58.8333 285.224 59.1 284.604 59.3C283.99 59.5067 283.29 59.61 282.504 59.61C281.73 59.61 281.057 59.5333 280.484 59.38C279.91 59.2333 279.434 59.0333 279.054 58.78C278.674 58.5333 278.39 58.2467 278.204 57.92C278.017 57.5933 277.924 57.2533 277.924 56.9C277.924 56.42 278.067 56.02 278.354 55.7C278.647 55.3733 279.047 55.1133 279.554 54.92C279.28 54.78 279.064 54.5933 278.904 54.36C278.744 54.1267 278.664 53.82 278.664 53.44C278.664 53.2867 278.69 53.13 278.744 52.97C278.804 52.8033 278.887 52.64 278.994 52.48C279.107 52.32 279.247 52.17 279.414 52.03C279.58 51.8833 279.777 51.7533 280.004 51.64C279.484 51.36 279.074 50.9867 278.774 50.52C278.48 50.0533 278.334 49.5067 278.334 48.88C278.334 48.3733 278.434 47.9167 278.634 47.51C278.84 47.0967 279.124 46.7467 279.484 46.46C279.85 46.1667 280.28 45.9433 280.774 45.79C281.274 45.6367 281.817 45.56 282.404 45.56C282.844 45.56 283.257 45.6067 283.644 45.7C284.03 45.7867 284.384 45.9167 284.704 46.09H287.654Z" fill="#DDF5DC"/>
<path d="M294.64 51.62C293.927 51.6533 293.327 51.7167 292.84 51.81C292.353 51.8967 291.963 52.01 291.67 52.15C291.377 52.29 291.167 52.4533 291.04 52.64C290.913 52.8267 290.85 53.03 290.85 53.25C290.85 53.6833 290.977 53.9933 291.23 54.18C291.49 54.3667 291.827 54.46 292.24 54.46C292.747 54.46 293.183 54.37 293.55 54.19C293.923 54.0033 294.287 53.7233 294.64 53.35V51.62ZM288.98 47.17C290.16 46.09 291.58 45.55 293.24 45.55C293.84 45.55 294.377 45.65 294.85 45.85C295.323 46.0433 295.723 46.3167 296.05 46.67C296.377 47.0167 296.623 47.4334 296.79 47.92C296.963 48.4067 297.05 48.94 297.05 49.52V56H295.93C295.697 56 295.517 55.9667 295.39 55.9C295.263 55.8267 295.163 55.6833 295.09 55.47L294.87 54.73C294.61 54.9633 294.357 55.17 294.11 55.35C293.863 55.5233 293.607 55.67 293.34 55.79C293.073 55.91 292.787 56 292.48 56.06C292.18 56.1267 291.847 56.16 291.48 56.16C291.047 56.16 290.647 56.1033 290.28 55.99C289.913 55.87 289.597 55.6933 289.33 55.46C289.063 55.2267 288.857 54.9367 288.71 54.59C288.563 54.2433 288.49 53.84 288.49 53.38C288.49 53.12 288.533 52.8633 288.62 52.61C288.707 52.35 288.847 52.1033 289.04 51.87C289.24 51.6367 289.497 51.4167 289.81 51.21C290.123 51.0033 290.507 50.8233 290.96 50.67C291.42 50.5167 291.953 50.3933 292.56 50.3C293.167 50.2 293.86 50.14 294.64 50.12V49.52C294.64 48.8333 294.493 48.3267 294.2 48C293.907 47.6667 293.483 47.5 292.93 47.5C292.53 47.5 292.197 47.5467 291.93 47.64C291.67 47.7333 291.44 47.84 291.24 47.96C291.04 48.0733 290.857 48.1767 290.69 48.27C290.53 48.3633 290.35 48.41 290.15 48.41C289.977 48.41 289.83 48.3667 289.71 48.28C289.59 48.1867 289.493 48.08 289.42 47.96L288.98 47.17Z" fill="#DDF5DC"/>
<path d="M306.726 47.91C306.653 48.0034 306.58 48.0767 306.506 48.13C306.44 48.1833 306.34 48.21 306.206 48.21C306.08 48.21 305.956 48.1734 305.836 48.1C305.716 48.02 305.573 47.9333 305.406 47.84C305.24 47.74 305.04 47.6534 304.806 47.58C304.58 47.5 304.296 47.46 303.956 47.46C303.523 47.46 303.143 47.54 302.816 47.7C302.49 47.8533 302.216 48.0767 301.996 48.37C301.783 48.6634 301.623 49.02 301.516 49.44C301.41 49.8534 301.356 50.3234 301.356 50.85C301.356 51.3967 301.413 51.8833 301.526 52.31C301.646 52.7367 301.816 53.0967 302.036 53.39C302.256 53.6767 302.523 53.8967 302.836 54.05C303.15 54.1967 303.503 54.27 303.896 54.27C304.29 54.27 304.606 54.2233 304.846 54.13C305.093 54.03 305.3 53.9233 305.466 53.81C305.633 53.69 305.776 53.5834 305.896 53.49C306.023 53.39 306.163 53.34 306.316 53.34C306.516 53.34 306.666 53.4167 306.766 53.57L307.476 54.47C307.203 54.79 306.906 55.06 306.586 55.28C306.266 55.4934 305.933 55.6667 305.586 55.8C305.246 55.9267 304.893 56.0167 304.526 56.07C304.166 56.1234 303.806 56.15 303.446 56.15C302.813 56.15 302.216 56.0334 301.656 55.8C301.096 55.56 300.606 55.2134 300.186 54.76C299.766 54.3067 299.433 53.7534 299.186 53.1C298.946 52.44 298.826 51.69 298.826 50.85C298.826 50.0967 298.933 49.4 299.146 48.76C299.366 48.1134 299.686 47.5567 300.106 47.09C300.526 46.6167 301.046 46.2467 301.666 45.98C302.286 45.7133 303 45.58 303.806 45.58C304.573 45.58 305.243 45.7033 305.816 45.95C306.396 46.1967 306.916 46.55 307.376 47.01L306.726 47.91Z" fill="#DDF5DC"/>
<path d="M311.585 45.74V56H309.105V45.74H311.585ZM311.925 42.75C311.925 42.9634 311.881 43.1634 311.795 43.35C311.708 43.5367 311.591 43.7 311.445 43.84C311.305 43.98 311.138 44.0934 310.945 44.18C310.751 44.26 310.545 44.3 310.325 44.3C310.111 44.3 309.908 44.26 309.715 44.18C309.528 44.0934 309.365 43.98 309.225 43.84C309.085 43.7 308.971 43.5367 308.885 43.35C308.805 43.1634 308.765 42.9634 308.765 42.75C308.765 42.53 308.805 42.3233 308.885 42.13C308.971 41.9367 309.085 41.77 309.225 41.63C309.365 41.49 309.528 41.38 309.715 41.3C309.908 41.2134 310.111 41.17 310.325 41.17C310.545 41.17 310.751 41.2134 310.945 41.3C311.138 41.38 311.305 41.49 311.445 41.63C311.591 41.77 311.708 41.9367 311.795 42.13C311.881 42.3233 311.925 42.53 311.925 42.75Z" fill="#DDF5DC"/>
<path d="M318.643 45.58C319.403 45.58 320.093 45.7034 320.713 45.95C321.339 46.1967 321.873 46.5467 322.313 47C322.759 47.4534 323.103 48.0067 323.343 48.66C323.583 49.3134 323.703 50.0434 323.703 50.85C323.703 51.6634 323.583 52.3967 323.343 53.05C323.103 53.7034 322.759 54.26 322.313 54.72C321.873 55.18 321.339 55.5334 320.713 55.78C320.093 56.0267 319.403 56.15 318.643 56.15C317.876 56.15 317.179 56.0267 316.553 55.78C315.926 55.5334 315.389 55.18 314.943 54.72C314.503 54.26 314.159 53.7034 313.913 53.05C313.673 52.3967 313.553 51.6634 313.553 50.85C313.553 50.0434 313.673 49.3134 313.913 48.66C314.159 48.0067 314.503 47.4534 314.943 47C315.389 46.5467 315.926 46.1967 316.553 45.95C317.179 45.7034 317.876 45.58 318.643 45.58ZM318.643 54.25C319.496 54.25 320.126 53.9634 320.533 53.39C320.946 52.8167 321.153 51.9767 321.153 50.87C321.153 49.7634 320.946 48.92 320.533 48.34C320.126 47.76 319.496 47.47 318.643 47.47C317.776 47.47 317.133 47.7634 316.713 48.35C316.299 48.93 316.093 49.77 316.093 50.87C316.093 51.97 316.299 52.81 316.713 53.39C317.133 53.9634 317.776 54.25 318.643 54.25ZM322.103 41.38L319.633 43.99C319.506 44.1234 319.383 44.2167 319.263 44.27C319.149 44.3167 318.999 44.34 318.813 44.34H317.333L318.753 41.91C318.853 41.7367 318.969 41.6067 319.103 41.52C319.236 41.4267 319.436 41.38 319.703 41.38H322.103Z" fill="#DDF5DC"/>
<path d="M327.897 47C328.104 46.7934 328.321 46.6034 328.547 46.43C328.781 46.25 329.024 46.1 329.277 45.98C329.537 45.8534 329.814 45.7567 330.107 45.69C330.401 45.6167 330.721 45.58 331.067 45.58C331.627 45.58 332.124 45.6767 332.557 45.87C332.991 46.0567 333.351 46.3234 333.637 46.67C333.931 47.01 334.151 47.42 334.297 47.9C334.451 48.3734 334.527 48.8967 334.527 49.47V56H332.057V49.47C332.057 48.8434 331.914 48.36 331.627 48.02C331.341 47.6734 330.904 47.5 330.317 47.5C329.891 47.5 329.491 47.5967 329.117 47.79C328.744 47.9834 328.391 48.2467 328.057 48.58V56H325.587V45.74H327.097C327.417 45.74 327.627 45.89 327.727 46.19L327.897 47Z" fill="#DDF5DC"/>
<path d="M225.02 77.9C225.52 77.9 225.94 77.84 226.28 77.72C226.62 77.6 226.89 77.44 227.09 77.24C227.297 77.04 227.443 76.8067 227.53 76.54C227.623 76.2733 227.67 75.99 227.67 75.69C227.67 75.3767 227.62 75.0967 227.52 74.85C227.42 74.5967 227.263 74.3833 227.05 74.21C226.837 74.03 226.56 73.8933 226.22 73.8C225.887 73.7067 225.483 73.66 225.01 73.66H222.3V77.9H225.02ZM222.3 67.62V71.8H224.44C225.36 71.8 226.053 71.6333 226.52 71.3C226.993 70.9667 227.23 70.4367 227.23 69.71C227.23 68.9567 227.017 68.42 226.59 68.1C226.163 67.78 225.497 67.62 224.59 67.62H222.3ZM224.59 65.54C225.537 65.54 226.347 65.63 227.02 65.81C227.693 65.99 228.243 66.2467 228.67 66.58C229.103 66.9133 229.42 67.3167 229.62 67.79C229.82 68.2633 229.92 68.7967 229.92 69.39C229.92 69.73 229.87 70.0567 229.77 70.37C229.67 70.6767 229.513 70.9667 229.3 71.24C229.093 71.5067 228.827 71.75 228.5 71.97C228.18 72.19 227.797 72.3767 227.35 72.53C229.337 72.9767 230.33 74.05 230.33 75.75C230.33 76.3633 230.213 76.93 229.98 77.45C229.747 77.97 229.407 78.42 228.96 78.8C228.513 79.1733 227.963 79.4667 227.31 79.68C226.657 79.8933 225.91 80 225.07 80H219.61V65.54H224.59Z" fill="#DDF5DC"/>
<path d="M236.787 69.58C237.547 69.58 238.237 69.7033 238.857 69.95C239.484 70.1967 240.017 70.5467 240.457 71C240.904 71.4533 241.247 72.0067 241.487 72.66C241.727 73.3133 241.847 74.0433 241.847 74.85C241.847 75.6633 241.727 76.3967 241.487 77.05C241.247 77.7033 240.904 78.26 240.457 78.72C240.017 79.18 239.484 79.5333 238.857 79.78C238.237 80.0267 237.547 80.15 236.787 80.15C236.021 80.15 235.324 80.0267 234.697 79.78C234.071 79.5333 233.534 79.18 233.087 78.72C232.647 78.26 232.304 77.7033 232.057 77.05C231.817 76.3967 231.697 75.6633 231.697 74.85C231.697 74.0433 231.817 73.3133 232.057 72.66C232.304 72.0067 232.647 71.4533 233.087 71C233.534 70.5467 234.071 70.1967 234.697 69.95C235.324 69.7033 236.021 69.58 236.787 69.58ZM236.787 78.25C237.641 78.25 238.271 77.9633 238.677 77.39C239.091 76.8167 239.297 75.9767 239.297 74.87C239.297 73.7633 239.091 72.92 238.677 72.34C238.271 71.76 237.641 71.47 236.787 71.47C235.921 71.47 235.277 71.7633 234.857 72.35C234.444 72.93 234.237 73.77 234.237 74.87C234.237 75.97 234.444 76.81 234.857 77.39C235.277 77.9633 235.921 78.25 236.787 78.25Z" fill="#DDF5DC"/>
<path d="M249.992 71.74C249.925 71.8467 249.855 71.9233 249.782 71.97C249.708 72.01 249.615 72.03 249.502 72.03C249.382 72.03 249.252 71.9967 249.112 71.93C248.978 71.8633 248.822 71.79 248.642 71.71C248.462 71.6233 248.255 71.5467 248.022 71.48C247.795 71.4133 247.525 71.38 247.212 71.38C246.725 71.38 246.342 71.4833 246.062 71.69C245.788 71.8967 245.652 72.1667 245.652 72.5C245.652 72.72 245.722 72.9067 245.862 73.06C246.008 73.2067 246.198 73.3367 246.432 73.45C246.672 73.5633 246.942 73.6667 247.242 73.76C247.542 73.8467 247.845 73.9433 248.152 74.05C248.465 74.1567 248.772 74.28 249.072 74.42C249.372 74.5533 249.638 74.7267 249.872 74.94C250.112 75.1467 250.302 75.3967 250.442 75.69C250.588 75.9833 250.662 76.3367 250.662 76.75C250.662 77.2433 250.572 77.7 250.392 78.12C250.218 78.5333 249.958 78.8933 249.612 79.2C249.265 79.5 248.835 79.7367 248.322 79.91C247.815 80.0767 247.228 80.16 246.562 80.16C246.208 80.16 245.862 80.1267 245.522 80.06C245.188 80 244.865 79.9133 244.552 79.8C244.245 79.6867 243.958 79.5533 243.692 79.4C243.432 79.2467 243.202 79.08 243.002 78.9L243.572 77.96C243.645 77.8467 243.732 77.76 243.832 77.7C243.932 77.64 244.058 77.61 244.212 77.61C244.365 77.61 244.508 77.6533 244.642 77.74C244.782 77.8267 244.942 77.92 245.122 78.02C245.302 78.12 245.512 78.2133 245.752 78.3C245.998 78.3867 246.308 78.43 246.682 78.43C246.975 78.43 247.225 78.3967 247.432 78.33C247.645 78.2567 247.818 78.1633 247.952 78.05C248.092 77.9367 248.192 77.8067 248.252 77.66C248.318 77.5067 248.352 77.35 248.352 77.19C248.352 76.95 248.278 76.7533 248.132 76.6C247.992 76.4467 247.802 76.3133 247.562 76.2C247.328 76.0867 247.058 75.9867 246.752 75.9C246.452 75.8067 246.142 75.7067 245.822 75.6C245.508 75.4933 245.198 75.37 244.892 75.23C244.592 75.0833 244.322 74.9 244.082 74.68C243.848 74.46 243.658 74.19 243.512 73.87C243.372 73.55 243.302 73.1633 243.302 72.71C243.302 72.29 243.385 71.89 243.552 71.51C243.718 71.13 243.962 70.8 244.282 70.52C244.608 70.2333 245.012 70.0067 245.492 69.84C245.978 69.6667 246.538 69.58 247.172 69.58C247.878 69.58 248.522 69.6967 249.102 69.93C249.682 70.1633 250.165 70.47 250.552 70.85L249.992 71.74Z" fill="#DDF5DC"/>
<path d="M258.961 72.36C258.687 72.02 258.384 71.78 258.051 71.64C257.717 71.5 257.361 71.43 256.981 71.43C256.607 71.43 256.271 71.5 255.971 71.64C255.671 71.78 255.414 71.9933 255.201 72.28C254.987 72.56 254.824 72.92 254.711 73.36C254.597 73.7933 254.541 74.3067 254.541 74.9C254.541 75.5 254.587 76.01 254.681 76.43C254.781 76.8433 254.921 77.1833 255.101 77.45C255.281 77.71 255.501 77.9 255.761 78.02C256.021 78.1333 256.311 78.19 256.631 78.19C257.144 78.19 257.581 78.0833 257.941 77.87C258.301 77.6567 258.641 77.3533 258.961 76.96V72.36ZM261.431 69.74V83.35H258.961V78.7C258.554 79.1333 258.094 79.4833 257.581 79.75C257.067 80.0167 256.471 80.15 255.791 80.15C255.231 80.15 254.717 80.0333 254.251 79.8C253.784 79.5667 253.381 79.23 253.041 78.79C252.707 78.3433 252.447 77.7933 252.261 77.14C252.081 76.4867 251.991 75.74 251.991 74.9C251.991 74.14 252.094 73.4333 252.301 72.78C252.507 72.1267 252.804 71.56 253.191 71.08C253.577 70.6 254.041 70.2267 254.581 69.96C255.121 69.6867 255.727 69.55 256.401 69.55C257.041 69.55 257.577 69.66 258.011 69.88C258.444 70.1 258.831 70.3967 259.171 70.77L259.301 70.19C259.387 69.89 259.594 69.74 259.921 69.74H261.431Z" fill="#DDF5DC"/>
<path d="M272.708 69.74V80H271.198C270.872 80 270.665 79.85 270.578 79.55L270.408 78.73C269.988 79.1567 269.525 79.5033 269.018 79.77C268.512 80.03 267.915 80.16 267.228 80.16C266.668 80.16 266.172 80.0667 265.738 79.88C265.312 79.6867 264.952 79.4167 264.658 79.07C264.365 78.7233 264.142 78.3133 263.988 77.84C263.842 77.36 263.768 76.8333 263.768 76.26V69.74L266.238 69.74V76.26C266.238 76.8867 266.382 77.3733 266.668 77.72C266.962 78.06 267.398 78.23 267.978 78.23C268.405 78.23 268.805 78.1367 269.178 77.95C269.552 77.7567 269.905 77.4933 270.238 77.16V69.74H272.708Z" fill="#DDF5DC"/>
<path d="M281.767 73.69C281.767 73.37 281.721 73.07 281.628 72.79C281.541 72.5033 281.408 72.2533 281.228 72.04C281.048 71.8267 280.818 71.66 280.538 71.54C280.264 71.4133 279.944 71.35 279.577 71.35C278.864 71.35 278.301 71.5533 277.887 71.96C277.481 72.3667 277.221 72.9433 277.107 73.69H281.767ZM277.057 75.18C277.097 75.7067 277.191 76.1633 277.337 76.55C277.484 76.93 277.677 77.2467 277.917 77.5C278.157 77.7467 278.441 77.9333 278.767 78.06C279.101 78.18 279.467 78.24 279.867 78.24C280.267 78.24 280.611 78.1933 280.897 78.1C281.191 78.0067 281.444 77.9033 281.658 77.79C281.878 77.6767 282.068 77.5733 282.228 77.48C282.394 77.3867 282.554 77.34 282.707 77.34C282.914 77.34 283.067 77.4167 283.167 77.57L283.878 78.47C283.604 78.79 283.297 79.06 282.957 79.28C282.617 79.4933 282.261 79.6667 281.887 79.8C281.521 79.9267 281.144 80.0167 280.758 80.07C280.378 80.1233 280.007 80.15 279.647 80.15C278.934 80.15 278.271 80.0333 277.658 79.8C277.044 79.56 276.511 79.21 276.057 78.75C275.604 78.2833 275.247 77.71 274.987 77.03C274.727 76.3433 274.598 75.55 274.598 74.65C274.598 73.95 274.711 73.2933 274.938 72.68C275.164 72.06 275.488 71.5233 275.908 71.07C276.334 70.61 276.851 70.2467 277.457 69.98C278.071 69.7133 278.761 69.58 279.527 69.58C280.174 69.58 280.771 69.6833 281.318 69.89C281.864 70.0967 282.334 70.4 282.728 70.8C283.121 71.1933 283.427 71.68 283.647 72.26C283.874 72.8333 283.987 73.49 283.987 74.23C283.987 74.6033 283.947 74.8567 283.867 74.99C283.787 75.1167 283.634 75.18 283.408 75.18L277.057 75.18Z" fill="#DDF5DC"/>
<defs>
<radialGradient id="paint0_radial_723_24" cx="0" cy="0" r="1" gradientTransform="matrix(6.07845 -425.638 426.288 6.08448 223.922 554.638)" gradientUnits="userSpaceOnUse">
<stop offset="0.453846" stop-color="white"/>
</radialGradient>
<radialGradient id="paint1_radial_723_24" cx="0" cy="0" r="1" gradientTransform="matrix(-7.057e-06 -348.587 349.048 -0.00266337 230 572.149)" gradientUnits="userSpaceOnUse">
<stop offset="0.453846" stop-color="white"/>
</radialGradient>
</defs>
</svg>
