<svg width="56" height="63" viewBox="0 0 56 63" fill="none" xmlns="http://www.w3.org/2000/svg">
<path d="M35.1264 45.1475C37.5964 44.7581 39.8502 42.299 40.6075 39.2046C41.1484 36.9709 40.914 34.2453 39.9404 31.7249C39.1651 29.6756 38.0473 27.9747 36.9474 26.3353C37.5965 25.2696 38.2816 24.0811 38.6963 22.7081C39.1651 21.1916 39.2011 19.3882 38.7864 17.6259C38.0472 14.47 35.4148 12.7281 34.2609 12.0928C34.5674 10.7813 35.1984 7.74836 35.0362 5.92454C34.6756 2.17433 31.5203 -0.0798093 28.7797 0.00216175H27.8601H27.7339C25.0474 0.00216175 21.8558 2.50228 21.5137 5.94506C21.3334 7.76888 21.9825 10.8018 22.289 12.1133C21.1351 12.7486 18.5208 14.4905 17.7634 17.6464C17.3488 19.4088 17.3848 21.2121 17.8536 22.7286C18.2863 24.1016 18.9354 25.2697 19.6025 26.3558C18.5027 27.9952 17.3848 29.6961 16.6095 31.7454C15.6539 34.2865 15.4015 37.012 15.9424 39.2251C16.6997 42.3195 18.9534 44.7581 21.4235 45.168C23.0643 45.4344 25.5885 45.4754 26.9948 45.4754H27.8963V62.2591C27.8963 62.669 28.1847 62.9969 28.5453 62.9969C28.9059 62.9969 29.1944 62.669 29.1944 62.2591V45.4964C29.7534 45.4964 30.4746 45.4964 31.2498 45.4759C32.9266 45.4349 34.2248 45.3324 35.1083 45.189L35.1264 45.1475ZM29.2125 43.9794V37.0532L33.8823 31.7455C34.1347 31.4586 34.1347 30.9873 33.8823 30.7004C33.6299 30.4134 33.2152 30.4135 32.9628 30.7004L29.2125 34.9629V26.3356L33.9364 20.9665C34.1888 20.6796 34.1888 20.2083 33.9364 19.9213C33.684 19.6344 33.2693 19.6344 33.0168 19.9213L29.2125 24.2453V11.2119C29.2125 10.8021 28.924 10.4742 28.5634 10.4742C28.2028 10.4742 27.9143 10.8021 27.9143 11.2119V21.1508L25.6786 18.6097C25.4262 18.3228 25.0115 18.3228 24.759 18.6097C24.5065 18.8966 24.5066 19.3679 24.759 19.6548L27.9143 23.2411V38.4057L24.5067 34.5326C24.2542 34.2457 23.8396 34.2457 23.5871 34.5326C23.3346 34.8195 23.3347 35.2908 23.5871 35.5778L27.8242 40.3936C27.8242 40.3936 27.8783 40.3936 27.9143 40.4346V43.9798C27.3013 43.9798 23.6773 44.0208 21.622 43.6929C19.6387 43.365 17.8357 41.3773 17.2047 38.8156C16.7359 36.9099 16.9523 34.5327 17.7996 32.299C18.575 30.2292 19.7649 28.4873 20.9188 26.8069C21.0991 26.561 21.0991 26.1921 20.9368 25.9257C20.2336 24.7781 19.4944 23.569 19.0617 22.196C18.6831 20.9664 18.647 19.4705 19.0076 17.995C19.7829 14.7366 23.2447 13.1997 23.2807 13.1792C23.6052 13.0357 23.7675 12.6464 23.6774 12.2775C23.6774 12.2365 22.6136 8.07651 22.7939 6.06815C23.0463 3.38357 25.6967 1.37534 27.8243 1.45731H28.7799C30.9615 1.37534 33.4497 3.15824 33.7201 6.06815C33.9184 8.07644 32.8547 12.2364 32.8367 12.2775C32.7465 12.6464 32.9088 13.0357 33.2333 13.1792C33.2694 13.1792 36.7311 14.7162 37.5064 17.995C37.849 19.4705 37.8309 20.9664 37.4523 22.196C37.0196 23.5895 36.2804 24.7781 35.5772 25.9257C35.4149 26.1921 35.4149 26.5405 35.5952 26.8069C36.7491 28.4873 37.9391 30.2292 38.7144 32.299C39.5618 34.5326 39.7782 36.9098 39.3093 38.8156C38.6963 41.3568 36.8753 43.365 34.892 43.6929C34.0626 43.8364 32.8185 43.9183 31.1959 43.9593C30.4386 43.9593 29.7355 43.9798 29.1765 43.9798L29.2125 43.9794Z" fill="#DBF7DA"/>
<path d="M38.4137 13.7533C38.612 13.7533 38.7923 13.6509 38.9185 13.4664C40.1987 11.5811 41.6771 9.65477 42.3803 8.73256C44.1112 10.9662 47.5909 15.6588 48.0958 17.3808C48.1679 17.6472 48.1679 17.8317 48.0958 17.9341C47.8253 18.3235 46.6894 18.3645 45.9863 18.262C45.7339 18.221 45.4995 18.344 45.3552 18.5694C45.2109 18.7948 45.211 19.1022 45.3191 19.3481C47.5729 23.8361 49.8807 29.308 49.7005 30.2706C49.3939 31.3362 47.5369 31.1108 47.5008 31.1108C47.2303 31.0698 46.9779 31.2337 46.8517 31.5002C46.7255 31.7666 46.7435 32.0944 46.9238 32.3199C49.1776 35.3938 52.3328 40.3124 52.3328 41.5826C52.3328 42.2588 52.1886 42.7506 51.8641 43.0991C50.9445 44.1032 48.5465 44.0212 46.0044 43.9188C44.9407 43.8778 43.8048 43.8368 42.6509 43.8573H42.4165H42.3985H39.9824C39.9103 43.8573 39.8562 43.8983 39.7841 43.8573C39.4235 43.8573 39.135 44.1852 39.135 44.595C39.135 45.0049 39.4235 45.3328 39.7841 45.3328H41.7674V48.1608C41.7674 48.5706 42.0559 48.8985 42.4165 48.8985C42.7771 48.8985 43.0656 48.5706 43.0656 48.1608V45.3122C44.0572 45.3122 45.0308 45.3122 45.9684 45.3737C46.7437 45.3942 47.4829 45.4352 48.1861 45.4352C50.1694 45.4352 51.7921 45.2098 52.7657 44.1441C53.3427 43.5293 53.6311 42.6482 53.6311 41.562C53.6311 39.6972 50.4399 34.902 48.763 32.5249C49.6645 32.3609 50.6021 31.8487 50.9266 30.7215C51.3954 29.1231 48.6909 23.2005 47.0142 19.7577C47.7354 19.7168 48.6008 19.5118 49.0876 18.8561C49.3581 18.5077 49.6105 17.8724 49.322 16.8887C48.6008 14.4092 43.4982 7.93358 42.9212 7.19584C42.777 7.0114 42.5787 6.97042 42.3803 6.99091C42.182 6.97042 41.9837 6.99091 41.8394 7.19584C41.8214 7.21633 39.6758 9.92134 37.9089 12.5444C37.6925 12.8723 37.7466 13.3231 38.0171 13.5691C38.1433 13.6715 38.2695 13.733 38.4137 13.733L38.4137 13.7533Z" fill="#DBF7DA"/>
<path d="M12.9536 45.2314V49.166C12.9536 49.5758 13.2421 49.9037 13.6027 49.9037C13.9633 49.9037 14.2518 49.5758 14.2518 49.166V45.2929C15.0271 45.2929 16.217 45.2519 16.5957 45.2109C16.9563 45.1699 17.2087 44.801 17.1726 44.3912C17.1366 43.9813 16.8301 43.6944 16.4514 43.7354C16.0728 43.7764 14.1436 43.8174 13.6027 43.8174C8.96901 43.8174 5.201 40.9484 5.201 37.4236C5.201 35.8047 6.03038 34.2472 7.52684 33.0382C7.72517 32.8743 7.83335 32.6078 7.79729 32.3414C7.61699 30.8455 7.52684 29.2881 7.52684 27.7511C7.52684 19.1854 10.3215 11.951 13.6207 11.951C15.1172 11.951 16.2891 13.4469 16.9923 14.697C17.1907 15.0454 17.5873 15.1274 17.8938 14.9224C18.2003 14.697 18.2725 14.2462 18.0922 13.8978C16.812 11.6641 15.2795 10.4755 13.6207 10.4755C9.47382 10.4755 6.22871 18.0575 6.22871 27.751C6.22871 29.206 6.30083 30.661 6.4631 32.0955C4.82234 33.5505 3.9209 35.4153 3.9209 37.4032C3.9209 41.5632 7.92356 44.9445 12.9722 45.2107L12.9536 45.2314Z" fill="#DBF7DA"/>
<path d="M55.1995 61.705C53.8113 60.0451 52.9278 57.9958 52.7114 55.9465C52.5311 54.2867 52.7655 52.6062 52.9999 50.8439C53.1621 49.6143 53.3424 48.3643 53.3605 47.0937C53.3605 46.8068 53.2162 46.5404 52.9818 46.4174C52.7475 46.2945 52.477 46.3355 52.2786 46.5404C49.7905 49.02 47.9514 52.5243 47.086 56.1723C46.6893 53.3033 46.2386 50.3934 45.6977 47.8113C45.6256 47.5039 45.3912 47.258 45.1028 47.2375C44.7963 47.2375 44.5438 47.4219 44.4537 47.7293C43.6243 50.3728 42.9572 53.9387 42.6146 57.2583C42.1999 55.5779 41.641 53.9385 40.8657 52.8318C39.1709 50.4342 36.827 48.6718 34.2849 47.8726C33.9965 47.7906 33.708 47.9136 33.5457 48.2005C33.4015 48.4874 33.4376 48.8562 33.6359 49.0817C36.6829 52.668 37.7467 57.627 36.4306 61.9715C36.3224 62.3608 36.5027 62.7707 36.8272 62.9141C37.1698 63.0371 37.5304 62.8322 37.6566 62.4633C38.8646 58.4263 38.2696 53.979 36.1241 50.2909C37.5304 51.1311 38.8105 52.3198 39.8383 53.7542C40.9021 55.2501 41.497 58.1806 41.9839 60.5165C42.1281 61.2337 42.2723 61.8895 42.3986 62.4428C42.4707 62.7707 42.7411 62.9961 43.0296 62.9961H43.1198C43.4443 62.9346 43.6787 62.6272 43.6787 62.2379C43.5886 59.0206 44.1114 54.5733 44.9408 50.9056C45.5358 54.3279 46.0226 58.0574 46.4553 61.4182L46.5815 62.3608C46.6356 62.7502 46.9602 63.0371 47.3027 62.9961C47.6453 62.9552 47.8977 62.5863 47.8797 62.1969C47.5011 57.75 49.1237 52.6063 51.9184 49.0408C51.8643 49.5737 51.7922 50.1269 51.7201 50.6598C51.4857 52.4427 51.2333 54.287 51.4316 56.1723C51.684 58.5495 52.6937 60.8857 54.2803 62.7707C54.5328 63.0576 54.9294 63.0781 55.1999 62.7912C55.4523 62.5043 55.4704 62.033 55.2179 61.746L55.1995 61.705Z" fill="#DBF7DA"/>
<path d="M25.0335 47.3814C21.8782 48.5086 20.6521 52.7505 19.5884 56.5005C19.4802 56.9104 19.354 57.2998 19.2458 57.6686C19.2278 57.4432 19.2098 57.1973 19.1737 56.9718C18.8492 53.3651 18.4886 49.2462 17.1904 46.9714C17.0281 46.6845 16.7036 46.541 16.4332 46.664C16.1447 46.7869 15.9644 47.0943 16.0004 47.4427C16.1086 48.5493 15.5136 50.4141 14.8645 52.4225C14.1794 54.5537 13.4401 56.8694 13.2959 58.9802C11.8355 56.0907 10.5553 52.2585 10.8799 50.1476C10.9159 49.8607 10.8077 49.5738 10.6094 49.4099C10.393 49.2459 10.1226 49.2459 9.90621 49.4099C8.86047 50.1476 8.40969 53.0166 8.03109 56.7873C7.41807 54.2666 6.66081 51.3567 5.88549 49.7994C4.80369 47.6477 3.3793 45.2705 0.945276 43.8975C0.692857 43.754 0.404377 43.8155 0.206076 44.0204C0.00777455 44.2254 -0.0463443 44.5737 0.0618357 44.8606C1.32394 48.1599 0.692914 57.1969 0.00774569 62.1362C-0.0463443 62.546 0.188046 62.9149 0.548645 62.9763H0.656825C0.963335 62.9763 1.25179 62.7099 1.2879 62.3616C1.72062 59.1851 2.53194 51.0089 1.73865 46.2336C3.07287 47.4427 4.01043 49.0616 4.74969 50.5371C5.52501 52.0741 6.31833 55.2914 6.94935 57.8738C7.2198 58.9804 7.47222 59.9846 7.67055 60.7223C7.7607 61.0297 8.03115 61.2347 8.31963 61.2347C8.60811 61.2347 8.86053 60.9682 8.91459 60.6404C8.98671 60.21 9.07686 59.3493 9.18504 58.3042C9.29322 57.1771 9.50958 54.9638 9.79806 53.2015C10.5193 56.7467 12.6107 60.9475 13.999 62.7508C14.2154 63.0377 14.594 63.0787 14.8645 62.8533C15.1349 62.6279 15.207 62.1975 15.0448 61.8696C13.9088 59.7179 15.0628 56.1317 16.0905 52.9551C16.415 51.951 16.7216 51.0083 16.9379 50.1476C17.4428 52.2379 17.6771 54.902 17.8755 57.1565C18.0017 58.5295 18.1099 59.8 18.2722 60.8247C18.3262 61.1321 18.5426 61.378 18.8311 61.419C19.1196 61.4805 19.39 61.2961 19.4982 61.0092C19.985 59.8411 20.3816 58.4476 20.8143 56.9926C21.4093 54.9433 22.0043 52.8531 22.8878 51.2751C22.1666 53.8572 22.8517 56.5622 24.3482 61.911C24.4564 62.3003 24.817 62.5258 25.1595 62.3823C25.5021 62.2594 25.6824 61.8495 25.5742 61.4602C23.5007 54.0421 23.1401 52.3411 25.7365 48.5704C25.9168 48.3245 25.9168 47.9556 25.7545 47.6892C25.5922 47.4227 25.3038 47.2998 25.0333 47.4023L25.0335 47.3814Z" fill="#DBF7DA"/>
</svg>
