<svg width="54" height="53" viewBox="0 0 54 53" fill="none" xmlns="http://www.w3.org/2000/svg">
<path d="M11.3326 5.89151C11.3319 7.45325 10.7342 8.95072 9.67101 10.0545C8.60783 11.1583 7.16629 11.7779 5.66348 11.7771C4.16068 11.7763 2.71973 11.1552 1.65762 10.0503C0.595513 8.94545 -0.000750691 7.44736 7.09314e-07 5.88562C0.00075211 4.32387 0.598458 2.82641 1.66163 1.72264C2.7248 0.618871 4.16635 -0.000780135 5.66915 7.37134e-07C7.17195 0.000781609 8.6129 0.621931 9.67501 1.7268C10.7371 2.83167 11.3334 4.32976 11.3326 5.89151ZM11.5026 16.1376H0.16999V53H11.5026V16.1376ZM29.4082 16.1376H18.1322V53H29.2949V33.6561C29.2949 22.88 42.809 21.879 42.809 33.6561V53H54V29.6519C54 11.4856 33.9979 12.1628 29.2949 21.084L29.4082 16.1376Z" fill="white"/>
</svg>
