<?xml version="1.0" encoding="utf-8"?>
<!-- Generator: Adobe Illustrator 27.2.0, SVG Export Plug-In . SVG Version: 6.00 Build 0)  -->
<svg version="1.1" id="Capa_1" xmlns="http://www.w3.org/2000/svg" xmlns:xlink="http://www.w3.org/1999/xlink" x="0px" y="0px"
	 viewBox="0 0 172.1 99.2" style="enable-background:new 0 0 172.1 99.2;" xml:space="preserve">
<style type="text/css">
	.Arqueado:_x0020_verde{fill:url(#SVGID_1_);stroke:#FFFFFF;stroke-width:0.25;stroke-miterlimit:1;}
	.st0{fill:#FFFFFF;}
</style>
<linearGradient id="SVGID_1_" gradientUnits="userSpaceOnUse" x1="-2261.4697" y1="858.7764" x2="-2260.7627" y2="858.0693">
	<stop  offset="0" style="stop-color:#1EAB4B"/>
	<stop  offset="0.9831" style="stop-color:#19361A"/>
</linearGradient>
<g>
	<g>
		<path class="st0" d="M82.7,37.9c0-1.7,0-2,0-2.3c0-0.4-0.1-0.5-0.5-0.6c-0.1,0-0.3,0-0.4,0c-0.1,0-0.2,0-0.2-0.1
			c0-0.1,0.1-0.1,0.2-0.1c0.6,0,1.3,0,1.6,0c0.4,0,1.1,0,1.6,0c1.4,0,1.9,0.5,2,0.6c0.2,0.2,0.5,0.7,0.5,1.3c0,1.6-1.1,2.6-2.7,2.6
			c-0.1,0-0.2,0-0.2,0c-0.1,0-0.1,0-0.1-0.1c0-0.1,0.1-0.1,0.3-0.1c0.6,0,1.5-0.7,1.5-1.8c0-0.4,0-1.1-0.6-1.6
			c-0.4-0.4-0.8-0.4-1.1-0.4c-0.2,0-0.3,0-0.4,0c-0.1,0-0.1,0.1-0.1,0.2v4.4c0,1,0,1.9,0.1,2.3c0,0.3,0.1,0.5,0.4,0.6
			c0.2,0,0.4,0,0.6,0c0.1,0,0.2,0,0.2,0.1c0,0.1-0.1,0.1-0.2,0.1c-0.7,0-1.4,0-1.7,0c-0.3,0-0.9,0-1.4,0c-0.1,0-0.2,0-0.2-0.1
			c0-0.1,0-0.1,0.2-0.1c0.2,0,0.3,0,0.4,0c0.2,0,0.3-0.3,0.3-0.6c0.1-0.5,0.1-1.3,0.1-2.3V37.9z"/>
		<path class="st0" d="M88.9,38.9c0-1.9,1.2-4.3,4.5-4.3c2.7,0,4.4,1.6,4.4,4.1c0,2.5-1.8,4.5-4.5,4.5
			C90.1,43.2,88.9,40.8,88.9,38.9z M96.3,39.1c0-2.5-1.4-4-3.2-4c-1.3,0-2.7,0.7-2.7,3.4c0,2.3,1.3,4.1,3.4,4.1
			C94.5,42.6,96.3,42.3,96.3,39.1z"/>
		<path class="st0" d="M100.9,41.5c0,0.9,0.2,1.1,0.4,1.2c0.2,0.1,0.4,0.1,0.6,0.1c0.1,0,0.2,0,0.2,0.1c0,0.1-0.1,0.1-0.3,0.1
			c-0.7,0-1.1,0-1.4,0c-0.1,0-0.6,0-1.2,0c-0.1,0-0.2,0-0.2-0.1c0-0.1,0.1-0.1,0.2-0.1c0.1,0,0.3,0,0.5-0.1c0.3-0.1,0.3-0.4,0.3-1.4
			l0.1-6.5c0-0.2,0-0.4,0.1-0.4c0.1,0,0.2,0.1,0.4,0.3c0.1,0.1,1.8,1.9,3.4,3.5c0.7,0.7,2.2,2.3,2.4,2.5h0.1l-0.1-4.9
			c0-0.7-0.1-0.9-0.4-1c-0.2-0.1-0.4-0.1-0.6-0.1c-0.1,0-0.2,0-0.2-0.1c0-0.1,0.1-0.1,0.3-0.1c0.6,0,1.1,0,1.3,0c0.1,0,0.5,0,1.1,0
			c0.1,0,0.3,0,0.3,0.1c0,0.1-0.1,0.1-0.2,0.1c-0.1,0-0.2,0-0.3,0c-0.3,0.1-0.4,0.3-0.4,0.9l-0.1,6.9c0,0.2,0,0.3-0.1,0.3
			c-0.1,0-0.3-0.1-0.4-0.2c-0.7-0.7-2.1-2.1-3.2-3.2c-1.2-1.2-2.4-2.5-2.6-2.8h0L100.9,41.5z"/>
		<path class="st0" d="M112.5,35.4l-1.6,0c-0.6,0-0.9,0.1-1.1,0.3c-0.1,0.2-0.2,0.3-0.2,0.4c0,0.1-0.1,0.1-0.1,0.1
			c-0.1,0-0.1-0.1-0.1-0.2c0-0.2,0.2-1.2,0.2-1.3c0-0.1,0.1-0.2,0.1-0.2c0.1,0,0.2,0.1,0.5,0.1c0.3,0,0.7,0.1,1.1,0.1h4.3
			c0.7,0,1-0.1,1.1-0.1c0.1,0,0.1,0.1,0.1,0.2c0,0.2,0,1,0,1.3c0,0.1,0,0.2-0.1,0.2c-0.1,0-0.1-0.1-0.1-0.2l0-0.1
			c0-0.3-0.3-0.6-1.3-0.6l-1.4,0v4.5c0,1,0,1.9,0.1,2.3c0,0.3,0.1,0.5,0.4,0.6c0.2,0,0.4,0,0.6,0c0.1,0,0.2,0,0.2,0.1
			c0,0.1-0.1,0.1-0.2,0.1c-0.7,0-1.4,0-1.7,0c-0.3,0-0.9,0-1.4,0c-0.1,0-0.2,0-0.2-0.1c0-0.1,0-0.1,0.2-0.1c0.2,0,0.3,0,0.4,0
			c0.2,0,0.3-0.3,0.3-0.6c0.1-0.5,0.1-1.3,0.1-2.3V35.4z"/>
		<path class="st0" d="M119.2,37.9c0-1.7,0-2,0-2.3c0-0.4-0.1-0.6-0.4-0.6c-0.1,0-0.3,0-0.4,0c-0.1,0-0.2,0-0.2-0.1
			c0-0.1,0.1-0.1,0.3-0.1c0.4,0,1.1,0,1.4,0c0.3,0,0.9,0,1.3,0c0.1,0,0.2,0,0.2,0.1c0,0.1-0.1,0.1-0.2,0.1c-0.1,0-0.2,0-0.3,0
			c-0.3,0.1-0.4,0.2-0.4,0.6c0,0.3,0,0.7,0,2.3v1.9c0,1.1,0,1.9,0,2.4c0,0.3,0.1,0.5,0.4,0.5c0.2,0,0.4,0,0.6,0c0.1,0,0.2,0,0.2,0.1
			c0,0.1-0.1,0.1-0.2,0.1c-0.7,0-1.4,0-1.7,0c-0.3,0-0.9,0-1.4,0c-0.1,0-0.2,0-0.2-0.1c0-0.1,0-0.1,0.2-0.1c0.2,0,0.3,0,0.4,0
			c0.2,0,0.3-0.2,0.3-0.5c0.1-0.5,0.1-1.3,0.1-2.4V37.9z"/>
		<path class="st0" d="M125.7,39.9c0,1,0,1.9,0.1,2.3c0,0.3,0.1,0.6,0.4,0.6c0.2,0,0.4,0,0.5,0c0.1,0,0.2,0,0.2,0.1
			c0,0.1-0.1,0.1-0.2,0.1c-0.7,0-1.4,0-1.7,0c-0.3,0-1,0-1.4,0c-0.2,0-0.2,0-0.2-0.1c0-0.1,0-0.1,0.2-0.1c0.2,0,0.3,0,0.4,0
			c0.2,0,0.3-0.3,0.3-0.6c0.1-0.5,0.1-1.3,0.1-2.3v-1.9c0-1.7,0-2,0-2.3c0-0.4-0.1-0.5-0.5-0.6c-0.1,0-0.3,0-0.4,0
			c-0.1,0-0.2,0-0.2-0.1c0-0.1,0.1-0.1,0.3-0.1c0.6,0,1.3,0,1.6,0c0.4,0,2.6,0,2.9,0c0.2,0,0.3,0,0.4,0c0.1,0,0.1-0.1,0.2-0.1
			c0,0,0.1,0,0.1,0.1c0,0.1-0.1,0.2-0.1,0.5c0,0.1,0,0.8-0.1,0.9c0,0.1,0,0.2-0.1,0.2c-0.1,0-0.1-0.1-0.1-0.2c0-0.1,0-0.3-0.1-0.4
			c-0.1-0.2-0.3-0.3-0.7-0.3l-1.7,0c-0.1,0-0.1,0-0.1,0.2v2.7c0,0.1,0,0.1,0.1,0.1l1.4,0c0.2,0,0.3,0,0.5,0c0.2,0,0.4-0.1,0.5-0.2
			c0.1-0.1,0.1-0.1,0.1-0.1c0,0,0.1,0,0.1,0.1c0,0.1-0.1,0.3-0.1,0.7c0,0.2,0,0.7,0,0.8c0,0.1,0,0.2-0.1,0.2c-0.1,0-0.1-0.1-0.1-0.2
			c0-0.1,0-0.2-0.1-0.3c-0.1-0.2-0.2-0.3-0.6-0.4c-0.3,0-1.4,0-1.6,0c-0.1,0-0.1,0-0.1,0.1V39.9z"/>
		<path class="st0" d="M131.3,37.9c0-1.7,0-2,0-2.3c0-0.4-0.1-0.6-0.4-0.6c-0.1,0-0.3,0-0.4,0c-0.1,0-0.2,0-0.2-0.1
			c0-0.1,0.1-0.1,0.3-0.1c0.4,0,1.1,0,1.4,0c0.3,0,0.9,0,1.3,0c0.1,0,0.2,0,0.2,0.1c0,0.1-0.1,0.1-0.2,0.1c-0.1,0-0.2,0-0.3,0
			c-0.3,0.1-0.4,0.2-0.4,0.6c0,0.3,0,0.7,0,2.3v1.9c0,1.1,0,1.9,0,2.4c0,0.3,0.1,0.5,0.4,0.5c0.2,0,0.4,0,0.6,0c0.1,0,0.2,0,0.2,0.1
			c0,0.1-0.1,0.1-0.2,0.1c-0.7,0-1.4,0-1.7,0c-0.3,0-0.9,0-1.4,0c-0.1,0-0.2,0-0.2-0.1c0-0.1,0-0.1,0.2-0.1c0.2,0,0.3,0,0.4,0
			c0.2,0,0.3-0.2,0.3-0.5c0.1-0.5,0.1-1.3,0.1-2.4V37.9z"/>
		<path class="st0" d="M136.3,42c-1.1-0.9-1.4-2.2-1.4-3.2c0-0.7,0.2-2,1.3-3c0.8-0.7,1.8-1.2,3.5-1.2c0.7,0,1.1,0,1.6,0.1
			c0.4,0.1,0.8,0.2,1.1,0.2c0.1,0,0.2,0.1,0.2,0.1c0,0.1,0,0.2-0.1,0.6c0,0.4,0,1,0,1.2c0,0.2,0,0.3-0.1,0.3c-0.1,0-0.1-0.1-0.1-0.2
			c0-0.3-0.2-0.7-0.4-1c-0.4-0.4-1.2-0.7-2.2-0.7c-1,0-1.6,0.2-2.1,0.7c-0.8,0.7-1,1.8-1,2.8c0,2.6,2,3.9,3.4,3.9c1,0,1.6-0.1,2-0.6
			c0.2-0.2,0.3-0.5,0.4-0.7c0-0.2,0.1-0.2,0.1-0.2c0.1,0,0.1,0.1,0.1,0.2c0,0.1-0.1,1.1-0.2,1.5c-0.1,0.2-0.1,0.2-0.3,0.3
			c-0.4,0.2-1.3,0.3-2,0.3C138.6,43.2,137.3,42.8,136.3,42z"/>
		<path class="st0" d="M145.1,37.9c0-1.7,0-2,0-2.3c0-0.4-0.1-0.6-0.4-0.6c-0.1,0-0.3,0-0.4,0c-0.1,0-0.2,0-0.2-0.1
			c0-0.1,0.1-0.1,0.3-0.1c0.4,0,1.1,0,1.4,0c0.3,0,0.9,0,1.3,0c0.1,0,0.2,0,0.2,0.1c0,0.1-0.1,0.1-0.2,0.1c-0.1,0-0.2,0-0.3,0
			c-0.3,0.1-0.4,0.2-0.4,0.6c0,0.3,0,0.7,0,2.3v1.9c0,1.1,0,1.9,0,2.4c0,0.3,0.1,0.5,0.4,0.5c0.2,0,0.4,0,0.6,0c0.1,0,0.2,0,0.2,0.1
			c0,0.1-0.1,0.1-0.2,0.1c-0.7,0-1.4,0-1.7,0c-0.3,0-0.9,0-1.4,0c-0.1,0-0.2,0-0.2-0.1c0-0.1,0-0.1,0.2-0.1c0.2,0,0.3,0,0.4,0
			c0.2,0,0.3-0.2,0.3-0.5c0.1-0.5,0.1-1.3,0.1-2.4V37.9z"/>
		<path class="st0" d="M151.5,40.2C151.4,40.2,151.4,40.2,151.5,40.2l-0.7,1.7c-0.1,0.3-0.2,0.5-0.2,0.7c0,0.2,0.1,0.3,0.4,0.3h0.2
			c0.1,0,0.2,0,0.2,0.1c0,0.1-0.1,0.1-0.2,0.1c-0.3,0-0.8,0-1.2,0c-0.1,0-0.7,0-1.3,0c-0.1,0-0.2,0-0.2-0.1c0-0.1,0-0.1,0.1-0.1
			c0.1,0,0.3,0,0.3,0c0.5-0.1,0.7-0.4,0.9-1l2.7-6.9c0.1-0.3,0.2-0.4,0.3-0.4c0.1,0,0.2,0.1,0.3,0.3c0.3,0.6,2,5.1,2.7,6.7
			c0.4,1,0.7,1.1,1,1.2c0.2,0,0.3,0,0.5,0c0.1,0,0.1,0,0.1,0.1c0,0.1-0.1,0.1-0.5,0.1c-0.4,0-1.2,0-2.1,0c-0.2,0-0.3,0-0.3-0.1
			c0-0.1,0-0.1,0.2-0.1c0.1,0,0.2-0.1,0.1-0.3l-0.9-2.3c0-0.1-0.1-0.1-0.1-0.1H151.5z M153.7,39.6C153.8,39.6,153.8,39.6,153.7,39.6
			l-0.9-2.8c0,0,0-0.1-0.1-0.1c0,0-0.1,0.1-0.1,0.1l-1,2.7c0,0,0,0.1,0,0.1H153.7z"/>
		<path class="st0" d="M82.2,53.7c0-1.7,0-2,0-2.3c0-0.4-0.1-0.5-0.5-0.6c-0.1,0-0.3,0-0.4,0c-0.1,0-0.2,0-0.2-0.1
			c0-0.1,0.1-0.1,0.2-0.1c0.6,0,1.3,0,1.6,0c0.3,0,1,0,1.3,0c0.2,0,0.2,0,0.2,0.1c0,0.1-0.1,0.1-0.2,0.1c-0.1,0-0.2,0-0.3,0
			c-0.3,0.1-0.4,0.2-0.4,0.6c0,0.3,0,0.7,0,2.3v1.5c0,1.6,0.3,2.3,0.9,2.7c0.5,0.4,1,0.4,1.4,0.4c0.5,0,1.1-0.2,1.5-0.6
			c0.6-0.6,0.6-1.6,0.6-2.7v-1.4c0-1.7,0-2,0-2.3c0-0.4-0.1-0.5-0.5-0.6c-0.1,0-0.3,0-0.4,0c-0.1,0-0.2,0-0.2-0.1
			c0-0.1,0.1-0.1,0.2-0.1c0.6,0,1.2,0,1.3,0c0.1,0,0.8,0,1.2,0c0.2,0,0.2,0,0.2,0.1c0,0.1-0.1,0.1-0.2,0.1c-0.1,0-0.2,0-0.3,0
			C89,50.8,89,51,88.9,51.4c0,0.3,0,0.7,0,2.3v1.2c0,1.2-0.1,2.5-1,3.3c-0.8,0.7-1.6,0.8-2.3,0.8c-0.6,0-1.6,0-2.4-0.8
			c-0.6-0.5-1-1.3-1-2.9V53.7z"/>
		<path class="st0" d="M92.5,57.3c0,0.9,0.2,1.1,0.4,1.2c0.2,0.1,0.4,0.1,0.6,0.1c0.1,0,0.2,0,0.2,0.1c0,0.1-0.1,0.1-0.3,0.1
			c-0.7,0-1.1,0-1.4,0c-0.1,0-0.6,0-1.2,0c-0.1,0-0.2,0-0.2-0.1c0-0.1,0.1-0.1,0.2-0.1c0.1,0,0.3,0,0.5-0.1c0.3-0.1,0.3-0.4,0.3-1.4
			l0.1-6.5c0-0.2,0-0.4,0.1-0.4c0.1,0,0.2,0.1,0.4,0.3c0.1,0.1,1.8,1.9,3.4,3.5c0.7,0.7,2.2,2.3,2.4,2.5h0.1L98,51.8
			c0-0.7-0.1-0.9-0.4-1c-0.2-0.1-0.4-0.1-0.6-0.1c-0.1,0-0.2,0-0.2-0.1c0-0.1,0.1-0.1,0.3-0.1c0.6,0,1.1,0,1.3,0c0.1,0,0.5,0,1.1,0
			c0.1,0,0.3,0,0.3,0.1c0,0.1-0.1,0.1-0.2,0.1c-0.1,0-0.2,0-0.3,0c-0.3,0.1-0.4,0.3-0.4,0.9l-0.1,6.9c0,0.2,0,0.3-0.1,0.3
			c-0.1,0-0.3-0.1-0.4-0.2c-0.7-0.7-2.1-2.1-3.2-3.2c-1.2-1.2-2.4-2.5-2.6-2.8h0L92.5,57.3z"/>
		<path class="st0" d="M102.5,53.7c0-1.7,0-2,0-2.3c0-0.4-0.1-0.6-0.4-0.6c-0.1,0-0.3,0-0.4,0c-0.1,0-0.2,0-0.2-0.1
			c0-0.1,0.1-0.1,0.3-0.1c0.4,0,1.1,0,1.4,0c0.3,0,0.9,0,1.3,0c0.1,0,0.2,0,0.2,0.1c0,0.1-0.1,0.1-0.2,0.1c-0.1,0-0.2,0-0.3,0
			c-0.3,0.1-0.4,0.2-0.4,0.6c0,0.3,0,0.7,0,2.3v1.9c0,1.1,0,1.9,0,2.4c0,0.3,0.1,0.5,0.4,0.5c0.2,0,0.4,0,0.6,0c0.1,0,0.2,0,0.2,0.1
			c0,0.1-0.1,0.1-0.2,0.1c-0.7,0-1.4,0-1.7,0c-0.3,0-0.9,0-1.4,0c-0.1,0-0.2,0-0.2-0.1c0-0.1,0-0.1,0.2-0.1c0.2,0,0.3,0,0.4,0
			c0.2,0,0.3-0.2,0.3-0.5c0.1-0.5,0.1-1.3,0.1-2.4V53.7z"/>
		<path class="st0" d="M107.2,51.6c-0.3-0.6-0.4-0.7-0.8-0.8c-0.2,0-0.3,0-0.4,0c-0.1,0-0.1,0-0.1-0.1c0-0.1,0.1-0.1,0.3-0.1
			c0.6,0,1.2,0,1.6,0c0.3,0,0.8,0,1.3,0c0.1,0,0.3,0,0.3,0.1c0,0.1-0.1,0.1-0.2,0.1c-0.2,0-0.3,0-0.4,0.1c-0.1,0.1-0.1,0.1-0.1,0.2
			c0,0.1,0.1,0.4,0.3,0.8l1.9,5h0c0.5-1.2,1.9-4.7,2.2-5.4c0.1-0.1,0.1-0.3,0.1-0.4c0-0.1,0-0.2-0.1-0.2c-0.1,0-0.3-0.1-0.4-0.1
			c-0.1,0-0.2,0-0.2-0.1c0-0.1,0.1-0.1,0.3-0.1c0.5,0,1,0,1.1,0c0.2,0,0.7,0,1,0c0.1,0,0.2,0,0.2,0.1c0,0.1-0.1,0.1-0.2,0.1
			c-0.1,0-0.3,0-0.5,0.1c-0.1,0.1-0.3,0.3-0.6,1c-0.4,1-0.7,1.6-1.3,3c-0.7,1.6-1.2,2.8-1.5,3.3c-0.3,0.6-0.4,0.8-0.5,0.8
			c-0.1,0-0.2-0.2-0.4-0.7L107.2,51.6z"/>
		<path class="st0" d="M117,53.7c0-1.7,0-2,0-2.3c0-0.4-0.1-0.5-0.5-0.6c-0.1,0-0.3,0-0.4,0c-0.1,0-0.2,0-0.2-0.1
			c0-0.1,0.1-0.1,0.2-0.1c0.6,0,1.3,0,1.6,0c0.4,0,2.5,0,2.7,0c0.2,0,0.4,0,0.5-0.1c0.1,0,0.1,0,0.2,0c0.1,0,0.1,0,0.1,0.1
			c0,0.1-0.1,0.2-0.1,0.7c0,0.1,0,0.6-0.1,0.7c0,0.1,0,0.1-0.1,0.1c-0.1,0-0.1-0.1-0.1-0.2c0-0.1,0-0.3-0.1-0.4
			c-0.1-0.2-0.2-0.3-0.7-0.4c-0.2,0-1.3,0-1.6,0c-0.1,0-0.1,0-0.1,0.1V54c0,0.1,0,0.1,0.1,0.1c0.2,0,1.5,0,1.8,0
			c0.3,0,0.4-0.1,0.5-0.2c0.1-0.1,0.1-0.1,0.2-0.1c0,0,0.1,0,0.1,0.1c0,0.1-0.1,0.2-0.1,0.8c0,0.2,0,0.7,0,0.7c0,0.1,0,0.2-0.1,0.2
			c-0.1,0-0.1,0-0.1-0.1c0-0.1,0-0.3,0-0.4c-0.1-0.2-0.2-0.4-0.6-0.4c-0.2,0-1.3,0-1.6,0c-0.1,0-0.1,0-0.1,0.1v0.9
			c0,0.4,0,1.4,0,1.7c0,0.8,0.2,0.9,1.3,0.9c0.3,0,0.7,0,1-0.1c0.3-0.1,0.4-0.4,0.5-0.8c0-0.1,0-0.2,0.1-0.2c0.1,0,0.1,0.1,0.1,0.2
			c0,0.3-0.1,1-0.1,1.2c-0.1,0.3-0.2,0.3-0.6,0.3c-1.7,0-2.4-0.1-3-0.1c-0.3,0-0.9,0-1.4,0c-0.1,0-0.2,0-0.2-0.1
			c0-0.1,0-0.1,0.2-0.1c0.2,0,0.3,0,0.4,0c0.2,0,0.3-0.3,0.3-0.6c0.1-0.5,0.1-1.3,0.1-2.3V53.7z"/>
		<path class="st0" d="M124,53.7c0-1.7,0-2,0-2.3c0-0.4-0.1-0.5-0.5-0.6c-0.1,0-0.3,0-0.4,0c-0.1,0-0.2,0-0.2-0.1
			c0-0.1,0.1-0.1,0.2-0.1c0.6,0,1.3,0,1.5,0c0.4,0,1.2,0,1.5,0c0.7,0,1.4,0.1,2,0.5c0.3,0.2,0.7,0.8,0.7,1.5c0,0.8-0.3,1.6-1.4,2.5
			c1,1.2,1.7,2.2,2.4,2.9c0.6,0.6,1.1,0.7,1.2,0.7c0.1,0,0.2,0,0.3,0c0.1,0,0.1,0,0.1,0.1c0,0.1-0.1,0.1-0.2,0.1h-1
			c-0.6,0-0.9-0.1-1.2-0.2c-0.5-0.3-0.9-0.8-1.5-1.6c-0.4-0.6-0.9-1.3-1.1-1.5c-0.1-0.1-0.1-0.1-0.2-0.1l-1,0c-0.1,0-0.1,0-0.1,0.1
			v0.2c0,1,0,1.9,0.1,2.3c0,0.3,0.1,0.6,0.4,0.6c0.2,0,0.4,0,0.5,0c0.1,0,0.1,0,0.1,0.1c0,0.1-0.1,0.1-0.2,0.1c-0.6,0-1.4,0-1.6,0
			c-0.2,0-0.9,0-1.3,0c-0.1,0-0.2,0-0.2-0.1c0-0.1,0-0.1,0.2-0.1c0.2,0,0.3,0,0.4,0c0.2,0,0.3-0.3,0.3-0.6c0.1-0.5,0.1-1.3,0.1-2.3
			V53.7z M125.3,54.5c0,0.1,0,0.2,0.1,0.2c0.2,0.1,0.6,0.1,0.8,0.1c0.4,0,0.6,0,0.8-0.2c0.3-0.2,0.6-0.7,0.6-1.6c0-1.6-1-2-1.7-2
			c-0.3,0-0.5,0-0.6,0c-0.1,0-0.1,0.1-0.1,0.2V54.5z"/>
		<path class="st0" d="M132.6,58.6c-0.2-0.1-0.2-0.1-0.2-0.4c0-0.6,0-1.3,0.1-1.4c0-0.2,0-0.3,0.1-0.3c0.1,0,0.1,0.1,0.1,0.2
			c0,0.1,0,0.4,0.1,0.6c0.2,0.8,0.9,1.1,1.6,1.1c1,0,1.5-0.7,1.5-1.2c0-0.5-0.2-1.1-1.1-1.8l-0.5-0.4c-1.2-0.9-1.6-1.7-1.6-2.6
			c0-1.2,1-2.1,2.5-2.1c0.7,0,1.2,0.1,1.5,0.2c0.1,0,0.2,0.1,0.2,0.1c0,0.1,0,0.5,0,1.3c0,0.2,0,0.3-0.1,0.3c-0.1,0-0.1-0.1-0.1-0.2
			c0-0.1-0.1-0.4-0.3-0.7c-0.2-0.2-0.5-0.5-1.2-0.5c-0.8,0-1.3,0.5-1.3,1.1c0,0.5,0.3,0.9,1.2,1.6l0.3,0.2c1.3,1,1.8,1.8,1.8,2.8
			c0,0.6-0.2,1.4-1,1.9c-0.5,0.4-1.2,0.4-1.7,0.4C133.6,58.9,133.1,58.9,132.6,58.6z"/>
		<path class="st0" d="M139.6,53.7c0-1.7,0-2,0-2.3c0-0.4-0.1-0.6-0.4-0.6c-0.1,0-0.3,0-0.4,0c-0.1,0-0.2,0-0.2-0.1
			c0-0.1,0.1-0.1,0.3-0.1c0.4,0,1.1,0,1.4,0c0.3,0,0.9,0,1.3,0c0.1,0,0.2,0,0.2,0.1c0,0.1-0.1,0.1-0.2,0.1c-0.1,0-0.2,0-0.3,0
			c-0.3,0.1-0.4,0.2-0.4,0.6c0,0.3,0,0.7,0,2.3v1.9c0,1.1,0,1.9,0,2.4c0,0.3,0.1,0.5,0.4,0.5c0.2,0,0.4,0,0.6,0c0.1,0,0.2,0,0.2,0.1
			c0,0.1-0.1,0.1-0.2,0.1c-0.7,0-1.4,0-1.7,0c-0.3,0-0.9,0-1.4,0c-0.1,0-0.2,0-0.2-0.1c0-0.1,0-0.1,0.2-0.1c0.2,0,0.3,0,0.4,0
			c0.2,0,0.3-0.2,0.3-0.5c0.1-0.5,0.1-1.3,0.1-2.4V53.7z"/>
		<path class="st0" d="M144.7,53.7c0-1.7,0-2,0-2.3c0-0.4-0.1-0.5-0.5-0.6c-0.1,0-0.3,0-0.4,0c-0.1,0-0.2,0-0.2-0.1
			c0-0.1,0.1-0.1,0.2-0.1c0.6,0,1.3,0,1.6,0c0.3,0,1,0,1.7,0c1.4,0,3.2,0,4.4,1.2c0.5,0.6,1.1,1.5,1.1,2.8c0,1.4-0.6,2.4-1.2,3.1
			c-0.5,0.5-1.6,1.3-3.7,1.3c-0.8,0-1.8-0.1-2.3-0.1c-0.3,0-0.9,0-1.4,0c-0.1,0-0.2,0-0.2-0.1c0-0.1,0-0.1,0.2-0.1
			c0.2,0,0.3,0,0.4,0c0.2,0,0.3-0.3,0.3-0.6c0.1-0.5,0.1-1.3,0.1-2.3V53.7z M146.1,54.9c0,1.2,0,2,0,2.2c0,0.3,0,0.7,0.1,0.8
			c0.1,0.2,0.6,0.4,1.4,0.4c1.1,0,1.9-0.2,2.5-0.8c0.7-0.6,0.9-1.6,0.9-2.7c0-1.4-0.6-2.3-1-2.7c-1-1-2.3-1.1-3.1-1.1
			c-0.2,0-0.6,0-0.7,0.1c-0.1,0-0.1,0.1-0.1,0.2c0,0.4,0,1.3,0,2.2V54.9z"/>
		<path class="st0" d="M155.4,55.9C155.3,55.9,155.3,55.9,155.4,55.9l-0.7,1.7c-0.1,0.3-0.2,0.5-0.2,0.7c0,0.2,0.1,0.3,0.4,0.3h0.2
			c0.1,0,0.2,0,0.2,0.1c0,0.1-0.1,0.1-0.2,0.1c-0.3,0-0.8,0-1.2,0c-0.1,0-0.7,0-1.3,0c-0.1,0-0.2,0-0.2-0.1c0-0.1,0-0.1,0.1-0.1
			c0.1,0,0.3,0,0.3,0c0.5-0.1,0.7-0.4,0.9-1l2.7-6.9c0.1-0.3,0.2-0.4,0.3-0.4c0.1,0,0.2,0.1,0.3,0.3c0.3,0.6,2,5.1,2.7,6.7
			c0.4,1,0.7,1.1,1,1.2c0.2,0,0.3,0,0.5,0c0.1,0,0.1,0,0.1,0.1c0,0.1-0.1,0.1-0.5,0.1c-0.4,0-1.2,0-2.1,0c-0.2,0-0.3,0-0.3-0.1
			c0-0.1,0-0.1,0.2-0.1c0.1,0,0.2-0.1,0.1-0.3l-0.9-2.3c0-0.1-0.1-0.1-0.1-0.1H155.4z M157.6,55.4C157.7,55.4,157.7,55.3,157.6,55.4
			l-0.9-2.8c0,0,0-0.1-0.1-0.1c0,0-0.1,0.1-0.1,0.1l-1,2.7c0,0,0,0.1,0,0.1H157.6z"/>
		<path class="st0" d="M163.4,53.7c0-1.7,0-2,0-2.3c0-0.4-0.1-0.5-0.5-0.6c-0.1,0-0.3,0-0.4,0c-0.1,0-0.2,0-0.2-0.1
			c0-0.1,0.1-0.1,0.2-0.1c0.6,0,1.3,0,1.6,0c0.3,0,1,0,1.7,0c1.4,0,3.2,0,4.4,1.2c0.5,0.6,1.1,1.5,1.1,2.8c0,1.4-0.6,2.4-1.2,3.1
			c-0.5,0.5-1.6,1.3-3.7,1.3c-0.8,0-1.8-0.1-2.3-0.1c-0.3,0-0.9,0-1.4,0c-0.1,0-0.2,0-0.2-0.1c0-0.1,0-0.1,0.2-0.1
			c0.2,0,0.3,0,0.4,0c0.2,0,0.3-0.3,0.3-0.6c0.1-0.5,0.1-1.3,0.1-2.3V53.7z M164.8,54.9c0,1.2,0,2,0,2.2c0,0.3,0,0.7,0.1,0.8
			c0.1,0.2,0.6,0.4,1.4,0.4c1.1,0,1.9-0.2,2.5-0.8c0.7-0.6,0.9-1.6,0.9-2.7c0-1.4-0.6-2.3-1.1-2.7c-1-1-2.3-1.1-3.1-1.1
			c-0.2,0-0.6,0-0.7,0.1c-0.1,0-0.1,0.1-0.1,0.2c0,0.4,0,1.3,0,2.2V54.9z"/>
		<path class="st0" d="M82.8,73.5c-1.1-0.9-1.4-2.2-1.4-3.2c0-0.7,0.2-2,1.3-3c0.8-0.7,1.8-1.2,3.5-1.2c0.7,0,1.1,0,1.6,0.1
			c0.4,0.1,0.8,0.2,1.1,0.2c0.1,0,0.2,0.1,0.2,0.1c0,0.1,0,0.2-0.1,0.6c0,0.4,0,1,0,1.2c0,0.2,0,0.3-0.1,0.3c-0.1,0-0.1-0.1-0.1-0.2
			c0-0.3-0.2-0.7-0.4-1c-0.4-0.4-1.2-0.7-2.2-0.7c-1,0-1.6,0.2-2.1,0.7c-0.8,0.7-1,1.8-1,2.8c0,2.6,2,3.9,3.4,3.9c1,0,1.6-0.1,2-0.6
			c0.2-0.2,0.3-0.5,0.4-0.7c0-0.2,0.1-0.2,0.1-0.2c0.1,0,0.1,0.1,0.1,0.2c0,0.1-0.1,1.1-0.2,1.5c-0.1,0.2-0.1,0.2-0.3,0.3
			c-0.4,0.2-1.3,0.3-2,0.3C85.1,74.7,83.8,74.3,82.8,73.5z"/>
		<path class="st0" d="M92.7,71.7C92.7,71.7,92.6,71.7,92.7,71.7L92,73.3c-0.1,0.3-0.2,0.5-0.2,0.7c0,0.2,0.1,0.3,0.4,0.3h0.2
			c0.1,0,0.2,0,0.2,0.1c0,0.1-0.1,0.1-0.2,0.1c-0.3,0-0.8,0-1.2,0c-0.1,0-0.7,0-1.3,0c-0.1,0-0.2,0-0.2-0.1c0-0.1,0-0.1,0.1-0.1
			c0.1,0,0.3,0,0.3,0c0.5-0.1,0.7-0.4,0.9-1l2.7-6.9c0.1-0.3,0.2-0.4,0.3-0.4c0.1,0,0.2,0.1,0.3,0.3c0.3,0.6,2,5.1,2.7,6.7
			c0.4,1,0.7,1.1,1,1.2c0.2,0,0.3,0,0.5,0c0.1,0,0.1,0,0.1,0.1c0,0.1-0.1,0.1-0.5,0.1c-0.4,0-1.2,0-2.1,0c-0.2,0-0.3,0-0.3-0.1
			c0-0.1,0-0.1,0.2-0.1c0.1,0,0.2-0.1,0.1-0.3l-0.9-2.3c0-0.1-0.1-0.1-0.1-0.1H92.7z M94.9,71.1C95,71.1,95,71.1,94.9,71.1L94,68.4
			c0,0,0-0.1-0.1-0.1c0,0-0.1,0.1-0.1,0.1l-1,2.7c0,0,0,0.1,0,0.1H94.9z"/>
		<path class="st0" d="M101.5,66.9l-1.6,0c-0.6,0-0.9,0.1-1.1,0.3c-0.1,0.2-0.2,0.3-0.2,0.4c0,0.1-0.1,0.1-0.1,0.1
			c-0.1,0-0.1-0.1-0.1-0.2c0-0.2,0.2-1.2,0.2-1.3c0-0.1,0.1-0.2,0.1-0.2c0.1,0,0.2,0.1,0.5,0.1c0.3,0,0.7,0.1,1.1,0.1h4.3
			c0.7,0,1-0.1,1-0.1c0.1,0,0.1,0.1,0.1,0.2c0,0.2,0,1,0,1.3c0,0.1,0,0.2-0.1,0.2c-0.1,0-0.1-0.1-0.1-0.2l0-0.1
			c0-0.3-0.3-0.6-1.3-0.6l-1.4,0v4.5c0,1,0,1.9,0.1,2.3c0,0.3,0.1,0.5,0.4,0.6c0.2,0,0.4,0,0.6,0c0.1,0,0.2,0,0.2,0.1
			c0,0.1-0.1,0.1-0.2,0.1c-0.7,0-1.4,0-1.7,0c-0.3,0-0.9,0-1.4,0c-0.1,0-0.2,0-0.2-0.1c0-0.1,0-0.1,0.2-0.1c0.2,0,0.3,0,0.4,0
			c0.2,0,0.3-0.3,0.3-0.6c0.1-0.5,0.1-1.3,0.1-2.3V66.9z"/>
		<path class="st0" d="M106.7,70.4c0-1.9,1.2-4.3,4.5-4.3c2.7,0,4.4,1.6,4.4,4.1c0,2.5-1.8,4.5-4.5,4.5
			C108,74.7,106.7,72.3,106.7,70.4z M114.1,70.6c0-2.5-1.4-4-3.2-4c-1.3,0-2.7,0.7-2.7,3.4c0,2.3,1.3,4.1,3.4,4.1
			C112.4,74.1,114.1,73.8,114.1,70.6z M113,64.5c0.1,0.1,0,0.2-0.1,0.2c-0.1,0-0.2,0-0.4,0c-0.6,0.1-1.5,0.4-1.9,0.6
			c-0.1,0-0.2,0.1-0.2,0.1c0,0-0.1,0-0.1-0.1c0,0,0-0.1,0.1-0.1c0.4-0.4,1.6-1.3,1.8-1.4c0.1-0.1,0.2-0.1,0.2-0.1
			c0.1,0,0.1,0,0.2,0.1C112.8,64,112.9,64.2,113,64.5z"/>
		<path class="st0" d="M119.4,71.4c0,1.4,0,2.2,0.2,2.4c0.2,0.2,0.5,0.2,1.3,0.2c0.6,0,1,0,1.3-0.3c0.1-0.1,0.3-0.4,0.3-0.7
			c0-0.1,0-0.2,0.1-0.2c0.1,0,0.1,0.1,0.1,0.2c0,0.1-0.1,0.9-0.2,1.3c-0.1,0.2-0.1,0.3-0.7,0.3c-1.6,0-2.3-0.1-3.2-0.1
			c-0.3,0-0.9,0-1.4,0c-0.1,0-0.2,0-0.2-0.1c0-0.1,0-0.1,0.2-0.1c0.2,0,0.3,0,0.4,0c0.2,0,0.3-0.3,0.3-0.6c0.1-0.5,0.1-1.3,0.1-2.3
			v-1.9c0-1.7,0-2,0-2.3c0-0.4-0.1-0.5-0.5-0.6c-0.1,0-0.2,0-0.4,0c-0.1,0-0.2,0-0.2-0.1c0-0.1,0.1-0.1,0.2-0.1c0.5,0,1.2,0,1.5,0
			c0.3,0,1.1,0,1.5,0c0.2,0,0.2,0,0.2,0.1c0,0.1-0.1,0.1-0.2,0.1c-0.1,0-0.3,0-0.4,0c-0.3,0.1-0.4,0.2-0.4,0.6c0,0.3,0,0.7,0,2.3
			V71.4z"/>
		<path class="st0" d="M125,69.4c0-1.7,0-2,0-2.3c0-0.4-0.1-0.6-0.4-0.6c-0.1,0-0.3,0-0.4,0c-0.1,0-0.2,0-0.2-0.1
			c0-0.1,0.1-0.1,0.3-0.1c0.4,0,1.1,0,1.4,0c0.3,0,0.9,0,1.3,0c0.1,0,0.2,0,0.2,0.1c0,0.1-0.1,0.1-0.2,0.1s-0.2,0-0.3,0
			c-0.3,0.1-0.4,0.2-0.4,0.6c0,0.3,0,0.7,0,2.3v1.9c0,1.1,0,1.9,0,2.4c0,0.3,0.1,0.5,0.4,0.5c0.2,0,0.4,0,0.6,0c0.1,0,0.2,0,0.2,0.1
			c0,0.1-0.1,0.1-0.2,0.1c-0.7,0-1.4,0-1.7,0c-0.3,0-0.9,0-1.4,0c-0.1,0-0.2,0-0.2-0.1c0-0.1,0-0.1,0.2-0.1c0.2,0,0.3,0,0.4,0
			c0.2,0,0.3-0.2,0.3-0.5c0.1-0.5,0.1-1.3,0.1-2.4V69.4z"/>
		<path class="st0" d="M130,73.5c-1.1-0.9-1.4-2.2-1.4-3.2c0-0.7,0.2-2,1.3-3c0.8-0.7,1.8-1.2,3.5-1.2c0.7,0,1.1,0,1.6,0.1
			c0.4,0.1,0.8,0.2,1.1,0.2c0.1,0,0.2,0.1,0.2,0.1c0,0.1,0,0.2-0.1,0.6c0,0.4,0,1,0,1.2c0,0.2,0,0.3-0.1,0.3c-0.1,0-0.1-0.1-0.1-0.2
			c0-0.3-0.2-0.7-0.4-1c-0.4-0.4-1.2-0.7-2.2-0.7c-1,0-1.6,0.2-2.1,0.7c-0.8,0.7-1,1.8-1,2.8c0,2.6,2,3.9,3.4,3.9c1,0,1.6-0.1,2-0.6
			c0.2-0.2,0.3-0.5,0.4-0.7c0-0.2,0.1-0.2,0.1-0.2c0.1,0,0.1,0.1,0.1,0.2c0,0.1-0.1,1.1-0.2,1.5c-0.1,0.2-0.1,0.2-0.3,0.3
			c-0.4,0.2-1.3,0.3-2,0.3C132.3,74.7,131,74.3,130,73.5z"/>
		<path class="st0" d="M139.9,71.7C139.8,71.7,139.8,71.7,139.9,71.7l-0.7,1.7c-0.1,0.3-0.2,0.5-0.2,0.7c0,0.2,0.1,0.3,0.4,0.3h0.2
			c0.1,0,0.2,0,0.2,0.1c0,0.1-0.1,0.1-0.2,0.1c-0.3,0-0.8,0-1.2,0c-0.1,0-0.7,0-1.3,0c-0.1,0-0.2,0-0.2-0.1c0-0.1,0-0.1,0.1-0.1
			c0.1,0,0.3,0,0.3,0c0.5-0.1,0.7-0.4,0.9-1l2.7-6.9c0.1-0.3,0.2-0.4,0.3-0.4c0.1,0,0.2,0.1,0.3,0.3c0.3,0.6,2,5.1,2.7,6.7
			c0.4,1,0.7,1.1,1,1.2c0.2,0,0.3,0,0.5,0c0.1,0,0.1,0,0.1,0.1c0,0.1-0.1,0.1-0.5,0.1c-0.4,0-1.2,0-2.1,0c-0.2,0-0.3,0-0.3-0.1
			c0-0.1,0-0.1,0.2-0.1c0.1,0,0.2-0.1,0.1-0.3l-0.9-2.3c0-0.1-0.1-0.1-0.1-0.1H139.9z M142.1,71.1C142.2,71.1,142.2,71.1,142.1,71.1
			l-0.9-2.8c0,0,0-0.1-0.1-0.1c0,0-0.1,0.1-0.1,0.1l-1,2.7c0,0,0,0.1,0,0.1H142.1z"/>
		<path class="st0" d="M82.7,85.2c0-1.7,0-2,0-2.3c0-0.4-0.1-0.5-0.5-0.6c-0.1,0-0.3,0-0.4,0c-0.1,0-0.2,0-0.2-0.1
			c0-0.1,0.1-0.1,0.2-0.1c0.6,0,1.3,0,1.6,0c0.3,0,1,0,1.7,0c1.4,0,3.2,0,4.4,1.2c0.5,0.6,1.1,1.5,1.1,2.8c0,1.4-0.6,2.4-1.2,3.1
			c-0.5,0.5-1.6,1.3-3.7,1.3c-0.8,0-1.8-0.1-2.3-0.1c-0.3,0-0.9,0-1.4,0c-0.1,0-0.2,0-0.2-0.1c0-0.1,0-0.1,0.2-0.1
			c0.2,0,0.3,0,0.4,0c0.2,0,0.3-0.3,0.3-0.6c0.1-0.5,0.1-1.3,0.1-2.3V85.2z M84,86.4c0,1.2,0,2,0,2.2c0,0.3,0,0.7,0.1,0.8
			c0.1,0.2,0.6,0.4,1.4,0.4c1.1,0,1.9-0.2,2.5-0.8c0.7-0.6,0.9-1.6,0.9-2.7c0-1.4-0.6-2.3-1.1-2.7c-1-1-2.3-1.1-3.1-1.1
			c-0.2,0-0.6,0-0.7,0.1c-0.1,0-0.1,0.1-0.1,0.2c0,0.4,0,1.3,0,2.2V86.4z"/>
		<path class="st0" d="M92.8,85.2c0-1.7,0-2,0-2.3c0-0.4-0.1-0.5-0.5-0.6c-0.1,0-0.3,0-0.4,0c-0.1,0-0.2,0-0.2-0.1
			c0-0.1,0.1-0.1,0.2-0.1c0.6,0,1.3,0,1.6,0c0.4,0,2.5,0,2.7,0c0.2,0,0.4,0,0.5-0.1c0.1,0,0.1,0,0.2,0c0.1,0,0.1,0,0.1,0.1
			c0,0.1-0.1,0.2-0.1,0.7c0,0.1,0,0.6-0.1,0.7c0,0.1,0,0.1-0.1,0.1c-0.1,0-0.1-0.1-0.1-0.2c0-0.1,0-0.3-0.1-0.4
			c-0.1-0.2-0.2-0.3-0.7-0.4c-0.2,0-1.3,0-1.6,0c-0.1,0-0.1,0-0.1,0.1v2.8c0,0.1,0,0.1,0.1,0.1c0.2,0,1.5,0,1.8,0
			c0.3,0,0.4-0.1,0.5-0.2c0.1-0.1,0.1-0.1,0.2-0.1c0,0,0.1,0,0.1,0.1c0,0.1-0.1,0.2-0.1,0.8c0,0.2,0,0.7,0,0.7c0,0.1,0,0.2-0.1,0.2
			c-0.1,0-0.1,0-0.1-0.1c0-0.1,0-0.3,0-0.4c-0.1-0.2-0.2-0.4-0.6-0.4c-0.2,0-1.3,0-1.6,0c-0.1,0-0.1,0-0.1,0.1v0.9
			c0,0.4,0,1.4,0,1.7c0,0.8,0.2,0.9,1.3,0.9c0.3,0,0.7,0,1-0.1c0.3-0.1,0.4-0.4,0.5-0.8c0-0.1,0-0.2,0.1-0.2c0.1,0,0.1,0.1,0.1,0.2
			c0,0.3-0.1,1-0.1,1.2c-0.1,0.3-0.2,0.3-0.6,0.3c-1.7,0-2.4-0.1-3-0.1c-0.3,0-0.9,0-1.4,0c-0.1,0-0.2,0-0.2-0.1
			c0-0.1,0-0.1,0.2-0.1c0.2,0,0.3,0,0.4,0c0.2,0,0.3-0.3,0.3-0.6c0.1-0.5,0.1-1.3,0.1-2.3V85.2z"/>
		<path class="st0" d="M103.7,89.2c-1.1-0.9-1.4-2.2-1.4-3.2c0-0.7,0.2-2,1.3-3c0.8-0.7,1.8-1.2,3.5-1.2c0.7,0,1.1,0,1.6,0.1
			c0.4,0.1,0.8,0.2,1.1,0.2c0.1,0,0.2,0.1,0.2,0.1c0,0.1,0,0.2-0.1,0.6c0,0.4,0,1,0,1.2c0,0.2,0,0.3-0.1,0.3c-0.1,0-0.1-0.1-0.1-0.2
			c0-0.3-0.2-0.7-0.4-1c-0.4-0.4-1.2-0.7-2.2-0.7c-1,0-1.6,0.2-2.1,0.7c-0.8,0.7-1,1.8-1,2.8c0,2.6,2,3.9,3.4,3.9c1,0,1.6-0.1,2-0.6
			c0.2-0.2,0.3-0.5,0.4-0.7c0-0.2,0.1-0.2,0.1-0.2c0.1,0,0.1,0.1,0.1,0.2c0,0.1-0.1,1.1-0.2,1.5c-0.1,0.2-0.1,0.2-0.3,0.3
			c-0.4,0.2-1.3,0.3-2,0.3C105.9,90.4,104.7,90.1,103.7,89.2z"/>
		<path class="st0" d="M118.2,85.5C118.2,85.5,118.3,85.5,118.2,85.5l0.1-0.3c0-1.7,0-2,0-2.3c0-0.4-0.1-0.5-0.5-0.6
			c-0.1,0-0.3,0-0.4,0c-0.1,0-0.2,0-0.2-0.1c0-0.1,0.1-0.1,0.2-0.1c0.6,0,1.3,0,1.6,0c0.3,0,1,0,1.4,0c0.2,0,0.2,0,0.2,0.1
			c0,0.1-0.1,0.1-0.2,0.1c-0.1,0-0.2,0-0.3,0c-0.3,0.1-0.4,0.2-0.4,0.6c0,0.3,0,0.7,0,2.3v1.9c0,1,0,1.9,0.1,2.3
			c0,0.3,0.1,0.5,0.4,0.6c0.2,0,0.4,0,0.6,0c0.1,0,0.2,0,0.2,0.1c0,0.1-0.1,0.1-0.2,0.1c-0.7,0-1.4,0-1.7,0c-0.3,0-0.9,0-1.4,0
			c-0.2,0-0.2,0-0.2-0.1c0-0.1,0-0.1,0.2-0.1c0.2,0,0.3,0,0.4,0c0.2,0,0.3-0.3,0.3-0.6c0.1-0.5,0.1-1.3,0.1-2.3v-1
			c0,0,0-0.1-0.1-0.1H114c0,0-0.1,0-0.1,0.1v1c0,1,0,1.9,0.1,2.3c0,0.3,0.1,0.5,0.4,0.6c0.2,0,0.4,0,0.6,0c0.1,0,0.2,0,0.2,0.1
			c0,0.1-0.1,0.1-0.2,0.1c-0.7,0-1.4,0-1.7,0c-0.3,0-0.9,0-1.4,0c-0.1,0-0.2,0-0.2-0.1c0-0.1,0-0.1,0.2-0.1c0.2,0,0.3,0,0.4,0
			c0.2,0,0.3-0.3,0.3-0.6c0.1-0.5,0.1-1.3,0.1-2.3v-1.9c0-1.7,0-2,0-2.3c0-0.4-0.1-0.5-0.5-0.6c-0.1,0-0.3,0-0.4,0
			c-0.1,0-0.2,0-0.2-0.1c0-0.1,0.1-0.1,0.2-0.1c0.6,0,1.3,0,1.6,0c0.3,0,1,0,1.4,0c0.2,0,0.2,0,0.2,0.1c0,0.1-0.1,0.1-0.2,0.1
			c-0.1,0-0.2,0-0.3,0c-0.3,0.1-0.4,0.2-0.4,0.6c0,0.3,0,0.7,0,2.3v0.2c0,0.1,0,0.1,0.1,0.1H118.2z"/>
		<path class="st0" d="M123.4,85.2c0-1.7,0-2,0-2.3c0-0.4-0.1-0.6-0.4-0.6c-0.1,0-0.3,0-0.4,0c-0.1,0-0.2,0-0.2-0.1
			c0-0.1,0.1-0.1,0.3-0.1c0.4,0,1.1,0,1.4,0c0.3,0,0.9,0,1.3,0c0.1,0,0.2,0,0.2,0.1c0,0.1-0.1,0.1-0.2,0.1c-0.1,0-0.2,0-0.3,0
			c-0.3,0.1-0.4,0.2-0.4,0.6c0,0.3,0,0.7,0,2.3v1.9c0,1.1,0,1.9,0,2.4c0,0.3,0.1,0.5,0.4,0.5c0.2,0,0.4,0,0.6,0c0.1,0,0.2,0,0.2,0.1
			c0,0.1-0.1,0.1-0.2,0.1c-0.7,0-1.4,0-1.7,0c-0.3,0-0.9,0-1.4,0c-0.1,0-0.2,0-0.2-0.1c0-0.1,0-0.1,0.2-0.1c0.2,0,0.3,0,0.4,0
			c0.2,0,0.3-0.2,0.3-0.5c0.1-0.5,0.1-1.3,0.1-2.4V85.2z"/>
		<path class="st0" d="M129.9,87.1c0,1.4,0,2.2,0.2,2.4c0.2,0.2,0.5,0.2,1.3,0.2c0.6,0,1,0,1.3-0.3c0.1-0.1,0.3-0.4,0.3-0.7
			c0-0.1,0-0.2,0.1-0.2c0.1,0,0.1,0.1,0.1,0.2c0,0.1-0.1,0.9-0.2,1.3c-0.1,0.2-0.1,0.3-0.7,0.3c-1.6,0-2.3-0.1-3.2-0.1
			c-0.3,0-0.9,0-1.4,0c-0.1,0-0.2,0-0.2-0.1c0-0.1,0-0.1,0.2-0.1c0.2,0,0.3,0,0.4,0c0.2,0,0.3-0.3,0.3-0.6c0.1-0.5,0.1-1.3,0.1-2.3
			v-1.9c0-1.7,0-2,0-2.3c0-0.4-0.1-0.5-0.5-0.6c-0.1,0-0.2,0-0.4,0c-0.1,0-0.2,0-0.2-0.1c0-0.1,0.1-0.1,0.2-0.1c0.5,0,1.2,0,1.5,0
			c0.3,0,1.1,0,1.5,0c0.2,0,0.2,0,0.2,0.1c0,0.1-0.1,0.1-0.2,0.1c-0.1,0-0.3,0-0.4,0c-0.3,0.1-0.4,0.2-0.4,0.6c0,0.3,0,0.7,0,2.3
			V87.1z"/>
		<path class="st0" d="M135.5,85.2c0-1.7,0-2,0-2.3c0-0.4-0.1-0.5-0.5-0.6c-0.1,0-0.3,0-0.4,0c-0.1,0-0.2,0-0.2-0.1
			c0-0.1,0.1-0.1,0.2-0.1c0.6,0,1.3,0,1.6,0c0.3,0,2.5,0,2.7,0c0.2,0,0.4,0,0.5-0.1c0.1,0,0.1,0,0.2,0s0.1,0,0.1,0.1
			c0,0.1-0.1,0.2-0.1,0.7c0,0.1,0,0.6-0.1,0.7c0,0.1,0,0.1-0.1,0.1c-0.1,0-0.1-0.1-0.1-0.2c0-0.1,0-0.3-0.1-0.4
			c-0.1-0.2-0.2-0.3-0.7-0.4c-0.2,0-1.3,0-1.6,0c-0.1,0-0.1,0-0.1,0.1v2.8c0,0.1,0,0.1,0.1,0.1c0.2,0,1.5,0,1.8,0
			c0.3,0,0.4-0.1,0.5-0.2c0.1-0.1,0.1-0.1,0.2-0.1c0,0,0.1,0,0.1,0.1c0,0.1-0.1,0.2-0.1,0.8c0,0.2,0,0.7,0,0.7c0,0.1,0,0.2-0.1,0.2
			c-0.1,0-0.1,0-0.1-0.1c0-0.1,0-0.3,0-0.4c-0.1-0.2-0.2-0.4-0.6-0.4c-0.2,0-1.3,0-1.6,0c-0.1,0-0.1,0-0.1,0.1v0.9
			c0,0.4,0,1.4,0,1.7c0,0.8,0.2,0.9,1.3,0.9c0.3,0,0.7,0,1-0.1c0.3-0.1,0.4-0.4,0.5-0.8c0-0.1,0-0.2,0.1-0.2c0.1,0,0.1,0.1,0.1,0.2
			c0,0.3-0.1,1-0.1,1.2c-0.1,0.3-0.2,0.3-0.6,0.3c-1.7,0-2.4-0.1-3-0.1c-0.3,0-0.9,0-1.4,0c-0.1,0-0.2,0-0.2-0.1
			c0-0.1,0-0.1,0.2-0.1c0.2,0,0.3,0,0.4,0c0.2,0,0.3-0.3,0.3-0.6c0.1-0.5,0.1-1.3,0.1-2.3V85.2z"/>
	</g>
	<g>
		<path class="st0" d="M48.8,44.3c0.4,0,0.8-0.3,0.8-0.8c0-0.4-0.3-0.8-0.8-0.8c-0.4,0-0.8,0.3-0.8,0.8C48,44,48.3,44.3,48.8,44.3z"
			/>
		<circle class="st0" cx="24.6" cy="74.2" r="0.2"/>
		<path class="st0" d="M34.1,74.4c0.1,0,0.2-0.1,0.2-0.2c0-0.1-0.1-0.2-0.2-0.2c-0.1,0-0.2,0.1-0.2,0.2C33.9,74.3,34,74.4,34.1,74.4
			z"/>
		<path class="st0" d="M11.4,67.2l1.8,1.1c0,0.2-0.1,0.5-0.1,0.7c0,2.4,1.4,4.3,4.2,4.9c0.2,0,0.4,0.1,0.5,0.1l-0.5,4.5v0
			c0,0.9,0.9,1.7,1.9,1.7c1.1,0,1.9-0.8,1.9-1.7v0l-0.5-4.7h-0.1v-0.3c0-0.4-0.2-0.9-0.6-1.3c0.4,0,0.8-0.1,1.2-0.3
			c0.8-0.5,1.1-1.4,1.1-1.5l0.1-0.5l1.3-0.7v0.3c0,0.7,0.3,1.4,0.8,1.9v1.1v0.2c-0.7,0.2-1.4,0.6-1.6,0.9l-0.4,0.3l0.1,0.6
			c0,0,0,0.2,0.1,0.2c0.2,0.6,1.1,1.1,2,1.1c0.4,0,0.6-0.1,0.9-0.1l0,0c0.1,0.2,0.3,0.5,0.5,0.8c0.2,0.4,0.4,0.6,0.7,0.9
			c-0.4,0.5-0.6,1-0.6,1.6c0,0.8,0.4,1.4,0.9,1.8c-0.2,0.3-0.4,0.7-0.4,1.2c0,0.7,0.3,1.3,0.9,1.8c-0.1,0.2-0.1,0.4-0.1,0.6
			c0,0.6,0.3,1.2,0.8,1.5c0,0.6,0.5,1.1,1.1,1.1s1.1-0.5,1.1-1.1c0.5-0.3,0.8-0.9,0.8-1.5c0-0.2-0.1-0.4-0.1-0.6
			c0.6-0.5,0.9-1.1,0.9-1.8c0-0.5-0.2-0.9-0.4-1.2c0.5-0.4,0.9-1,0.9-1.8c0-0.6-0.2-1.2-0.6-1.6c0.3-0.2,0.5-0.5,0.7-0.9
			c0.2-0.3,0.4-0.6,0.5-0.8l0,0c0.2,0,0.5,0.1,0.8,0.1c0.9,0,1.8-0.5,2-1.1c0,0,0-0.2,0-0.2l0.1-0.6l-0.4-0.3
			c-0.2-0.2-0.7-0.6-1.3-0.8v-1.2c0.7-0.5,1-1.3,1-2.1v-0.8h-0.8h-2c-0.8-0.9-2-1.4-3.3-1.4c-1.3,0-2.4,0.5-3.3,1.4h-1.7l2.5-1.4
			c0.1-0.1,0.1-0.2,0.1-0.3c-0.1-0.1-0.2-0.1-0.3-0.1l-4.6,2.7l-0.4-0.1c0.2-0.4,0.3-0.9,0.3-0.9l0-0.5l3.4-2.8
			c0.1-0.1,0.1-0.2,0-0.3c-0.1-0.1-0.2-0.1-0.3,0l-3.4,2.8l-0.2,0c0-0.1,0.1-0.2,0.1-0.3l1.1-1.3l-0.4-0.4c-0.1-0.1-0.2-0.1-0.2-0.2
			l1.5-1.8c0.1-0.1,0.1-0.2,0-0.3c-0.1-0.1-0.2-0.1-0.3,0l-1.5,1.8c-1-0.7-2.2-1.1-3.5-1.1c-0.9,0-1.7,0.2-2.4,0.5l-1-1.2
			c-0.1-0.1-0.2-0.1-0.3,0c-0.1,0.1-0.1,0.2,0,0.3l1,1.2c-0.5,0.3-0.9,0.6-1.2,1l-1.2-1c-0.1-0.1-0.2-0.1-0.3,0
			c-0.1,0.1-0.1,0.2,0,0.3l1.2,1c-0.4,0.5-0.7,1.1-0.8,1.7l-1.7-1c-0.1-0.1-0.2,0-0.3,0.1C11.2,67,11.2,67.1,11.4,67.2z M26.8,76
			c-0.3-0.5-0.6-1-0.8-1.2c-0.3-0.3-0.7,0-1.3,0c-0.7,0-1.2-0.4-1.2-0.5c0,0,0-0.2,0-0.2c0.2-0.2,0.8-0.7,1.5-0.7
			c0.8,0,1.8,0.4,2.7,2.2c0.2,0.3,0.5,0.5,0.8,0.7c-0.3,0.1-0.6,0.3-0.9,0.5C27.3,76.6,27,76.4,26.8,76z M27.3,73.7h0.5
			c0,0.2,0.1,0.9,0.1,0.9S27.5,73.8,27.3,73.7z M30.2,83.4c-0.3,0.1-0.5,0.2-0.7,0.4c-0.1,0.1-0.2,0.4,0,0.5c0.1,0.1,0.4,0.2,0.5,0
			c0.1-0.1,0.3-0.2,0.5-0.3c0,0.1,0.1,0.2,0.1,0.3c0,0.4-0.3,0.8-0.8,0.9l0,0.5c0,0.2-0.1,0.3-0.3,0.3c-0.2,0-0.3-0.1-0.3-0.3l0-0.5
			c-0.5-0.1-0.8-0.5-0.8-0.9c0-0.2,0.1-0.4,0.2-0.6c0.4-0.6,0.8-0.8,1.5-1.3c0,0,0.1,0,0.1-0.1c0,0,0,0,0,0c0,0,0,0,0,0c0,0,0,0,0,0
			c0,0,0,0,0,0c0.1-0.1,0.2-0.2,0.2-0.4c0-0.2-0.1-0.3-0.3-0.4c0.1,0,0.1-0.1,0.2-0.1c0.2-0.1,0.4-0.2,0.6-0.3
			c0.2,0.2,0.3,0.5,0.3,0.8C31.2,82.7,30.7,83.1,30.2,83.4z M30.3,80.6C30.3,80.6,30.3,80.6,30.3,80.6c-0.1,0.1-0.2,0.1-0.3,0.2
			c-0.4,0.2-0.8,0.4-1.1,0.6c0,0-0.1,0-0.1,0.1c0,0,0,0,0,0c0,0,0,0,0,0c-0.2,0.1-0.3,0.3-0.3,0.5c0,0.3,0.1,0.4,0.4,0.6
			c-0.2,0.2-0.5,0.4-0.7,0.6c-0.3-0.2-0.6-0.5-0.6-1.1c0-0.5,0.3-0.9,0.6-1.2c0,0,0,0,0,0c0.4-0.3,0.9-0.5,1.3-0.8
			c0.2-0.1,0.3-0.2,0.4-0.2c0.5-0.3,0.9-0.5,0.9-0.9c0-0.3-0.2-0.6-0.6-0.8c0.3-0.1,0.6-0.3,0.9-0.4c0.3,0.3,0.6,0.7,0.6,1.2
			C31.7,79.7,31,80.2,30.3,80.6z M29,78.9c0-0.2,0.2-0.4,0.4-0.4c0.2,0,0.4,0.2,0.4,0.4c0,0.2-0.2,0.4-0.4,0.4
			C29.2,79.2,29,79.1,29,78.9z M35.3,74.2c0,0,0,0.2,0,0.2c0,0.1-0.5,0.5-1.2,0.5c-0.7,0-1-0.3-1.3,0c-0.2,0.2-0.5,0.7-0.8,1.2
			c-0.2,0.4-0.5,0.7-0.9,0.9c-0.4,0.2-0.8,0.4-1.3,0.6c-0.3,0.1-0.6,0.2-0.9,0.4v0c-0.5,0.2-0.9,0.5-0.9,1c0,0.3,0.3,0.6,0.7,0.8
			c-0.3,0.2-0.6,0.3-0.8,0.5c-0.5-0.3-0.8-0.7-0.8-1.3c0-0.7,0.4-1.2,0.9-1.5c0.4-0.2,0.9-0.4,1.4-0.6c0.5-0.2,0.9-0.4,1.2-0.6
			c0,0,0,0,0,0c0.3-0.2,0.5-0.3,0.6-0.6c0.9-1.8,1.9-2.2,2.7-2.2C34.4,73.5,35.1,74,35.3,74.2z M28.6,73.7h1.4L30,75.7
			c-0.2,0.1-0.6,0.3-1,0.4c-0.1,0-0.2,0.1-0.3,0.1L28.6,73.7z M30.8,74.6c0,0,0.1-0.7,0.1-0.9h0.5C31.3,73.8,30.8,74.6,30.8,74.6z
			 M24.4,69.3h2.7c0.3,0,0.5,0.2,0.5,0.5c0,0,0,0.5,0,0.6c0.1,0,0.5,0,0.6,0c0-0.2,0-0.6,0-0.6c0-0.4-0.3-0.8-0.7-1l-0.2-0.1
			l0.2-0.1c0.6-0.4,1.4-0.7,2.1-0.7c0.8,0,1.5,0.3,2.2,0.7l0.1,0.1l-0.2,0.1c-0.4,0.2-0.6,0.6-0.6,0.9c0,0,0,0.5,0,0.6
			c0.1,0,0.5,0,0.6,0c0-0.2,0-0.6,0-0.6c0-0.3,0.2-0.5,0.5-0.5h2.7v0.1c0,0.2,0,0.4-0.1,0.7h-1.8v0.3h1.7c-0.2,0.5-0.7,0.9-1.4,0.9
			c0,0-0.5,0-0.7,0c0,0.1,0,0.5,0,0.6c0.2,0,0.7,0,0.7,0s0.3,0,0.3,0h0.3v1h-8.5v-1h0.5l0.3,0c0,0,0.5,0,0.7,0c0-0.1,0-0.5,0-0.6
			c-0.2,0-0.7,0-0.7,0c-0.7,0-1.2-0.4-1.4-0.9h1.7v-0.3h-1.8c-0.1-0.2-0.1-0.5-0.1-0.7V69.3z M20.3,78.5c0,0.5-0.5,0.9-1.1,0.9
			c-0.6,0-1.1-0.4-1.1-0.9l0.4-3.9h1.3L20.3,78.5z M20.8,71.2c-0.6,0.4-1.5,0.2-1.5,0.2s0.2-0.8,0.9-1.2c0.6-0.4,1.5-0.2,1.5-0.2
			S21.4,70.9,20.8,71.2z M20,68.6c0.6-0.5,1.4-0.4,1.4-0.4s-0.1,0.8-0.6,1.3C20.2,70,19.4,70,19.4,70S19.4,69.1,20,68.6z M19.8,67.1
			c0.4-0.5,1.2-0.6,1.2-0.6s0.1,0.8-0.4,1.3s-1.2,0.6-1.2,0.6S19.4,67.6,19.8,67.1z M18.4,64.9c1.4,0,2.6,0.5,3.5,1.3l-0.2,0.2
			c-0.7-0.4-1.4-0.6-2.3-0.6c-2.2,0-3.7,1.5-3.7,3.3c0,1.5,0.9,2.8,2.6,3.2c1.1,0.2,1.2,0.8,1.2,1.1c0,0.1,0,0.2,0,0.3h-0.9
			c0-0.3-0.4-0.6-1.3-0.8c-2.3-0.5-3.5-1.9-3.5-4C14,66.7,15.8,64.9,18.4,64.9z M18.4,68.6C19,69.1,19,70,19,70s-0.8,0.1-1.4-0.4
			c-0.6-0.5-0.6-1.3-0.6-1.3S17.8,68.2,18.4,68.6z M17.4,66.5c0,0,0.8,0.1,1.2,0.6c0.4,0.5,0.4,1.3,0.4,1.3s-0.8-0.1-1.2-0.6
			C17.3,67.3,17.4,66.5,17.4,66.5z M18.2,70.2c0.6,0.4,0.9,1.2,0.9,1.2s-0.8,0.2-1.5-0.2c-0.6-0.4-0.9-1.2-0.9-1.2
			S17.6,69.8,18.2,70.2z"/>
		<path class="st0" d="M58.5,72.3l-1.5-3.4c0.8-0.1,1.4-0.8,1.4-1.6c0-0.9-0.7-1.6-1.6-1.6c-0.6,0-1.2,0.4-1.4,0.9
			c-2,0.1-3.7-0.2-4.9-0.8c0-0.2,0.1-0.3,0.1-0.5c0-1.1-0.9-2-2-2c-1.1,0-2,0.9-2,2c0,0.2,0,0.3,0.1,0.5c-1.2,0.6-2.8,0.9-4.8,0.8
			c-0.3-0.5-0.8-0.9-1.4-0.9c-0.9,0-1.6,0.7-1.6,1.6c0,0.8,0.6,1.5,1.4,1.6l-1.5,3.4H38v0.8c0,1.6,1.3,2.8,2.8,2.8
			c0.6,0,1.1-0.2,1.5-0.5l-1.6,2.5h0l0,0l0,0l0,0l-0.2,1.2l5.3,1.1c-0.1,0.3,0.4,0.6,0.8,0.7c0.2,0.1,0.6,0.1,0.8-0.1l0.1,2.1l0-0.1
			c0,0.6,0.5,1.1,1.1,1.1c0.6,0,1.1-0.5,1.1-1.1l0,0c0,0,0,0,0,0l0.1-1.4l3,1l2.6-6.4l0-0.4c0.3,0.1,0.7,0.2,1,0.2
			c1.6,0,2.8-1.3,2.8-2.8v-0.8H58.5z M57.8,72.3H55l1.4-3.1L57.8,72.3z M54.1,74.7c-0.2,0-0.5-0.1-0.7-0.1c-0.5-0.1-0.9-0.4-1.3-0.6
			c-0.4-0.3-0.8-0.5-1.3-0.7c-0.1,0-0.3,0-0.4-0.1l0.3-4.4l5.1,0l-1.5,3.4h-0.7v0.8C53.6,73.7,53.8,74.3,54.1,74.7z M40.8,69.2
			l1.4,3.1h-2.8L40.8,69.2z M42.9,72.3l-1.5-3.4h5.1l0.3,4c-0.3,0-0.6,0-0.9-0.1c-0.7-0.2-1.1-0.4-1.1-0.4l-0.3-0.2l-0.2,0.3
			l-0.7,1.1c0-0.2,0-0.3,0-0.5v-0.8H42.9z M40.8,75.1c-1.1,0-2-0.9-2-2h4C42.8,74.2,41.9,75.1,40.8,75.1z M46.8,79.8
			c-0.2-0.5-0.5-0.9-1-1.1c-0.4-0.1-1-0.1-1.5,0c-0.6,0.1-1.3,0.1-1.9-0.1c-0.4-0.1-0.7-0.3-0.9-0.4c0.3-0.5,2.9-4.6,3.2-5.1
			c0.2,0.1,0.6,0.3,1,0.4c0.4,0.1,0.8,0.1,1.1,0.1l0.4,5.9C47.1,79.6,46.8,79.8,46.8,79.8z M48.9,82.9c0,0.2-0.1,0.3-0.3,0.3
			c-0.2,0-0.3-0.1-0.3-0.3l-1.1-14.8h-6.8c0,0,0,0,0,0c-0.4,0-0.8-0.4-0.8-0.8c0-0.4,0.4-0.8,0.8-0.8c0.4,0,0.8,0.4,0.8,0.8
			c0,0,0,0,0,0.1c1.5,0.1,4.5,0.2,6.5-1.3c-0.2-0.2-0.3-0.5-0.3-0.8c0-0.6,0.5-1.2,1.2-1.2c0.6,0,1.2,0.5,1.2,1.2
			c0,0.3-0.1,0.6-0.3,0.8c2.1,1.5,5,1.4,6.5,1.3c0,0,0,0,0-0.1c0-0.4,0.4-0.8,0.8-0.8c0.4,0,0.8,0.4,0.8,0.8c0,0.4-0.4,0.8-0.8,0.8
			c0,0,0,0,0,0h-6.8L48.9,82.9z M52.1,81.1c0,0-0.4,0-0.8-0.1c-0.3-0.1-0.9-0.6-1.5-0.9l0.5-6.2c0.1,0,0.2,0,0.3,0
			c0.4,0.1,0.7,0.3,1.1,0.5c0.4,0.3,0.8,0.6,1.5,0.7c0.4,0.1,1,0.2,1.3,0.2C54.2,76.4,52.1,81.1,52.1,81.1z M56.4,75.1
			c-1.1,0-2-0.9-2-2h4C58.4,74.2,57.5,75.1,56.4,75.1z"/>
		<path class="st0" d="M14.8,51.2c0,3.1,2.4,4.5,4.4,5.2c0,0.3,0.3,0.6,0.5,0.7c-0.1,0.1-0.2,0.2-0.3,0.3c-0.1,0.3-0.2,0.6-0.1,0.8
			c0.1,0.2,0.2,0.5,0.4,0.6c-0.5,0.3-1.3,0.9-1.3,1.7v0.6h6.3v-0.6c0-1-1-1.5-1.5-1.9c-0.1-0.1-0.2-0.2-0.3-0.2c0,0,0,0,0-0.1
			c0,0,1.1-0.3,1.1-1.1c0-0.4-0.3-0.8-0.5-0.9c0.1-0.1,0.2-0.2,0.3-0.3c0.1-0.3,0.2-0.6,0.1-0.8c0-0.2-0.1-0.3-0.2-0.4
			c0.2-0.1,0.4-0.2,0.5-0.3c0.9-0.6,2.1-1.5,2.1-3.2v-1.8h-2l0.1-0.6c0.2-0.1,0.5-0.2,0.7-0.2c0.3,0,0.6,0.2,0.8,0.2
			c0.3,0,0.4-0.2,0.4-0.2c0-0.1-0.2-0.1-0.3-0.1c-0.2,0-0.5-0.3-0.9-0.3c-0.2,0-0.4,0.1-0.6,0.1c-0.1-0.1-0.7-0.7-1-0.9h3.8v13.8
			h4.1c0,0,0-12.4,0-13.8c1.1,0,4.3,0,4.3,0v-4.1c0,0-3.1,0-4.3,0c0-1.2,0-4.9,0-4.9h-4.1v4.9h-4.3v3.9c-0.4-0.1-0.8-0.3-1-0.3
			c-0.6,0-1.3,0.1-1.3,0.1s-1-0.2-1.9-0.2C16.9,46.9,14.8,48.6,14.8,51.2z M23.9,44.2h4.3v-4.9h2.4v4.9h4.3v2.4h-4.3v14h-2.4v-14
			h-4.3V44.2z M23.9,60.5v0.1h-4.6v-0.1c0-0.5,1.1-1,1.6-1.5l1.2-0.3C22.2,59.2,23.9,59.9,23.9,60.5z M20.2,55.8l2.6-0.7
			c0.2-0.1,0.5,0.1,0.5,0.3c0.1,0.2-0.1,0.5-0.3,0.5l-2.6,0.7c-0.2,0.1-0.5-0.1-0.5-0.3C19.8,56.1,19.9,55.8,20.2,55.8z M23.1,57.7
			l-2.6,0.7c-0.2,0.1-0.5-0.1-0.5-0.3c-0.1-0.2,0.1-0.5,0.3-0.5l2.6-0.7c0.2-0.1,0.5,0.1,0.5,0.3C23.5,57.4,23.3,57.6,23.1,57.7z
			 M25.5,50.3v0.9c0,1.2-0.9,1.9-1.7,2.5c-0.3,0.2-1,0.7-1,0.7L21,54.9c-0.3-0.4-1-0.8-1.5-1.2c-0.8-0.6-1.8-1.3-1.8-2.5v-0.9H25.5z
			 M18.8,47.8c0.7,0,1.2,0,1.8,0.2c0,0,0.7-0.1,1.4-0.1c0.8,0,1.6,0.8,1.6,0.8l-0.1,0.4c0,0-0.4,0.5-1.5,0.5c-0.6,0-1.2-0.4-1.6-0.6
			c-0.5-0.2-1.1-0.2-1.6-0.2c-0.9,0-2.2,0.8-2.2,2.4c0,1.4,0.8,2.1,1.6,2.7c0.9,0.7,1.6,1,1.8,1.2l-0.1,0c-0.2,0.1-0.4,0.2-0.6,0.4
			c-1.7-0.6-3.7-1.8-3.7-4.3C15.7,49,17.4,47.8,18.8,47.8z"/>
		<path class="st0" d="M59.4,51.7c0-2.1-1.5-3.5-3.7-3.5h-2.8l-1.4-3.5c0.1-0.4,0.2-0.7,0.2-1.2c0-1.7-1.4-3-3-3c-1.7,0-3,1.4-3,3
			c0,0.4,0.1,0.8,0.2,1.2l-1.4,3.5h-2.8c-2.2,0-3.7,1.4-3.7,3.5c0,1.7,1.4,3,3,3c0.3,0,0.7-0.1,1-0.2l-1.2,3.2l-1.1,2.7
			c-0.3,0.7,0.2,0.9,0.2,0.9l0.6,0.3c0.4,0.2,0.7-0.1,0.9-0.4l0.7-1.2v0.3h0.9h11.3h0.9v-0.3l0.7,1.3c0.2,0.3,0.5,0.6,0.9,0.4
			l0.6-0.3c0,0,0.5-0.2,0.2-0.9l-1.1-2.7l-1.2-3.2c0.3,0.1,0.6,0.2,0.9,0.2C58,54.7,59.4,53.3,59.4,51.7z M48.8,41.4
			c1.2,0,2.2,1,2.2,2.2c0,1.2-1,2.2-2.2,2.2c-1.2,0-2.1-1-2.1-2.2C46.6,42.4,47.6,41.4,48.8,41.4z M41.2,53.8
			c-1.2,0-2.1-0.9-2.1-2.1c0-1.6,1.1-2.6,2.8-2.6h2.4l-0.9,2.2c-0.3-0.8-1-1.2-1.9-1.2c-0.9,0-1.6,0.7-1.6,1.5
			c0,0.8,0.6,1.4,1.4,1.4c0.2,0,0.4-0.2,0.4-0.4c0-0.2-0.2-0.4-0.4-0.4c-0.2,0-0.5-0.1-0.5-0.5c0-0.4,0.4-0.7,0.7-0.7
			c0.7,0,1.2,0.5,1.2,1.4C42.7,53.2,42.1,53.8,41.2,53.8z M40.8,60.8l-0.2-0.1c0,0,4.1-10.4,5.9-15.1c0.3,0.3,0.6,0.6,1,0.7l0.8,1.4
			L40.8,60.8z M48.4,49.1h0.6l1.5,2.6h-3.7L48.4,49.1z M44.6,59.5h-1.5v-1.1l1.5-2.6V59.5z M52,59.5h-1.5v-5.6
			c0-0.3-0.2-0.5-0.5-0.5c-0.3,0-0.5,0.2-0.5,0.5v5.6H48v-5.6c0-0.3-0.2-0.5-0.5-0.5c-0.3,0-0.5,0.2-0.5,0.5v5.6h-1.5v-5.4l0.9-1.5
			h4.7l0.9,1.5V59.5z M54.4,59.5h-1.5v-3.7l1.5,2.6V59.5z M56.9,60.7l-0.2,0.1l-8.1-14.2c0.1,0,0.1,0,0.2,0c0.9,0,1.7-0.4,2.3-1
			C52.8,50.2,56.9,60.7,56.9,60.7z M54.8,52.3c0-0.8,0.4-1.4,1.2-1.4c0.4,0,0.7,0.2,0.7,0.7c0,0.4-0.3,0.5-0.5,0.5
			c-0.2,0-0.4,0.2-0.4,0.4c0,0.2,0.2,0.4,0.4,0.4c0.8,0,1.4-0.6,1.4-1.4c0-0.9-0.7-1.5-1.6-1.5c-0.9,0-1.6,0.5-1.9,1.2l-0.9-2.2h2.4
			c1.7,0,2.8,1,2.8,2.6c0,1.2-1,2.1-2.1,2.1C55.5,53.8,54.8,53.2,54.8,52.3z"/>
		<path class="st0" d="M22.2,48.8c0.1,0,0.2-0.1,0.2-0.2c0-0.1-0.1-0.2-0.2-0.2c-0.1,0-0.2,0.1-0.2,0.2C22,48.7,22.1,48.8,22.2,48.8
			z"/>
		<path class="st0" d="M47.9,22.7c0,0.3,0.3,0.8,0.4,0.9c0.3,0.2,0.8,0.4,0.9,0.4l0,0c0-0.1,0-0.3,0-0.4c0-1.6,1.5-2.6,1.5-2.6
			s0.1-0.2,0.1-0.3l-0.2-1.1c0-0.1,0-0.2-0.2-0.2l-0.9,0.2c-0.9,1.1-1.7,1.6-1.8,1.7C48,21.8,47.9,22.3,47.9,22.7z M48.5,21.5
			c0.7-0.5,1.1-1,1.4-1.3l0.1,0l0.2,0l0,0.1c0,0.1,0,0.3,0.1,0.4l0,0l0,0c-0.6,0.5-1.3,1.1-1.5,2.2l0,0.2l-0.1-0.2l0-0.1
			c0-0.1,0-0.4,0-0.4c0,0,0-0.1,0-0.1C48.5,22,48.5,21.8,48.5,21.5L48.5,21.5L48.5,21.5z"/>
		<path class="st0" d="M51.3,18.8c0.1,0.3,0.1,1.6,0.1,1.6c0.1-0.1,0.5-0.5,0.5-0.9c0-0.7-0.2-1.5-0.2-1.5c0-0.1-0.6-0.8-0.9-0.8
			c-0.1,0-0.3,0.2-0.4,0.5c-0.1,0.3-0.4,0.7-0.5,0.8l0,0.1C50.3,18.6,51.2,18.6,51.3,18.8z"/>
		<path class="st0" d="M16.7,26l0.7,0.9c0.4-0.3,0.8-0.6,1.2-0.8c0-0.1,0-0.1,0-0.2c0-0.1,0-0.3,0.1-0.4c0.1-0.3,0.3-0.5,0.6-0.7
			c0.2-0.1,0.3-0.1,0.5-0.1c0.3,0,0.7,0.2,0.9,0.4c0.4-0.1,0.9-0.3,1.3-0.3l-0.2-1.1c-0.9,0.2-1.8,0.5-2.7,0.9
			C18.2,24.9,17.3,25.4,16.7,26z"/>
		<path class="st0" d="M15,23.8l0.7,0.9c0.5-0.4,1.1-0.8,1.8-1.2c0,0,0-0.1,0-0.1c0-0.5,0.3-0.9,0.7-1.1c0.2-0.1,0.3-0.1,0.5-0.1
			c0.3,0,0.7,0.1,0.9,0.4c0.6-0.2,1.3-0.4,1.9-0.5c0-0.1-0.2-1.1-0.2-1.1c-1.1,0.2-2.2,0.6-3.3,1C16.8,22.5,15.8,23.1,15,23.8z"/>
		<path class="st0" d="M16.3,21c0,0,0-0.1,0-0.1c0-0.5,0.3-0.9,0.7-1.1c0.2-0.1,0.3-0.1,0.5-0.1c0.3,0,0.6,0.1,0.9,0.4
			c0.8-0.3,1.6-0.6,2.5-0.7c-0.1-0.5-0.2-0.7-0.2-0.9c0,0-0.1,0-0.2,0c-0.3,0-0.7,0.1-1.1,0.2l-0.2,0c-0.3,0.1-0.7,0.2-1.2,0.2
			c-0.6,0-1.1-0.2-1.4-0.6c-0.2-0.2-0.2-0.2-0.2-0.2c0,0-0.1,0-0.1,0c-0.1,0.1-0.1,0.1-0.1,0.2c0,0.1,0,0.1,0,0.2c0,0.1,0,0.2,0,0.3
			c0,1-0.9,1.7-1.4,2l-0.1,0.1c-0.7,0.5-0.9,0.8-1,0.9c0.1,0.1,0.2,0.4,0.5,0.7C14.7,21.9,15.4,21.4,16.3,21z"/>
		<path class="st0" d="M41.2,21.7c0.5,0.1,1.4,0.4,1.4,0.4c0.3-1.2,1.1-1.9,1.4-2.1c-0.3-0.3-0.9-1-1.4-1.8
			c-0.6,0.3-1.2,0.5-1.5,0.6c0.1,0.3,0.2,1,0.2,2C41.3,21.1,41.3,21.5,41.2,21.7z M42.4,18.8c0.3,0.4,0.6,0.8,0.9,1.1
			c0,0-0.6,0.4-1,1.5c-0.2-0.1-0.3-0.1-0.5-0.1c0-0.2,0-0.4,0-0.6c0-0.5-0.1-1.1-0.1-1.6C41.9,19,42.2,18.9,42.4,18.8z"/>
		<path class="st0" d="M29.4,20c0.3,0.2,1.1,0.9,1.4,2.1c0.3-0.1,0.9-0.2,1.4-0.4c0-0.2-0.1-0.5-0.1-1c0-1,0.1-1.7,0.2-2
			c-0.3-0.1-0.9-0.3-1.5-0.6C30.3,18.9,29.7,19.7,29.4,20z M31.7,19.1c-0.1,0.5-0.1,1.1-0.1,1.6c0,0.2,0,0.4,0,0.6
			c-0.2,0.1-0.3,0.1-0.5,0.1c-0.4-1.1-1-1.5-1-1.5c0.3-0.3,0.6-0.7,0.9-1.1C31.2,18.9,31.5,19,31.7,19.1z"/>
		<path class="st0" d="M30.2,25.6c1.9-0.3,3.2-0.9,3.7-1.2c-0.3-0.3-0.9-0.9-1.3-1.8c-0.2,0.1-0.7,0.2-1.6,0.4
			C31,24.3,30.5,25.1,30.2,25.6z M31.4,23.4c0.3-0.1,0.6-0.2,0.8-0.2c0.2,0.4,0.4,0.7,0.7,1c-0.5,0.2-1,0.4-1.9,0.6
			C31.3,24.4,31.4,23.9,31.4,23.4z"/>
		<path class="st0" d="M35.5,24.5c0.2,0.2,0.7,0.5,1.2,0.7c0.5-0.2,1-0.6,1.2-0.7c-0.3-0.2-0.8-0.7-1.2-1.4
			C36.3,23.8,35.8,24.3,35.5,24.5z M36.7,24c0.1,0.1,0.2,0.3,0.4,0.4c-0.1,0.1-0.3,0.2-0.4,0.2c-0.1-0.1-0.2-0.1-0.4-0.2
			C36.5,24.3,36.6,24.2,36.7,24z"/>
		<path class="st0" d="M30.5,16.9c0.2-0.3,0.7-1.3,0.7-2.1c0-0.4-0.3-1-0.8-1c-0.5,0-1,0.7-1,1.5C29.4,16.2,30.1,16.7,30.5,16.9z
			 M30.4,14.3c0.2,0,0.3,0.4,0.3,0.5c0,0.2-0.1,0.7-0.4,1.3c-0.3-0.3-0.4-0.6-0.4-0.8C29.9,14.8,30.2,14.3,30.4,14.3z"/>
		<path class="st0" d="M43.3,25.6c-0.3-0.4-0.8-1.3-0.8-2.5c-0.9-0.2-1.3-0.4-1.6-0.4c-0.4,0.9-1,1.5-1.3,1.8
			C40,24.7,41.4,25.2,43.3,25.6z M41.1,23.2c0.3,0.1,0.6,0.2,0.8,0.2c0,0.5,0.1,1,0.3,1.4c-0.8-0.2-1.4-0.4-1.9-0.6
			C40.7,23.9,40.9,23.6,41.1,23.2z"/>
		<path class="st0" d="M34.1,21.1c0.1,0,0.1,0,0.2-0.1c0,0,0,0,0-0.1c0-0.2,0.2-0.4,0.4-0.5c0,0,0.1,0,0.1,0c0.2,0,0.4,0.1,0.5,0.4
			c0.1,0.5-0.2,0.9-0.8,1.2l-1,0.3c0.3,0.5,0.7,1.1,1.2,1.5c0.9-0.7,1.4-1.5,1.4-2.4c0-1.3-1.4-1.9-2.9-2.4
			c-0.1,0.5-0.2,1.1-0.2,1.6c0,0.2,0,0.5,0.1,0.7L34.1,21.1z M35.7,21.4c0,0,0.1,0.8-0.9,1.8c-0.2-0.2-0.3-0.4-0.5-0.6
			C35.6,22.3,35.7,21.4,35.7,21.4z M33.7,19.8c0.6,0.2,1.2,0.4,1.2,0.4s-0.6-0.1-1,0.5c-0.1,0-0.1,0-0.2,0.1c0,0,0,0,0-0.1
			C33.6,20.4,33.6,20.1,33.7,19.8z"/>
		<path class="st0" d="M44,15.3c0-0.8-0.5-1.5-1-1.5c-0.5,0-0.8,0.6-0.8,1c0,0.8,0.5,1.7,0.7,2.1C43.3,16.7,44,16.2,44,15.3z
			 M43,14.3c0.2,0,0.5,0.5,0.5,1c0,0.2-0.1,0.5-0.4,0.8c-0.3-0.6-0.4-1-0.4-1.3C42.8,14.7,42.9,14.3,43,14.3z"/>
		<path class="st0" d="M38.7,23.9c0.5-0.5,1-1,1.2-1.5l-1-0.3c-0.6-0.2-0.9-0.7-0.8-1.2c0.1-0.2,0.3-0.4,0.5-0.4c0,0,0.1,0,0.1,0
			c0.2,0.1,0.4,0.2,0.4,0.5c0,0,0,0,0,0.1c0,0,0.1,0,0.1,0.1l1,0.3c0.1-0.2,0.1-0.5,0.1-0.7c0-0.6-0.1-1.1-0.2-1.6
			c-1.5,0.5-2.9,1.1-2.9,2.4C37.3,22.4,37.8,23.2,38.7,23.9z M39.8,19.8c0,0.3,0.1,0.6,0.1,0.9c0,0,0,0,0,0.1
			c-0.1,0-0.2-0.1-0.2-0.1c-0.4-0.6-1-0.5-1-0.5S39.2,19.9,39.8,19.8z M37.7,21.4c0,0,0.1,0.9,1.4,1.2c-0.1,0.2-0.3,0.4-0.5,0.6
			C37.6,22.3,37.7,21.4,37.7,21.4z"/>
		<polygon class="st0" points="55.6,25.1 55.8,23.6 57.3,23.3 55.9,22.6 56.1,21.1 55,22.2 53.6,21.5 53.6,21.5 54.3,22.9 53.2,24 
			54.8,23.7 		"/>
		<path class="st0" d="M50.6,22.7c-0.1,0.2-0.2,0.5-0.2,0.8c0,0.6,0.3,1.2,0.8,1.6c0,0,0.7,0.5,0.7,0.5c0.5,0.3,0.9,0.6,1.2,1
			l0.1,0.1l0.3,0c0.4,0,1,0.2,1.4,0.3l0.8,0.2c0.2,0,0.3,0.1,0.5,0.1c0.5,0,1-0.2,1.3-0.5c0.2-0.2,0.4-0.4,0.5-0.6
			c0.2-0.3,0.2-0.7,0.2-1.1l0-0.6c0-0.3,0-0.6,0.1-1c0-0.1,0-0.1,0-0.2l0,0l0.1-0.2c0.2-0.5,0.7-0.8,1.1-1l0.2-0.2l-0.1-0.8l-0.2,0
			c-0.4-0.1-0.8-0.2-0.9-0.3c-0.2-0.1-1.2-0.7-1.2-1.4c0,0,0-0.1,0-0.2c0-0.1,0-0.2,0-0.3c0-0.4-0.2-0.5-0.4-0.5
			c-0.1,0-0.2-0.1-0.3-0.1c-0.2,0-0.4,0.2-0.5,0.3c-0.2,0.2-0.5,0.4-0.9,0.4c-0.3,0-0.7-0.1-0.9-0.2c-0.1,0-0.5-0.2-0.9-0.5
			l-0.2-0.2l-0.2,0.1c0,0-0.2,0.1-0.3,0.2l-0.2,0.1l0,0.2c0,0.2,0.1,0.5,0.1,0.8c0,0.3,0,0.5-0.1,0.7l-0.1,0.2
			c0,0.1-0.1,0.1-0.1,0.2c-0.3,0.4-0.6,0.7-1,0.9C51.2,22,50.8,22.2,50.6,22.7z M53.1,20.9c0.5-0.8,0.3-1.9,0.3-1.9l0,0
			c0.4,0.3,0.8,0.4,0.9,0.5c0.3,0.1,0.7,0.2,1.1,0.2c0.6,0,1-0.2,1.3-0.6c0.1-0.1,0.1-0.1,0.1-0.1c0,0.1,0,0.1,0,0.2
			c0,0.1,0,0.2,0,0.2c0,1.1,1.1,1.8,1.5,2c0.1,0.1,0.4,0.2,0.8,0.3l0,0c0,0-0.7,0.3-1.2,1.3c-0.6,1.1-0.1,2.4-0.4,3
			c-0.4,0.7-0.9,0.8-1.3,0.8c-0.1,0-0.3,0-0.4,0l-0.8-0.2c-0.5-0.1-1-0.3-1.6-0.3l0,0c-0.3-0.4-0.7-0.7-1.2-1c0,0-0.7-0.5-0.7-0.5
			c-0.4-0.3-0.9-1-0.5-1.7C51.6,22.2,52.4,21.9,53.1,20.9z"/>
		<path class="st0" d="M27,24.3c0.4,0,0.4-0.5,0.5-0.6c0.2-0.2,0.6-0.1,0.6-0.6c0-0.4-0.5-0.4-0.6-0.6c-0.2-0.2-0.1-0.6-0.5-0.6
			c-0.3,0-0.4,0.2-0.4,0.5v1.3C26.6,24.1,26.7,24.3,27,24.3z"/>
		<path class="st0" d="M12.6,29c-0.2-0.2-0.5-0.2-0.7,0c-0.3,0.3,0.1,0.6,0.2,0.8c0,0.2-0.3,0.6,0,0.8c0.3,0.3,0.6-0.1,0.8-0.1
			c0.2,0,0.6,0.3,0.8,0c0.2-0.2,0.1-0.5-0.1-0.7L12.6,29z"/>
		<path class="st0" d="M66.9,41.6c1-0.2,1.9-1.2,1.9-2.4c0-0.7-0.3-1.8-1.7-2.7c-0.2-0.1-0.4-0.2-0.6-0.3c1-0.4,1.6-1.1,1.6-2.1
			c0-0.7-0.5-1.2-1.2-1.2c-0.3,0-0.6,0.1-0.9,0.4c-0.2,0.2-0.3,0.5-0.3,0.7c-0.1,0.1-0.5,0.2-1.5,0.2c-0.4,0-0.8-0.1-1.2-0.2
			c0.2-0.1,0.9-0.7,1.2-0.9c0.3-0.2,1-0.4,1.3-1c0.8-1.4,1.1-2.1,1.4-3.4c0.2-0.6,0.2-1.2,0.2-1.8c0-0.5-0.1-0.9-0.1-1.2L66.9,25
			c0-0.4-0.1-1.6-1.1-1.9c0,0-1.7-2.6-1.8-2.7c-0.1-0.1-0.1-0.1-0.2,0c-0.1,0.1-0.7,0.9-0.7,0.9c-0.2,0-0.5,0-0.7,0.2
			c0-0.1-0.1-0.1-0.2-0.2c-0.1,0-0.1-0.1-0.2-0.1l-0.3-2l-0.2,0c0,0-1.1,0.2-1.1,0.2c0,0-0.3-0.1-0.6-0.2c-0.1,0-0.2-0.2-0.3-0.3
			c0-0.1,0-0.2,0-0.3c0-1-0.5-1.7-1.3-2.1c-0.6-0.3-1.6-0.5-2.7,0.5c-0.1,0-0.2,0-0.4-0.1c-0.3-0.1-0.4-0.3-0.5-0.3l-0.7-1.2l-1.6,1
			c-1-0.8-1.4-1.1-2-0.8c-0.2,0.1-0.4,0.2-0.6,0.5c0.1-0.1,0.1-0.3,0.1-0.4c0-0.6-0.5-1.2-1.1-1.2c-0.1,0-0.2-0.1-0.2-0.1
			c-0.1-0.3-0.5-1.3-0.6-1.3c0-0.1-0.2-0.1-0.3,0c-0.1,0.1-1.9,1.5-1.9,1.5c-0.2-1.2-1.1-2-2.1-2.2v-1.8h-0.9v0c0-2.5-1.7-4.3-4-4.3
			c-0.1,0-0.2,0-0.4,0V4.6H40V1.8h-1.8V0h-2.9v1.8h-1.8v2.8h1.8v1.7c-0.2,0-0.4-0.1-0.6-0.1c-2.4,0-4,1.8-4,4.3h-1.1v1.8
			c-1.1,0.3-1.9,1.3-2,2.6l-0.8-0.7c0,0-1.6-1.3-1.6-1.3l-0.2-0.1l-3.3,3.9c-0.4-0.3-0.9-0.4-1.5-0.4c-1.1,0-2.2,0.4-2.4,0.4
			c-1.1-1.1-2.2-0.8-2.8-0.6c-0.6,0.3-1.4,0.9-1.4,2.1c0,0.1,0,0.2,0,0.3c-0.1,0.1-0.2,0.2-0.4,0.3c0,0-0.2,0.1-0.2,0.1
			c-1.2,0.9-1.8,1.7-1.9,2.5H6.1l0,4.8h3.6c-0.2,0.2-1.6,1.3-1.6,3.5c0,2.6,2.1,3.9,2.4,4C10.1,34,9.7,34,9.3,34
			c-1,0-1.4-0.1-1.5-0.2c-0.1-0.6-0.6-1.1-1.2-1.1c-0.7,0-1.2,0.6-1.2,1.2c0,1.5,1.2,2,1.6,2.1c-0.2,0.1-2.3,1-2.3,3
			c0,1.3,0.9,2.2,1.9,2.4C2.4,47.6,0,54.9,0,62.7C0.1,83,16.7,99.3,36.9,99.2c20.2-0.1,36.6-16.7,36.5-36.9
			C73.4,54.6,71,47.5,66.9,41.6z M64.6,30.2c-0.1,1-0.6,1.9-1.4,2.6c-0.7,0.5-1.4,0.9-2.2,0.9c0.8,0.5,1.9,1,3.2,1
			c2,0,2.2-0.4,2.2-0.8c0-0.1,0.1-0.3,0.1-0.3c0.1-0.1,0.2-0.1,0.3-0.1c0.3,0,0.5,0.2,0.5,0.5c0,1.7-2.2,1.7-3.2,1.7l-0.4,0
			c0.2,0.1,0.6,0.3,0.6,0.3c1.4,0.6,1.4,0.6,1.4,0.6c0.3,0.1,0.6,0.2,0.9,0.4c0.9,0.6,1.4,1.3,1.4,2.1c0,0.9-0.6,1.8-1.6,1.8
			c-0.9,0-1.5-0.7-1.5-1.6c0-0.3,0.2-0.5,0.5-0.5c0.3,0,0.5,0.2,0.5,0.5c0,0.5,0.3,0.6,0.5,0.6c0.3,0,0.6-0.3,0.6-0.8
			c0-0.5-0.3-0.9-0.9-1.2c-0.3-0.2-0.4-0.2-0.8-0.4L64,36.9c0,0-1.5-0.8-1.7-0.9h0l0,0c-1-0.6-1.9-1.3-2.8-2.1L59,33.6l0.1-0.1
			c0,0,0.6,0.2,0.8,0c0.2-0.2,0.1-0.8,0.1-0.8l0.2,0c0,0,0.1,0,0.1,0c0.1,0,0.1,0,0.2,0c0.9,0,1.7-0.5,2-0.7c0.6-0.5,1-1.2,1.1-2
			c0-0.1,0-0.2,0-0.3c0-0.8-0.3-1.4-0.6-1.7c-0.1-0.1-0.2-0.3-0.2-0.5c0-0.1,0-0.2,0.1-0.3c0.1-0.1,0.2-0.1,0.3-0.1
			c0.2,0,0.3,0.1,0.5,0.3c0.5,0.6,0.8,1.4,0.8,2.3C64.6,29.9,64.6,30,64.6,30.2z M64.6,38.7c-0.5-0.6-0.7-0.8-1.2-1.4L65,38
			c0.3,0.1,0.4,0.2,0.4,0.2C64.9,38.3,64.7,38.6,64.6,38.7z M46.1,15.1l0.5,0.1l-0.1-0.4l0.4,0.2l0-0.5l0.3,0.3l0.1-0.5l0.3,0.7
			c0.2,0,0.4,0.1,0.6,0.3c0.1,0,0.5,0,0.6,0.3c0.1,0.4-0.7,0.5-0.7,0.6c0,0.1,0.2,0.2,0.4,0.3c0.3,0.2,0.9,0.8,1,1
			c0.1-0.1,0.3-0.4,0.4-0.5c0.1-0.1,0.5-0.6,0.6-0.6c0.3-0.1,0.6,0.3,0.8,0.5c0.4,0.2,0.6,0.6,0.7,0.7l1.4-0.9c0,0,0.5,1.2,1.9,1.2
			c0.2,0,0.4,0,0.5-0.1c0.5-0.6,1.1-0.8,1.8-0.5c0.7,0.3,0.9,0.9,0.8,1.7c-0.1,0.4,0.6,0.9,0.8,1c0.4,0.2,0.8,0.3,1.1,0.3l0.4-0.1
			l0.3,2.2c-1.7,0.9-1.8,0.9-1.8,2.7c0,0.6,0,1.2-0.3,1.8c-0.2,0.3-0.4,0.6-0.7,0.9c0,0-0.1,0-0.1,0.1c0,0.1,0,0.1,0,0.2l0.5,0.8
			c0.1-0.1,0.9-0.7,1-0.9c0.1-0.1,0-1.1,0-1.1s0.2-0.4,0.2-1.8c0-1.2,0.1-1.5,0.5-1.8c0.2-0.2,0.7-0.5,1-0.6c-0.1,0.5-0.8,0.7-0.8,1
			c0,0.2,0.1,0.4,0.2,0.4l0.1-0.1c0.2-0.1,0.4-0.1,0.4-0.1c0.2-0.2,0.5-0.4,0.7-0.4c0.3,0,0.6,0.1,0.7,0.2l0.1-0.2
			c-0.1-0.1-0.2-0.3-0.2-0.5c0-0.2-0.2-0.4-0.5-0.3l0.1-0.2c0.1-0.2,0.4-0.2,0.5-0.2c0.2,0,0.3-0.1,0.5,0l0.4-0.5l0.1,0.4l0.3,0
			l0,0.3l0.3,0l-0.1,0.3l0.3,0.2l-0.6,0.2c0,0.3-0.1,0.7-0.5,1.1c0,0,0,0.1,0.1,0.2c0,0.5-0.5,0.7-0.6,0.8L63,25.7
			c0.1,0.1,0.3,0.2,0.4,0.2c1.2-0.1,1.1-1.9,1.8-1.9c0.7,0,0.8,0.7,0.8,1.2c0.1,0.9,0.4,1.5,0,3.2c-0.2,1-0.5,1.7-1,2.6
			c0.1-0.2,0.1-0.5,0.1-0.8l0-0.4c0-1-0.3-2-0.9-2.7c-0.3-0.4-0.7-0.5-0.9-0.5c-0.3,0-0.5,0.1-0.7,0.3c-0.2,0.2-0.2,0.4-0.2,0.6
			c0,0.3,0.1,0.6,0.3,0.8c0.2,0.2,0.4,0.8,0.4,1.4l0,0.2c-0.1,0.6-0.3,1.1-0.8,1.5c0,0,0-0.1,0-0.1c0.1-0.3,0.2-0.6,0.3-0.9
			c0,0,0.1-0.4,0.1-0.6c0-0.2,0.2-0.6,0.2-0.8c-0.2,0.1-0.7,0.7-1.1,0.7c-0.1,0-0.2,0-0.2,0c0,0.2,0,0.6,0,0.8
			c0,0.1-0.3,1.5-0.3,1.5c0,0,0,0,0,0l-0.5,0.1c0,0,0,0,0,0c0,0-0.3-0.3-0.4-0.3l0.2-1.3l-0.4,0.9c0,0-0.1-0.2-0.2-0.4
			C60,31,59.9,31,59.9,31l-0.7,1.2c0.1,0.1,0.4,0.4,0.4,0.8l-0.2,0.1c0-0.1-0.3-0.4-0.5-0.4c-0.2,0-0.5,0.3-0.5,0.4L58.3,33
			c0,0,0.1-0.2,0.2-0.4c-0.1,0-0.2,0-0.3,0c-0.2,0-0.5,0.2-0.6,0.2l0-0.1c0,0,0.3-0.3,0.6-0.3c0-0.1-0.1-0.1-0.2-0.1
			c-0.1,0-0.3,0-0.3,0l0-0.1c0,0,0.2-0.1,0.3-0.1c0.3,0,0.5,0.2,0.8,0.2l0.7-1.3c0-0.5,0.2-0.6,0.2-1c0-0.1,0-0.3,0-0.3
			c-0.1,0-0.8,0.3-0.9,0.3c-0.2,0-0.1-0.5-0.1-0.6l-0.4-0.7c-0.3,0.1-0.6,0.1-0.9,0.1l-0.1-0.1c0,0,0,0,0,0c-0.5,0.1-1,0.1-1.5,0
			l0,0l-1.1-0.3C54.3,28.1,54,28,53.8,28c-0.3,0.1-0.8,0.5-0.9,0.6c-0.1,0.1-0.3,0.1-0.4,0.1c-0.1-0.1-0.2-0.2-0.2-0.4
			c0-0.1,0.1-0.6-0.1-1c-0.2-0.2-0.4-0.4-0.7-0.5L50.5,26l-0.1,0c-0.5-0.4-0.8-0.9-1-1.4l-0.1,0l-0.2-0.2l-0.6-0.1
			c0,0-0.6-0.7-1-0.8l-0.2-0.2c0,0,0-0.3,0-0.5c-0.1-0.2-0.2-0.3-0.3-0.3c-0.1,0.1-0.4,0.5-0.6,0.8c-0.2,0.3-0.6,0.7-0.7,0.8
			c0.1,0.5,0.2,0.9,0.2,1.4c0,0,0.1,0.1,0.2,0.3c0.1,0.1,0.4,0.5,0.5,0.6c0,0.1,0,0.2-0.1,0.2c-0.2,0.1-0.4-0.1-0.5-0.1l-0.1-0.1
			l-0.1-0.3l-0.3-0.3c-0.1-0.4-0.1-0.8-0.2-1.2C45.1,24.3,45,24,45,24l0-0.2c0.2-0.3,0.6-0.9,0.5-1.2c0-0.1-0.2-0.2-0.3-0.3
			c-0.1-0.1-0.2-0.2-0.3-0.4c-0.2,0.1-0.5,0.1-0.7-0.3c0-0.1,0-0.2,0-0.3c0.1-0.2,0.3-0.2,0.2,0c0,0,0,0.1,0,0.1
			c0,0.1,0.2,0.1,0.4,0c0-0.3,0.1-0.6,0.2-0.8c0.2-0.4,0.7-0.7,0.7-0.7c0,0,0.2-0.3,0.5-0.6c0.2-0.1,0.3-0.3,0.5-0.4
			c0.6-0.5,1-1,1-1.1l-0.1-0.5c-0.3-0.3-0.7-0.6-0.8-1c0-0.1,0-0.1,0-0.2c-0.2,0-1-0.2-1.1-0.5l0.7-0.1L46.1,15.1z M55.5,29.5
			c-0.4-0.6,0.6-0.8,0.8-0.6c0.5,0.7,1.1,1.5,1.8,2.2l0.2,0.3H58c-0.2,0-0.5,0.1-0.6,0.2l-0.1,0.1l-0.1-0.1
			C56.5,30.8,56,30.1,55.5,29.5z M56.5,31.6c-1.4-0.9-2.8-1.7-4.2-2.4c0.4,0.1,0.8-0.1,1.1-0.3c0.2-0.2,0.3-0.3,0.4-0.3
			c0.1,0,0.3,0.1,0.4,0.1c0.2,0.3,0.6,0.7,0.9,1.1C55.5,30.4,56,31,56.5,31.6z M57.2,29.2c0.2,0,0.4,0,0.6,0c0,0.1,0.1,0.1,0.1,0.2
			c0,0.2,0,0.6,0.3,0.8l0.6,0.2c0,0-0.1,0.2-0.2,0.3C58,30.3,57.6,29.7,57.2,29.2z M47.1,26.7c0-0.1,0.1-0.2,0.1-0.3
			c0-0.1,0-0.2,0-0.3l0,0l0,0V26c0,0,2,0,2.6,0c0.6,0,0.7,0.9,0.2,0.9L47,26.9L47.1,26.7z M46.7,25.4c0,0-0.1-0.2-0.2-0.2
			c0-0.3-0.1-0.6-0.1-0.9c0,0,0-0.1,0-0.3c0.2-0.2,0.4-0.5,0.4-0.5l0,0.3c0,0.1,0.2,0.3,0.2,0.3s0.1,0,0.2,0c0,0,0.1,0.1,0.2,0.1
			l0.7,0.6c0,0,0.4,0.1,0.6,0.1c0,0,0,0,0,0c0.1,0.1,0.2,0.3,0.2,0.4C48.4,25.4,47.6,25.5,46.7,25.4z M49.8,27.4c0.5,0,1.1,0,1.4,0
			c0.1,0.1,0.3,0.2,0.4,0.3c0,0.1,0,0.4,0,0.7c0,0.3,0.2,0.7,0.5,0.9c-1.5-0.7-3-1.3-4.5-1.7C48.4,27.4,49.2,27.4,49.8,27.4z
			 M44.6,24.8C44,24.3,44,23.5,44,23.1c0,0,0,0,0,0c0-0.2,0-0.5,0.1-0.7c0.2,0.1,0.4,0.2,0.6,0.2c0.1,0.1,0.2,0.2,0.2,0.2
			c-0.1,0.3-0.5,0.7-0.5,0.7l-0.1,0.6C44.3,24.1,44.5,24.5,44.6,24.8z M46.4,16.7c0.2,0.4,0.4,0.7,0.7,1c0,0,0,0,0,0
			c-0.1,0.2-0.7,0.7-1.1,1c-0.4,0-0.8,0.1-1,0.2c-0.2-0.3-0.5-0.6-0.8-1.1c1.1-0.8,1.3-1.7,1.3-1.7S45.9,16.6,46.4,16.7z M34.8,7.1
			c0.6,0,1,0.1,1.4,0.3V3.7h-1.8V2.6h1.8V0.8h1.2v1.8h1.8v1.1h-1.8v3.6c0.3-0.1,0.7-0.2,1.2-0.2c1.8,0,3.1,1.4,3.1,3.4c0,0,0,0,0,0
			h-1.2c0-1.1-0.7-2.3-2.1-2.3c-0.8,0-1.4,0.6-1.7,1c-0.3-0.5-0.8-1-1.7-1c-1.5,0-2.1,1.2-2.1,2.3h-1.2c0,0,0,0,0,0
			C31.7,8.4,33,7.1,34.8,7.1z M30.4,11.2h12.5v1H30.4V11.2z M36.7,16.8c-1.4,0-3.4-1.9-4.4-4h1.3c0.8,1.5,2.1,2.9,3.1,2.9
			s2.3-1.3,3.1-2.9h1.3C40.1,14.9,38.2,16.8,36.7,16.8z M41.4,17.1c-0.1,0-0.2,0.1-0.2,0.1c-0.2-0.5-0.5-1-0.8-1.5
			c0.1-0.2,0.3-0.3,0.4-0.5C40.8,15.7,41,16.3,41.4,17.1z M38.9,17c0.2,0.3,0.3,0.5,0.4,0.8c-0.9,0.3-1.9,0.8-2.6,1.5
			c-0.7-0.7-1.6-1.1-2.6-1.5c0.1-0.3,0.3-0.6,0.4-0.8c0.7,0.5,1.5,0.8,2.2,0.8C37.4,17.8,38.2,17.5,38.9,17z M33.1,15.6
			c-0.3,0.5-0.6,1-0.8,1.6c-0.1,0-0.2-0.1-0.2-0.1c0.4-0.7,0.6-1.4,0.6-2C32.8,15.2,32.9,15.4,33.1,15.6z M30.4,12.9
			c1,0,1.8,1,1.8,2c0,1-0.6,2.1-0.8,2.5c0.4,0.2,0.8,0.3,1.2,0.5c0.1-0.4,0.5-1.2,1-2.1l0.1-0.2l0.1,0.1c0.2,0.2,0.3,0.3,0.5,0.5
			l0.1,0.1l-0.1,0.1c-0.5,0.8-0.8,1.5-0.8,1.7c1.2,0.4,2.6,1,3.2,1.9c0.7-1,2-1.5,3.2-1.9c-0.2-0.5-0.5-1.2-0.8-1.7L39,16.3l0.1-0.1
			c0.2-0.1,0.3-0.3,0.5-0.5l0.1-0.1l0.1,0.2c0.6,0.9,0.9,1.7,1,2c0.5-0.2,1-0.4,1.2-0.5c-0.2-0.4-0.8-1.5-0.8-2.5c0-0.9,0.8-2,1.8-2
			c1.1,0,2,1.1,2,2.4c0,1-0.5,1.8-1.5,2.4c0.6,0.9,1.2,1.5,1.4,1.8c0.1,0,1-0.3,1-0.3l-0.6,0.5c-0.7,0.5-0.8,1-0.8,1h-0.1
			c-0.4,0-0.7,0.4-0.7,0.8c0,0,0,0.1,0,0.1l0,0.1l0,0.1c-0.2,0.4-0.3,0.9-0.3,1.4c0,0.2,0,1.8,1.4,2.5l0.1,0L45,26
			c0.1,0.1,0.3,0.3,0.3,0.3l0.2,0.4l0.2,0.2l-0.4,0c-4.1-0.3-6.1-1.4-6.5-1.7c-0.4,0.3-1.7,1.1-2.1,1.1c-0.4,0-1.7-0.9-2.1-1.1
			c-0.6,0.3-3.6,1.8-8.3,1.8c-0.8,0-1.7,0-2.4,0c-0.2,0-0.3-0.9,0-0.9c0.3,0,1.9,0,2.7,0h0.2c2.2,0,3-1.5,3-2.8
			c0-0.8-0.3-1.6-0.8-2.1c-0.6-0.6-1.4-0.8-1.9-0.8c-1.9,0-2.9,1.2-2.9,1.2c-0.1,0.1-0.2,0.2-0.4,0.2c-0.1,0-0.2,0-0.3-0.1
			c-0.1-0.1-0.2-0.2-0.2-0.3c0-0.1,0-0.3,0.1-0.4c0.1-0.1,1.3-1.6,3.7-1.6c0.6,0,1,0.2,1.3,0.3c0.6-0.7,1.2-1.4,1.4-1.8
			c-0.4-0.2-1.5-1-1.5-2.4C28.4,14,29.3,12.9,30.4,12.9z M21.1,28.3c0,0.1-0.1,0.3-0.2,0.4c-0.1,0.1-0.3,0-0.4-0.1
			c0,0-0.5-0.5-1-0.6c0.4-0.3,1.2-0.7,1.8-0.8C21.1,27.6,21.1,28.3,21.1,28.3z M21.2,29.2c-1.5,0.7-2.9,1.5-4.3,2.4
			c0.6-0.7,1-1.3,1.4-1.7c0.3-0.4,0.9-1.1,1-1.2c0.3-0.1,0.7,0.3,0.7,0.4C20.3,29.3,20.8,29.4,21.2,29.2z M21.8,28.3
			c0,0,0-0.2,0-0.3c0-0.2,0-0.5,0.2-0.6c0.2,0,1.1,0,1.6,0c0.6,0,1.4,0,2.2,0c-1.6,0.5-3.1,1.1-4.5,1.8C21.6,29,21.8,28.7,21.8,28.3
			z M23.2,22.5L23.2,22.5l2.4-0.1c0-0.1,0-0.1,0-0.1c0-0.8,0.7-1.5,1.5-1.5c0.9,0,1.3,0.8,1.4,1c0.2,0.1,1,0.4,1,1.4
			c0,1-0.8,1.3-1,1.4c-0.1,0.2-0.4,1-1.4,1c-0.9,0-1.5-0.8-1.5-1.5c0,0,0-0.1,0-0.1h-1.9l0,0c0,0,0-0.1-0.1-0.1
			C23.1,23.3,23,22.9,23.2,22.5z M23.1,20.8l-0.2-0.9c0.6-0.7,1-1.2,1.3-1.5c0,0,0.6,0.5,1,0.8C24,19.6,23.2,20.4,23.1,20.8z
			 M25.5,25.4c-0.6,0-1.1,0-1.5,0c0-0.3-0.1-0.4-0.1-0.8c0.6,0,1,0,1.2,0C25.1,24.8,25.3,25.2,25.5,25.4
			C25.5,25.4,25.5,25.4,25.5,25.4z M28,16.3c0,0,0.4,1,1.2,1.5c-0.3,0.4-0.6,0.8-0.8,1.1c-0.4-0.1-0.7-0.2-1.1-0.2
			c-0.5,0-1,0.1-1.4,0.2L28,16.3z M25.2,14l1,0.8L26,15.1l0.6,0.5l0.2-0.3l0.7,0.6l-1,1.2l-0.7-0.6l0.2-0.3l-0.6-0.5l-0.7,0.9
			l0.6,0.5l0.2-0.3l0.7,0.6l-1,1.1l-0.7-0.6l0.2-0.3l-0.6-0.5l-1.7,2c0,0,0,0,0-0.1c-0.4-0.3-0.6-0.6-0.5-1.3L25.2,14z M13.7,19.8
			l0.2-0.1c0.3-0.2,0.9-0.6,0.8-1c-0.1-0.5-0.1-1.3,0.8-1.7c0.9-0.4,1.5,0.1,1.9,0.5c0.1,0.1,0.3,0.2,0.4,0.2c0.6,0,1.4-0.4,2.5-0.4
			c0.7,0,1.1,0.2,1.3,0.6c0.9,2.5,1.8,8.2,1.8,8.2c0,0-1.6,0.1-3.3,0.9c-1.4,0.7-2.8,2-2.8,2c0,0-3.8-4.4-5.2-6.7
			C11.9,21.6,12.4,20.7,13.7,19.8z M15.2,29.1c0.1-0.1,0.4-0.4,0.7-0.9c0.3,0.3,0.4,0.4,0.5,0.6c-0.3,0.4-0.6,0.8-1,1.2c0,0,0,0,0,0
			C15.5,29.7,15.4,29.3,15.2,29.1z M14.5,29.1c0.3,0.3,0.5,0.6,0.5,1c0,1-0.7,1.6-1.3,1.6c-0.2,0-0.5-0.1-0.6-0.1
			c-0.1,0.1-0.4,0.2-0.7,0.2c-0.8,0-1.5-0.7-1.5-1.4c0-0.2,0.1-0.4,0.1-0.5c0-0.1-0.2-0.4-0.2-0.6c0-0.4,0.1-0.8,0.3-1.1
			c0.3-0.3,0.6-0.5,1-0.5c0,0,0.1,0,0.1,0c0.3,0,0.7,0.1,0.9,0.3c0,0,0.1,0.1,0.1,0.1l1.4-1.7c0,0,0.4,0.1,0.7,0.4
			c0.2,0.3,0.3,0.7,0.3,0.7l-1.3,1.5C14.4,29.1,14.4,29.1,14.5,29.1z M13.6,25.3c-0.1-0.1-0.3-0.1-0.4-0.1c-0.1,0-1,0-2.1,0.6
			c0-0.5,0-1.3,0-1.3c0.3,0,1,0,2,0C13.1,24.5,13.4,24.9,13.6,25.3z M8.9,25.5v-0.9h0.4v-0.8H8.1v0.8h0.4l0,0.9H7v-0.9h0.4l0-0.8H7
			v-1.3h4.9c0.7,0.4,0.7,0.7,0.8,1.3H10v0.8h0.4v0.9L8.9,25.5z M5.4,39.1c0-0.8,0.5-1.5,1.4-2.1c0.3-0.2,0.6-0.3,0.9-0.4L9,36
			l0.6-0.3l-0.3,0c-2.2,0-3.2-0.6-3.2-1.7c0-0.2,0.2-0.5,0.5-0.5C6.8,33.5,7,33.7,7,34c0,0.2,0,0.3,0.1,0.3c0.4,0.4,1.7,0.4,2.1,0.4
			c1.2,0,2.4-0.5,3.2-1c-0.8-0.1-1.5-0.4-2.2-0.9c-0.8-0.7-1.3-1.6-1.4-2.6c-0.1-1,0.2-2,0.8-2.7c1.5-1.8,3.5-1.8,3.6-1.8
			c0.3,0,0.5,0.2,0.5,0.5c0,0.3-0.2,0.5-0.5,0.5c0,0-1.6,0-2.8,1.4c-0.3,0.4-0.6,1.1-0.6,2c0.1,0.8,0.4,1.4,1.1,2
			c0.2,0.2,0.9,0.7,1.9,0.7c0.8,0,1.5-0.4,2.1-1.1l0.1-0.1c0.7-0.8,1.7-2,2-2.3c0.2-0.3,1,0.2,0.7,0.6c-0.8,1-1.7,2.2-3.2,3.6
			c-0.2,0.2-0.2,0.2-0.2,0.2c-1,0.9-2,1.7-3,2.4c-1.3,0.7-1.7,0.9-1.8,0.9l0,0L8,37.5c-0.3,0.1-0.5,0.2-0.8,0.4
			c-0.7,0.4-1,0.8-0.9,1.3c0,0.4,0.3,0.7,0.6,0.7c0.5,0,0.5-0.4,0.5-0.6c0-0.1,0.1-0.3,0.1-0.3c0.1-0.1,0.2-0.1,0.3-0.1
			c0.3,0,0.5,0.2,0.5,0.5c0,1.1-0.8,1.6-1.6,1.6C6.1,40.9,5.4,40.2,5.4,39.1z M10.3,30C10.3,30.1,10.3,30.1,10.3,30
			C10.3,30.1,10.3,30.1,10.3,30L10.3,30z M9.8,37.5c-0.5,0.6-0.5,0.6-1,1.2c0-0.1-0.1-0.1-0.1-0.2c-0.2-0.2-0.4-0.3-0.6-0.3
			c-0.1,0,0.1-0.1,0.3-0.2C8.6,37.9,9.8,37.5,9.8,37.5z M36.9,98.3C17.2,98.4,1,82.5,0.9,62.7c0-7.9,2.5-15.2,6.8-21.2
			c0.3-0.1,0.5-0.2,0.7-0.4c0.3-0.3,0.6-0.7,0.7-1.4c6.5-7.9,16.4-13,27.4-13c11.2-0.1,21.2,5,27.8,13c0.2,1.3,1.1,1.7,1.4,1.8
			c4.2,5.8,6.8,13,6.8,20.8C72.7,82,56.7,98.2,36.9,98.3z"/>
		<path class="st0" d="M63.9,62.5c0-15-12.2-27.1-27.1-27.1c-15,0-27.1,12.2-27.1,27.1c0,15,12.2,27.1,27.1,27.1
			C51.8,89.7,63.9,77.5,63.9,62.5z M36.4,88.8c-14.2-0.2-25.6-11.7-25.8-25.9h25.8V88.8z M36.4,62H10.5
			c0.3-14.1,11.7-25.5,25.8-25.7V62z M37.2,36.3C51.3,36.5,62.8,47.9,63,62H37.2V36.3z M37.2,88.8V62.9H63
			C62.8,77,51.4,88.5,37.2,88.8z"/>
		<path class="st0" d="M15.1,82.2c-0.1-0.1-0.3-0.4-0.6-0.7c0-0.1-0.1-0.1-0.2,0c0,0,0,0.1,0,0.1c0.3,0.4,0.3,0.4-0.4,1l-2.2,1.9
			c-0.1,0.1-0.1,0.1-0.2-0.1c-0.4-0.4-0.3-0.9,0.2-1.4c0.4-0.4,1-0.3,1.2,0c0.1,0.1,0.2,0.1,0.2,0.1c0.1-0.1,0-0.2-0.1-0.2
			c-0.6-0.6-1.4-0.7-2.1-0.2c-0.5,0.5-0.4,1.2,0.1,1.8c0.2,0.2,0.4,0.5,0.6,0.6c0.1,0.1,0.3,0.4,0.5,0.6c0.1,0.1,0.1,0.1,0.2,0.1
			c0,0,0-0.1,0-0.2c-0.2-0.3-0.3-0.4,0-0.7l2.1-1.9c0.6-0.5,0.7-0.5,0.9-0.2c0,0.1,0.1,0.1,0.1,0c0,0,0-0.1,0-0.2
			C15.5,82.6,15.2,82.3,15.1,82.2z"/>
		<path class="st0" d="M11.8,77.7c-0.8-1.3-2.2-1.6-3.3-0.8c-1.1,0.7-1.4,1.9-0.6,3.2c0.9,1.5,2.4,1.4,3.2,0.9
			C12,80.4,12.7,79.1,11.8,77.7z M8.2,80c-0.5-0.8-0.2-1.9,0.9-2.5c1.4-0.9,2.1-0.2,2.3,0.2c0.6,0.9,0.1,2-0.9,2.6
			C9.3,81,8.6,80.6,8.2,80z"/>
		<path class="st0" d="M9.9,74.7c0,0.1,0.1,0.1,0.1,0.1c0.1,0,0.1-0.1,0-0.2c-0.1-0.3-0.2-0.5-0.2-0.6c0-0.1-0.1-0.3-0.2-0.7
			c0-0.1-0.1-0.1-0.1-0.1c0,0,0,0.1,0,0.1c0.1,0.3,0.1,0.5-0.4,0.7l-2.2,0.8l1.9-4c0-0.1,0.1-0.2,0.1-0.2c0-0.1-0.1-0.1-0.2,0
			l-3.5,1.2c-0.3,0.1-0.5,0.1-0.6-0.2c0-0.1-0.1-0.1-0.1-0.1c-0.1,0-0.1,0.1,0,0.2c0.1,0.3,0.2,0.5,0.2,0.5c0,0.1,0.1,0.4,0.2,0.7
			c0,0.1,0.1,0.2,0.1,0.1c0.1,0,0.1-0.1,0-0.1c-0.1-0.4-0.1-0.5,0.3-0.6l2.4-0.9l-2,3.9c0,0.1-0.1,0.2-0.1,0.3c0,0.1,0.1,0.1,0.2,0
			l3.4-1.2C9.7,74.3,9.8,74.4,9.9,74.7z"/>
		<path class="st0" d="M4.6,70.2c0.1,0,0.1,0,0.1-0.1C4.7,70,4.7,70,4.6,70c-0.2,0-0.4-0.1-0.5-0.6L4,68.6l2.9-0.5
			c0.9-0.2,1-0.1,1,0.2c0,0.1,0,0.1,0.1,0.1c0.1,0,0.1-0.1,0.1-0.2C8,68,8,67.6,7.9,67.5c0-0.2-0.1-0.5-0.1-0.9
			c0-0.1-0.1-0.1-0.1-0.1c-0.1,0-0.1,0.1-0.1,0.1c0.1,0.5,0,0.5-0.9,0.7l-2.8,0.5l-0.1-0.7c-0.1-0.5,0-0.7,0.2-0.7
			c0.1,0,0.1-0.1,0.1-0.1c0,0-0.1-0.1-0.1-0.1c-0.1,0-0.5,0.1-0.7,0.1c-0.1,0-0.2,0-0.1,0.1c0,0,0.1,0.2,0.2,0.5l0.5,2.6
			c0,0.3,0,0.5,0,0.5c0,0.1,0,0.1,0.1,0.1C4,70.2,4.5,70.2,4.6,70.2z"/>
		<path class="st0" d="M3.3,65c0-0.3,0.1-0.4,0.3-0.4c0.2,0,0.3,0,1.2-0.1l1-0.1c0.6,0,1,0,1.3,0c0.3,0,0.3,0.1,0.3,0.3
			c0,0.1,0,0.1,0.1,0.1c0.1,0,0.1-0.1,0.1-0.2c0-0.2-0.1-0.6-0.1-0.7c0-0.2,0-0.5,0-0.9c0-0.1,0-0.1-0.1-0.1c-0.1,0-0.1,0.1-0.1,0.1
			c0,0.3,0,0.5-0.2,0.5c-0.2,0-0.7,0.1-1.3,0.1l-1,0c-0.9,0-1,0.1-1.2,0.1c-0.3,0-0.3-0.1-0.3-0.4c0-0.1,0-0.1-0.1-0.1
			c0,0-0.1,0.1-0.1,0.2c0,0.2,0,0.6,0.1,0.7c0,0.2,0,0.5,0,0.8c0,0.1,0,0.2,0.1,0.2C3.3,65.1,3.3,65.1,3.3,65z"/>
		<path class="st0" d="M3.2,61.6c0,0,0.1,0,0.1-0.1C3.3,61,3.3,61,3.9,61l2.6,0.2c0.8,0.1,0.8,0.1,0.8,0.4c0,0.1,0,0.1,0.1,0.1
			c0.1,0,0.1,0,0.1-0.1c0-0.2,0-0.6,0-0.7c0-0.2,0.1-0.5,0.1-0.9c0-0.1,0-0.2-0.1-0.2c-0.1,0-0.1,0-0.1,0.1c0,0.4,0,0.5-0.9,0.5
			l-0.9-0.1c0,0,0,0,0,0c0-0.1,0-0.7,0.1-0.8c0-0.2,0.2-0.3,0.4-0.3c0.1,0,0.1,0,0.1-0.1C6.2,59,6.1,59,6.1,59
			c-0.4,0-0.7-0.1-0.8-0.1c0,0-0.1,0-0.1,0.1c0,0.1,0.2,0.1,0.1,0.4l-0.1,1c0,0,0,0,0,0l-1.7-0.1c0,0,0,0,0,0l0.1-0.9
			c0-0.2,0.1-0.3,0.2-0.3c0.1,0,0.1,0,0.2,0c0.1,0,0.1,0,0.1-0.1c0-0.1,0-0.1-0.1-0.1c-0.1,0-0.4-0.1-0.5-0.1c-0.1,0-0.1,0-0.2-0.1
			c0,0,0,0,0,0c0,0-0.1,0-0.1,0.1c0,0,0,0,0,0.1l0,0c0,0.1,0,0.2,0,0.3c0,0.1-0.1,1.3-0.1,1.5c0,0.2-0.1,0.5-0.1,0.8
			C3.1,61.5,3.1,61.6,3.2,61.6z"/>
		<path class="st0" d="M3.7,57.1c0.1-0.3,0.2-0.3,0.4-0.3c0.2,0,0.3,0.1,1.2,0.2l1,0.2c0.6,0.1,1,0.2,1.2,0.3
			c0.2,0.1,0.3,0.2,0.2,0.4c0,0.1,0,0.1,0,0.1c0.1,0,0.1,0,0.1-0.1c0-0.2,0.1-0.6,0.1-0.7c0-0.2,0.1-0.5,0.2-0.9
			c0-0.1,0-0.2-0.1-0.2c-0.1,0-0.1,0-0.1,0.1c-0.1,0.3-0.1,0.5-0.4,0.4c-0.2,0-0.7-0.1-1.3-0.2l-1-0.2C4.5,56,4.4,56,4.2,56
			C4,55.9,3.9,55.8,4,55.5c0-0.1,0-0.1-0.1-0.1c0,0-0.1,0-0.1,0.1c0,0.2-0.1,0.6-0.1,0.7c0,0.2-0.1,0.5-0.2,0.7c0,0.1,0,0.2,0,0.2
			C3.6,57.2,3.7,57.1,3.7,57.1z"/>
		<path class="st0" d="M6.2,54.2c1.6,0.6,2.7-0.5,3.2-1.8c0.1-0.4,0.2-0.8,0.2-1.1c0-0.1,0-0.2-0.1-0.2c-0.2-0.1-0.6-0.4-0.7-0.4
			c-0.1,0-0.1,0-0.1,0c0,0.1,0,0.1,0.1,0.1c0.4,0.3,0.5,0.6,0.2,1.4c-0.3,1-1.2,1.5-2.5,1.1c-1-0.4-1.6-1.1-1.2-2.1
			c0.2-0.7,0.7-1.2,1.3-1c0.1,0,0.2,0,0.2,0c0-0.1,0-0.1-0.1-0.1C6.5,50,6.2,49.9,6,49.8c-0.2-0.1-0.2-0.1-0.3-0.1
			c-0.1,0-0.1,0-0.1,0.1c-0.1,0.3-0.4,0.7-0.6,1.3C4.5,52.4,4.9,53.8,6.2,54.2z"/>
		<path class="st0" d="M6.5,48.1c0.1-0.3,0.2-0.3,0.5-0.2c0.2,0.1,0.3,0.2,1.1,0.5L9,48.9c0.5,0.3,0.9,0.5,1.1,0.6
			c0.2,0.1,0.2,0.2,0.1,0.4c0,0.1,0,0.1,0,0.1c0,0,0.1,0,0.2-0.1c0.1-0.2,0.3-0.6,0.3-0.7c0.1-0.1,0.3-0.5,0.4-0.8
			c0-0.1,0-0.2,0-0.2c0,0-0.1,0-0.1,0.1c-0.1,0.3-0.3,0.4-0.5,0.3c-0.2-0.1-0.6-0.3-1.1-0.6l-0.9-0.5c-0.8-0.4-0.9-0.5-1.1-0.6
			c-0.2-0.1-0.2-0.2-0.1-0.5c0,0,0-0.1,0-0.2c0,0-0.1,0-0.1,0.1c-0.1,0.2-0.2,0.5-0.3,0.6c-0.1,0.2-0.3,0.5-0.4,0.7
			c-0.1,0.1-0.1,0.2,0,0.2C6.4,48.2,6.5,48.1,6.5,48.1z"/>
		<path class="st0" d="M11.2,46.9c0.2,0.4,0.3,0.5,0,0.8c0,0,0,0.1,0,0.1c0.1,0,0.1,0,0.2-0.1c0.2-0.2,0.3-0.5,0.4-0.6
			c0.1-0.1,0.3-0.4,0.4-0.5c0-0.1,0.1-0.1,0-0.2c0,0-0.1,0-0.2,0.1c-0.1,0.2-0.2,0.2-0.3,0.1c-0.1,0-0.1-0.1-0.2-0.3l-0.3-0.5
			c0,0,0,0,0-0.1l0.8-1.2c0,0,0,0,0.1,0l1,0.2c0.1,0-0.1,0.3-0.1,0.3c0,0,0,0.1,0,0.1c0,0,0.1,0,0.2-0.1c0.1-0.1,0.3-0.4,0.4-0.5
			c0.1-0.1,0.3-0.3,0.3-0.4C14,44,14,43.9,14,43.9c-0.1,0-0.1,0-0.1,0c-0.2,0.2-0.5,0.2-0.9,0.1c-0.9-0.2-3.4-0.8-3.8-0.8
			c-0.2,0-0.2,0-0.3,0c0,0.1,0,0.1,0.1,0.3L11.2,46.9z M11.7,44.6l-0.7,1l-1-1.5c0,0,0,0,0,0l0,0L11.7,44.6z"/>
		<path class="st0" d="M13.5,38.2c0.3-0.3,0.4-0.2,0.8,0.2l1.1,1.3c0.9,1,1.7,1.1,2.7,0.3c1-0.9,0.8-1.8,0-2.8l-1-1.1
			c-0.4-0.4-0.4-0.5-0.1-0.8c0.1-0.1,0.1-0.1,0-0.2c0,0-0.1,0-0.2,0c-0.2,0.1-0.3,0.3-0.5,0.4c-0.1,0.1-0.3,0.2-0.5,0.4
			c-0.1,0.1-0.1,0.1-0.1,0.2c0,0,0.1,0,0.2,0c0.3-0.3,0.4-0.2,0.8,0.2l1,1.2c0.7,0.9,0.9,1.5,0.2,2c-0.7,0.6-1.4,0.2-1.9-0.5
			l-1.1-1.3c-0.4-0.4-0.4-0.5-0.1-0.8c0.1-0.1,0.1-0.1,0-0.1c0,0-0.1,0-0.2,0c-0.2,0.1-0.4,0.3-0.5,0.5c-0.2,0.2-0.4,0.3-0.7,0.5
			c-0.1,0.1-0.1,0.1-0.1,0.2C13.4,38.3,13.4,38.3,13.5,38.2z"/>
		<path class="st0" d="M20.6,37.1c0.3,0.5,0.2,0.6-0.1,0.7c-0.1,0-0.1,0.1-0.1,0.1c0,0.1,0.1,0.1,0.2,0c0.3-0.1,0.5-0.3,0.5-0.3
			c0.1-0.1,0.3-0.2,0.7-0.3c0.1,0,0.1-0.1,0.1-0.2c0,0-0.1,0-0.1,0c-0.3,0.2-0.5,0.2-0.8-0.3l-1.2-2.1l4.2,1.2c0.1,0,0.2,0,0.3,0
			c0.1,0,0.1-0.1,0-0.2l-1.7-3.3c-0.2-0.3-0.2-0.5,0.1-0.6c0.1,0,0.1-0.1,0.1-0.1c0-0.1-0.1,0-0.2,0c-0.3,0.1-0.4,0.3-0.5,0.3
			c-0.1,0.1-0.4,0.2-0.6,0.3c-0.1,0.1-0.2,0.1-0.1,0.2c0,0.1,0.1,0,0.1,0c0.3-0.2,0.5-0.2,0.7,0.2l1.3,2.2l-4.2-1.3
			c-0.1,0-0.3-0.1-0.3,0c-0.1,0,0,0.1,0,0.2L20.6,37.1z"/>
		<path class="st0" d="M24.5,31.3c0.3-0.1,0.4,0,0.5,0.2c0.1,0.2,0.1,0.3,0.4,1.2l0.3,1c0.2,0.5,0.3,1,0.4,1.2
			c0.1,0.2,0,0.3-0.2,0.4c-0.1,0-0.1,0.1-0.1,0.1c0,0.1,0.1,0.1,0.2,0c0.2-0.1,0.6-0.2,0.7-0.3c0.1-0.1,0.5-0.2,0.9-0.3
			c0.1,0,0.1-0.1,0.1-0.1c0-0.1-0.1-0.1-0.1,0c-0.3,0.1-0.5,0.1-0.6-0.1c-0.1-0.2-0.3-0.7-0.5-1.2l-0.3-1c-0.3-0.8-0.4-1-0.4-1.2
			c-0.1-0.3,0-0.3,0.2-0.4c0.1,0,0.1-0.1,0.1-0.1c0,0-0.1,0-0.2,0c-0.2,0.1-0.5,0.2-0.7,0.3c-0.2,0.1-0.5,0.2-0.7,0.2
			c-0.1,0-0.2,0.1-0.1,0.1C24.4,31.3,24.4,31.3,24.5,31.3z"/>
		<path class="st0" d="M27.3,30.2c0.4-0.1,0.6,0.1,0.7,0.3l2.3,3.3c0.1,0.1,0.2,0.2,0.2,0.2c0.1,0,0.1-0.1,0.2-0.3l0.8-3.8
			c0.1-0.5,0.2-0.6,0.4-0.7c0.1,0,0.1,0,0.1-0.1c0-0.1-0.1-0.1-0.2-0.1c-0.2,0-0.3,0.1-0.5,0.1c-0.2,0-0.3,0-0.6,0.1
			c-0.1,0-0.2,0.1-0.2,0.1c0,0,0.1,0.1,0.1,0c0.2,0,0.3,0,0.3,0c0,0,0,0.1,0,0.2l-0.5,3l-1.5-2.3c-0.1-0.2-0.2-0.3-0.2-0.4
			c0-0.1,0.1-0.2,0.2-0.2c0.1,0,0.1,0,0.1-0.1c0-0.1-0.1-0.1-0.2,0c-0.3,0.1-0.6,0.1-0.7,0.2c-0.2,0-0.5,0.1-0.8,0.2
			c-0.1,0-0.2,0.1-0.2,0.1C27.2,30.2,27.2,30.2,27.3,30.2z"/>
		<path class="st0" d="M33.3,29.1c0.3,0,0.5,0.1,0.5,0.3c0,0.2,0,0.3,0.1,1.2l0.1,1c0,0.3,0,0.6,0,0.8c0,0.7,0,0.7-0.3,0.7
			c-0.1,0-0.1,0-0.1,0.1c0,0.1,0,0.1,0.1,0.1c0.2,0,0.6-0.1,0.7-0.1c0.6,0,1.2,0,1.8-0.1c0.1,0,0.2-0.1,0.2-0.2c0-0.1,0-0.5,0-0.7
			c0-0.1,0-0.1-0.1-0.1c-0.1,0-0.1,0-0.1,0.1c0,0.2-0.1,0.3-0.2,0.4c-0.1,0.1-0.6,0.1-0.7,0.1c-0.4,0-0.5,0-0.5-0.4
			c0-0.2,0-0.7-0.1-1.3c0,0,0,0,0,0c0,0,0.7,0,0.8,0c0.3,0,0.3,0.2,0.4,0.4c0,0,0,0.1,0.1,0.1c0.1,0,0.1-0.1,0.1-0.1
			c0-0.3,0-0.7,0-0.8c0-0.1,0-0.1-0.1-0.1c0,0-0.1,0.1-0.1,0.1c0,0-0.2,0.1-0.5,0.1c-0.2,0-0.5,0-0.6,0c0,0,0,0-0.1,0l-0.1-1.6
			c0,0,0,0,0,0c1.1-0.1,1.2,0,1.3,0.3c0,0,0,0.1,0.1,0.1c0.1,0,0.1,0,0.1-0.1c0-0.5,0-0.6,0-0.8c0,0,0-0.1-0.1-0.1
			c0,0-0.1,0.1-0.3,0.1c-0.1,0-1.3,0.1-1.5,0.1c-0.2,0-0.5,0-0.8,0c-0.1,0-0.2,0-0.2,0.1C33.1,29.1,33.2,29.1,33.3,29.1z"/>
		<path class="st0" d="M37.7,33.2c0.2,0,0.6,0,0.7,0c0.1,0,0.5,0.1,0.9,0.1c0.1,0,0.1,0,0.1-0.1c0-0.1,0-0.1-0.1-0.1
			c-0.5,0-0.5-0.2-0.5-0.8l0.1-0.9c0,0,0,0,0,0l0.5,0.1c0,0,0.1,0,0.1,0.1c0.2,0.3,0.3,0.6,0.5,0.8c0.4,0.7,0.7,1,1.4,1.1l0.6,0.1
			c0.1,0,0.1,0,0.1-0.1c0-0.1,0-0.1-0.1-0.1c-0.5,0-0.8-0.4-1.9-2.1c0.6-0.4,0.8-0.8,0.9-1.2c0.1-0.8-0.7-1.1-1.4-1.2
			c-0.2,0-0.6,0-0.8-0.1c-0.1,0-0.5-0.1-0.8-0.1c-0.1,0-0.2,0-0.2,0.1c0,0.1,0,0.1,0.1,0.1c0.5,0,0.5,0.1,0.4,0.7l-0.3,2.8
			c-0.1,0.6-0.1,0.7-0.4,0.7c-0.1,0-0.1,0-0.1,0.1C37.5,33.2,37.6,33.2,37.7,33.2z M39.2,29.3c0,0,0-0.1,0.3,0
			c0.5,0,0.8,0.5,0.8,1.1c0,0.5-0.3,0.9-0.8,0.9c-0.3,0-0.5-0.1-0.5-0.2L39.2,29.3z"/>
		<path class="st0" d="M43.5,34.1c0.8,0.2,1.6-0.1,1.8-0.9c0.3-1.3-1.3-1.9-1.1-2.8c0.1-0.3,0.4-0.5,0.8-0.4
			c0.4,0.1,0.7,0.5,0.6,0.8c0,0.1,0,0.1,0.1,0.2c0.1,0,0.1,0,0.1-0.2c0.1-0.4,0.2-0.6,0.2-0.7c0,0,0-0.1-0.1-0.1
			c-0.1-0.1-0.4-0.2-0.8-0.3c-0.8-0.2-1.5,0.1-1.6,0.8c-0.3,1.3,1.3,1.8,1.1,2.8c-0.1,0.3-0.4,0.6-0.9,0.4c-0.6-0.1-0.7-0.6-0.6-1
			c0-0.1,0-0.1-0.1-0.1c-0.1,0-0.1,0-0.1,0.1l-0.2,0.8C42.5,33.7,42.9,34,43.5,34.1z"/>
		<path class="st0" d="M46.2,34.8c0.2,0.1,0.6,0.2,0.7,0.2c0.1,0.1,0.5,0.2,0.8,0.3c0.1,0,0.2,0,0.2,0c0-0.1,0-0.1-0.1-0.1
			c-0.3-0.1-0.4-0.2-0.4-0.4c0.1-0.2,0.2-0.7,0.4-1.2l0.4-1c0.3-0.8,0.4-1,0.4-1.1c0.1-0.2,0.2-0.3,0.5-0.2c0.1,0,0.1,0,0.2,0
			c0,0,0-0.1-0.1-0.1c-0.2-0.1-0.5-0.2-0.7-0.2c-0.2-0.1-0.5-0.2-0.7-0.3c-0.1,0-0.2,0-0.2,0c0,0.1,0,0.1,0.1,0.1
			C48,30.9,48,31,48,31.2c-0.1,0.2-0.1,0.3-0.4,1.2l-0.4,1c-0.2,0.5-0.4,1-0.5,1.2c-0.1,0.2-0.2,0.2-0.4,0.2c-0.1,0-0.1,0-0.1,0
			C46.1,34.7,46.1,34.8,46.2,34.8z"/>
		<path class="st0" d="M49.1,35.7c0,0,0,0.1,0.1,0.1c0.2,0.1,0.5,0.3,0.7,0.3c0.3,0.1,0.7,0.5,1.1,0.7c1.3,0.7,2.7,0.6,3.4-0.7
			c0.8-1.4,0-2.5-1.5-3.3c-0.3-0.2-0.6-0.3-0.8-0.4c-0.1-0.1-0.5-0.3-0.7-0.4c-0.1-0.1-0.2-0.1-0.2,0c0,0,0,0.1,0.1,0.1
			c0.3,0.2,0.4,0.3,0.2,0.5c-0.1,0.2-0.2,0.3-0.6,1.1l-0.5,0.9c-0.7,1.3-0.8,1.3-1,1.2C49.2,35.7,49.1,35.7,49.1,35.7z M50.8,35.4
			l1.3-2.4c0.1-0.2,0.1-0.2,0.5,0c1.1,0.6,1.6,1.7,0.9,2.8c-0.6,1.1-1.4,1.3-2.5,0.7C50.4,36.2,50.4,36.1,50.8,35.4z"/>
		<path class="st0" d="M53.8,38.4c0,0-0.1-0.1-0.1,0c0,0,0,0.1,0.1,0.2c0.2,0.2,0.5,0.4,0.5,0.4c0.1,0.1,0.3,0.3,0.5,0.4
			c0.1,0.1,0.1,0.1,0.2,0c0,0,0-0.1-0.1-0.2c-0.1-0.1-0.1-0.2-0.1-0.3c0,0,0.2-0.1,0.3-0.2l0.6-0.3c0,0,0,0,0.1,0l1.1,0.9
			c0,0,0,0,0,0.1l-0.3,1c0,0.1-0.3-0.1-0.3-0.1c0,0-0.1,0-0.1,0c0,0,0,0.1,0.1,0.2c0.1,0.1,0.4,0.3,0.5,0.4c0.1,0.1,0.3,0.3,0.4,0.4
			c0.2,0.2,0.3,0.2,0.3,0.1c0-0.1,0-0.1,0-0.1c-0.2-0.2-0.1-0.5,0-0.9c0.3-0.9,1.1-3.3,1.2-3.7c0-0.2,0-0.2,0-0.3c0,0-0.1,0-0.3,0.1
			l-3.5,1.9C54.2,38.6,54.1,38.6,53.8,38.4z M57.5,37.4C57.5,37.4,57.5,37.4,57.5,37.4L57.5,37.4L56.9,39l-0.9-0.8L57.5,37.4z"/>
		<path class="st0" d="M58.1,42.1C58,42,58,42,57.9,42c0,0,0,0.1,0,0.2c0.1,0.2,0.4,0.5,0.5,0.6c0.2,0.2,0.5,0.7,0.7,1
			c0.9,1.1,2.3,1.6,3.5,0.6c1.2-1,0.9-2.3-0.2-3.7c-0.2-0.3-0.5-0.5-0.6-0.7c-0.1-0.1-0.3-0.4-0.5-0.7c-0.1-0.1-0.1-0.1-0.2-0.1
			c0,0,0,0.1,0,0.2c0.2,0.2,0.2,0.4,0,0.6c-0.1,0.1-0.3,0.2-0.9,0.8l-0.8,0.7C58.4,42.3,58.3,42.3,58.1,42.1z M59.6,42.3l2.1-1.7
			c0.1-0.1,0.2-0.1,0.4,0.2c0.8,1,0.8,2.2-0.1,3c-1,0.8-1.8,0.7-2.6-0.2C58.9,42.9,59,42.8,59.6,42.3z"/>
		<path class="st0" d="M64.3,52.3c0.1,0.1,0.1,0.1,0.2,0.1c0.2,0,0.7-0.2,0.8-0.2c0.1,0,0.1-0.1,0.1-0.1c0-0.1-0.1-0.1-0.2,0
			c-0.5,0.1-0.8-0.1-1.1-0.9c-0.4-0.9-0.1-1.9,1.1-2.5c1-0.4,1.9-0.3,2.3,0.8c0.3,0.6,0.3,1.4-0.2,1.6c-0.1,0-0.1,0.1-0.1,0.1
			c0,0.1,0.1,0.1,0.2,0c0.1,0,0.4-0.2,0.6-0.2c0.2-0.1,0.3-0.1,0.3-0.1c0,0,0.1-0.1,0-0.1c-0.1-0.3-0.1-0.8-0.4-1.4
			c-0.6-1.3-1.8-2.1-3.1-1.5c-1.5,0.6-1.7,2.2-1.1,3.5C63.9,51.7,64.1,52.1,64.3,52.3z"/>
		<path class="st0" d="M64.8,53.1C64.8,53.1,64.7,53,64.8,53.1c-0.2-0.1-0.2,0-0.1,0.1c0.1,0.3,0.2,0.6,0.2,0.7
			c0,0.2,0.1,0.4,0.1,0.6c0,0.1,0,0.1,0.1,0.1c0.1,0,0.1-0.1,0-0.2c0-0.2,0-0.2,0.1-0.3c0.1,0,0.2,0,0.4,0l0.6,0.1c0,0,0,0,0,0
			l0.3,1.4c0,0,0,0,0,0.1l-0.9,0.6c-0.1,0-0.2-0.3-0.2-0.3c0,0,0-0.1-0.1-0.1c-0.1,0-0.1,0.1,0,0.2c0,0.1,0.1,0.5,0.2,0.6
			c0,0.2,0.1,0.4,0.1,0.6c0.1,0.2,0.1,0.3,0.2,0.3c0.1,0,0.1-0.1,0.1-0.1c-0.1-0.3,0.2-0.5,0.5-0.7c0.8-0.6,2.8-2.1,3.1-2.3
			c0.1-0.1,0.2-0.2,0.2-0.2c0-0.1-0.1-0.1-0.3-0.1l-3.9-0.6C65,53.6,64.9,53.5,64.8,53.1z M68.3,54.5C68.3,54.5,68.4,54.5,68.3,54.5
			L68.3,54.5L68.3,54.5l-1.5,1l-0.3-1.2L68.3,54.5z"/>
		<path class="st0" d="M69.5,57.7c-0.1,0-0.1,0-0.1,0.1c0,0.1,0,0.1,0.1,0.1c0.2,0,0.3,0.2,0.4,0.6l0.1,0.8l-2.9,0.2
			c-0.9,0.1-1,0-1-0.3c0-0.1,0-0.1-0.1-0.1c-0.1,0-0.1,0-0.1,0.1c0,0.2,0.1,0.6,0.1,0.7c0,0.2,0,0.5,0.1,0.9c0,0.1,0,0.1,0.1,0.1
			c0.1,0,0.1-0.1,0.1-0.1c0-0.5,0-0.5,1-0.6l2.9-0.2l0,0.7c0,0.5-0.1,0.7-0.3,0.7c-0.1,0-0.1,0.1-0.1,0.1c0,0,0,0.1,0.1,0.1
			c0.1,0,0.6,0,0.7,0c0.1,0,0.2,0,0.1-0.1c0,0-0.1-0.2-0.1-0.6l-0.2-2.6c0-0.3,0.1-0.5,0.1-0.5c0-0.1,0-0.1-0.1-0.1
			C70.1,57.7,69.6,57.7,69.5,57.7z"/>
		<path class="st0" d="M71.2,66.3c0,0-0.5-0.9-0.7-1.2c0-1.5-1.2-2.2-2.1-2.3c-1-0.1-2.4,0.5-2.5,2.2c-0.1,1.5,0.8,2.6,2.2,2.7
			c1.3,0.1,2.2-0.7,2.4-2.1c0.1,0.5,0.3,1.1,0.3,1.1c0,0.1,0.1,0.1,0.2,0.1c0.1-0.1,0.2-0.1,0.2-0.1C71.2,66.5,71.2,66.4,71.2,66.3z
			 M70.1,65.3c-0.1,0.9-0.9,1.6-2.2,1.5c-1.7-0.1-1.8-1.1-1.7-1.5c0.1-1.1,1.1-1.7,2.3-1.6C69.9,63.8,70.2,64.6,70.1,65.3z"/>
		<path class="st0" d="M69.6,69.7c-0.1,0.4-0.2,0.4-0.9,0.2l-2.2-0.6c-0.9-0.2-1-0.3-0.9-0.6c0-0.1,0-0.1,0-0.1
			c-0.1,0-0.1,0-0.1,0.1c-0.1,0.2-0.1,0.6-0.2,0.7c-0.1,0.5-0.3,0.8-0.5,1.7c-0.1,0.3-0.1,0.4,0.1,0.4c0.2,0.1,0.6,0.3,0.7,0.3
			c0.1,0,0.1,0,0.1,0c0-0.1,0-0.1-0.1-0.1c-0.4-0.2-0.5-0.3-0.3-0.9c0.2-0.7,0.3-0.8,1-0.6l2.2,0.6c0.7,0.2,0.7,0.2,0.6,0.6
			c0,0.1,0,0.1,0.1,0.2c0,0,0.1,0,0.1-0.1c0.1-0.2,0.2-0.6,0.2-0.8c0-0.2,0.2-0.5,0.2-0.8c0-0.1,0-0.2,0-0.2
			C69.6,69.6,69.6,69.6,69.6,69.7z"/>
		<path class="st0" d="M68.2,74.4c-0.1,0.3-0.2,0.3-0.4,0.2c-0.2-0.1-0.3-0.1-1.1-0.5l-0.9-0.4c-0.5-0.2-0.9-0.4-1.2-0.5
			c-0.2-0.1-0.2-0.2-0.1-0.4c0-0.1,0-0.1,0-0.1c-0.1,0-0.1,0-0.1,0.1c-0.1,0.2-0.2,0.6-0.3,0.7c-0.1,0.1-0.2,0.5-0.4,0.8
			c0,0.1,0,0.2,0,0.2s0.1,0,0.1-0.1c0.1-0.3,0.2-0.4,0.4-0.4c0.2,0.1,0.7,0.2,1.2,0.5l0.9,0.4c0.8,0.3,1,0.4,1.1,0.5
			c0.2,0.1,0.3,0.2,0.2,0.5c0,0.1,0,0.1,0,0.2c0,0,0.1,0,0.1-0.1c0.1-0.2,0.2-0.5,0.3-0.7c0.1-0.2,0.2-0.5,0.3-0.7
			c0-0.1,0-0.2,0-0.2C68.2,74.2,68.2,74.3,68.2,74.4z"/>
		<path class="st0" d="M65.1,76.6c-1.4-0.9-2.7-0.1-3.5,1.2c-0.2,0.3-0.4,0.7-0.4,1c0,0.1,0,0.2,0.1,0.2c0.1,0.2,0.5,0.5,0.6,0.5
			c0.1,0,0.1,0,0.1,0c0-0.1,0-0.1-0.1-0.2c-0.3-0.4-0.4-0.7,0-1.4c0.5-0.9,1.5-1.2,2.7-0.5c0.9,0.6,1.3,1.4,0.8,2.3
			c-0.3,0.6-0.9,1.1-1.5,0.8c-0.1-0.1-0.2-0.1-0.2,0c0,0.1,0,0.1,0.1,0.2c0.1,0.1,0.4,0.2,0.5,0.3c0.2,0.1,0.2,0.2,0.3,0.2
			c0,0,0.1,0,0.1-0.1c0.2-0.3,0.5-0.6,0.9-1.2C66.4,78.8,66.4,77.3,65.1,76.6z"/>
		<path class="st0" d="M60.8,80.5c-0.2-0.4-0.2-0.6,0-0.8c0,0,0.1-0.1,0-0.1c0,0-0.1,0-0.2,0.1c-0.2,0.2-0.4,0.5-0.4,0.5
			c-0.1,0.1-0.3,0.3-0.4,0.5c-0.1,0.1-0.1,0.1,0,0.2c0,0,0.1,0,0.2-0.1c0.1-0.1,0.2-0.1,0.3-0.1c0,0,0.1,0.2,0.2,0.3l0.3,0.6
			c0,0,0,0,0,0.1l-0.9,1.1c0,0,0,0-0.1,0l-1-0.3c-0.1,0,0.1-0.3,0.1-0.3c0,0,0-0.1,0-0.1c0,0-0.1,0-0.2,0.1
			c-0.1,0.1-0.3,0.4-0.4,0.5c-0.1,0.1-0.3,0.3-0.4,0.4c-0.2,0.2-0.2,0.3-0.1,0.3c0.1,0,0.1,0,0.1,0c0.2-0.2,0.5-0.1,0.9,0
			c0.9,0.3,3.3,1.1,3.7,1.2c0.2,0,0.2,0,0.3,0c0,0,0-0.1-0.1-0.3L60.8,80.5z M61.9,83.3L61.9,83.3l-1.7-0.6l0.8-0.9L61.9,83.3
			C61.9,83.3,61.9,83.3,61.9,83.3L61.9,83.3z"/>
		<path class="st0" d="M21.3,87.5c-0.3-0.2-0.6-0.4-0.8-0.4c-0.1-0.1-0.5-0.3-0.7-0.5c-0.1-0.1-0.2-0.1-0.2,0c0,0,0,0.1,0.1,0.1
			c0.3,0.2,0.3,0.3,0.2,0.5c-0.1,0.2-0.2,0.3-0.6,1.1l-0.5,0.9c-0.7,1.3-0.8,1.3-1.1,1.2c-0.1-0.1-0.2-0.1-0.2,0c0,0,0,0.1,0.1,0.2
			c0.2,0.1,0.5,0.3,0.6,0.4c0.2,0.1,0.7,0.5,1,0.7c1.3,0.8,2.7,0.7,3.5-0.6C23.6,89.5,22.8,88.4,21.3,87.5z M22,90.6
			c-0.7,1.1-1.4,1.3-2.5,0.6c-0.7-0.4-0.6-0.5-0.2-1.2l1.4-2.3c0.1-0.2,0.1-0.2,0.5,0C22.2,88.4,22.6,89.5,22,90.6z"/>
		<path class="st0" d="M27.6,90.5c-0.1,0-1.2-0.4-1.4-0.5c-0.2-0.1-0.5-0.2-0.8-0.3c-0.1,0-0.2,0-0.2,0c0,0.1,0,0.1,0.1,0.1
			c0.3,0.1,0.4,0.2,0.3,0.5c-0.1,0.2-0.1,0.3-0.4,1.2l-0.4,1c-0.1,0.3-0.2,0.6-0.3,0.8c-0.2,0.6-0.3,0.7-0.6,0.5c-0.1,0-0.1,0-0.1,0
			c0,0.1,0,0.1,0.1,0.1c0.2,0.1,0.6,0.2,0.7,0.2c0.6,0.2,1.1,0.4,1.7,0.6c0.1,0,0.2,0,0.3-0.1c0.1-0.1,0.2-0.5,0.3-0.6
			c0-0.1,0-0.1,0-0.2c-0.1,0-0.1,0-0.1,0.1c-0.1,0.2-0.2,0.3-0.4,0.3c-0.2,0-0.6-0.1-0.7-0.2c-0.4-0.1-0.4-0.2-0.3-0.6
			c0.1-0.2,0.2-0.6,0.5-1.3c0,0,0,0,0,0c0,0,0.6,0.3,0.7,0.3c0.3,0.1,0.2,0.3,0.2,0.5c0,0,0,0.1,0,0.1c0.1,0,0.1,0,0.1-0.1
			c0.1-0.3,0.3-0.7,0.3-0.7c0-0.1,0-0.1,0-0.1c0,0-0.1,0-0.2,0.1c-0.1,0-0.2,0-0.5-0.1C26.3,92.1,26,92,25.9,92c0,0,0,0,0-0.1
			l0.5-1.5c0,0,0,0,0,0c1.1,0.4,1.1,0.4,1,0.8c0,0,0,0.1,0,0.1c0.1,0,0.1,0,0.1-0.1c0.2-0.4,0.3-0.6,0.3-0.7c0,0,0-0.1,0-0.1
			C27.9,90.5,27.7,90.5,27.6,90.5z"/>
		<path class="st0" d="M35.8,92c-0.3-0.1-0.7-0.2-1.4-0.3c-1.4-0.1-2.7,0.5-2.8,2c-0.2,1.7,1.1,2.5,2.5,2.7c0.4,0,0.8,0,1.1,0
			c0.1,0,0.1-0.1,0.2-0.2c0.1-0.2,0.2-0.7,0.2-0.8c0-0.1,0-0.1-0.1-0.1c-0.1,0-0.1,0-0.1,0.1c-0.2,0.5-0.5,0.6-1.3,0.6
			c-1-0.1-1.7-0.9-1.6-2.2c0.1-1.1,0.7-1.8,1.8-1.7c0.7,0.1,1.4,0.4,1.3,1c0,0.1,0,0.2,0.1,0.2c0.1,0,0.1,0,0.1-0.1
			c0-0.1,0.1-0.4,0.1-0.6c0-0.2,0.1-0.3,0.1-0.3C35.9,92.1,35.9,92,35.8,92z"/>
		<path class="st0" d="M42.9,95.7c-0.3,0-0.5,0-0.5-0.2c-0.1-0.3-0.1-0.7-0.2-1.2l-0.1-1C42,92.3,42,92.2,42,92
			c0-0.2,0.1-0.3,0.3-0.4c0.1,0,0.1,0,0.1-0.1c0-0.1-0.1-0.1-0.2-0.1c-0.2,0-0.6,0.1-0.7,0.1c-0.2,0-0.5,0-0.8,0.1
			c-0.1,0-0.2,0-0.1,0.1c0,0.1,0.1,0.1,0.1,0.1c0.3,0,0.4,0,0.5,0.3c0,0.2,0.1,0.3,0.2,1.2l0,0.3c0,0,0,0,0,0l-2.2,0.2c0,0,0,0,0,0
			l0-0.2c-0.1-0.9-0.1-1-0.1-1.2c0-0.3,0.1-0.3,0.3-0.4c0.1,0,0.1,0,0.1-0.1c0-0.1-0.1-0.1-0.2-0.1c-0.2,0-0.6,0.1-0.7,0.1
			c-0.2,0-0.5,0-0.8,0.1c-0.1,0-0.2,0-0.1,0.1c0,0.1,0.1,0.1,0.1,0.1c0.3,0,0.4,0,0.5,0.3c0,0.2,0,0.3,0.1,1.2l0.1,1
			c0.1,0.5,0.1,1,0.1,1.2c0,0.3,0,0.3-0.3,0.4c-0.1,0-0.1,0-0.1,0.1c0,0.1,0.1,0.1,0.2,0.1c0.2,0,0.6-0.1,0.7-0.1
			c0.2,0,0.5,0,0.9-0.1c0.1,0,0.1,0,0.1-0.1c0-0.1-0.1-0.1-0.1-0.1c-0.3,0-0.5,0-0.5-0.2c-0.1-0.2-0.1-0.7-0.2-1.2l0-0.3
			c0,0,0,0,0,0l2.2-0.2c0,0,0,0,0,0l0,0.4c0.1,0.5,0.1,1,0.1,1.2c0,0.3,0,0.3-0.3,0.4c-0.1,0-0.1,0-0.1,0.1c0,0,0.1,0.1,0.2,0.1
			c0.2,0,0.6-0.1,0.7-0.1c0.2,0,0.5,0,0.9-0.1c0.1,0,0.1-0.1,0.1-0.1C43.1,95.7,43,95.7,42.9,95.7z"/>
		<path class="st0" d="M47.1,94.6c-0.3,0.1-0.5,0.1-0.6-0.1c-0.1-0.2-0.2-0.7-0.4-1.2l-0.3-1c-0.2-0.8-0.3-1-0.3-1.2
			c0-0.3,0-0.3,0.3-0.4c0.1,0,0.1,0,0.1-0.1c0,0-0.1-0.1-0.2,0c-0.2,0.1-0.5,0.2-0.7,0.2c-0.2,0-0.5,0.1-0.7,0.2
			c-0.1,0-0.2,0.1-0.1,0.1c0,0.1,0.1,0.1,0.1,0c0.3-0.1,0.4,0,0.5,0.2c0.1,0.2,0.1,0.3,0.4,1.2l0.3,1c0.2,0.5,0.3,1,0.3,1.2
			c0,0.3,0,0.3-0.3,0.4c-0.1,0-0.1,0.1-0.1,0.1c0,0.1,0.1,0.1,0.2,0c0.2-0.1,0.6-0.2,0.7-0.2c0.1,0,0.5-0.1,0.9-0.2
			c0.1,0,0.1-0.1,0.1-0.1C47.3,94.6,47.2,94.6,47.1,94.6z"/>
		<path class="st0" d="M52,91.8c0-0.1-0.1-0.1-0.1-0.1c-0.1,0,0,0.1,0,0.1c0.1,0.4,0.1,0.6-0.5,0.8c-0.7,0.3-0.8,0.3-1.1-0.5l-1-2.1
			c-0.3-0.7-0.3-0.7,0.1-0.9c0.1,0,0.1-0.1,0.1-0.1c0,0-0.1-0.1-0.2,0c-0.2,0.1-0.6,0.3-0.7,0.3c-0.1,0.1-0.5,0.2-0.7,0.3
			c-0.1,0-0.1,0.1-0.1,0.1c0,0.1,0.1,0.1,0.2,0c0.4-0.2,0.4-0.1,0.7,0.5l0.9,2.1c0.4,0.9,0.4,1,0.1,1.1c-0.1,0-0.1,0.1-0.1,0.1
			c0,0.1,0.1,0.1,0.2,0c0.2-0.1,0.5-0.3,0.7-0.3c0.4-0.2,0.8-0.3,1.6-0.7c0.3-0.1,0.3-0.2,0.3-0.3C52.2,92.3,52,91.8,52,91.8z"/>
		<path class="st0" d="M56.2,89.2c0-0.1-0.1-0.1-0.1-0.1c-0.1,0,0,0.1,0,0.1c0.1,0.2,0.1,0.3,0,0.5c-0.1,0.1-0.5,0.4-0.6,0.5
			c-0.4,0.2-0.4,0.2-0.6-0.1c-0.1-0.1-0.4-0.6-0.7-1.1c0,0,0,0,0,0c0,0,0.6-0.4,0.7-0.4c0.2-0.2,0.4,0,0.5,0.2c0,0,0.1,0.1,0.1,0
			c0.1,0,0-0.1,0-0.2c-0.2-0.3-0.3-0.7-0.4-0.7c0,0-0.1,0-0.1,0c0,0,0,0.1-0.1,0.2c0,0.1-0.1,0.2-0.4,0.4c-0.2,0.1-0.5,0.3-0.5,0.3
			c0,0,0,0-0.1,0l-0.9-1.3c0,0,0,0,0,0c1-0.6,1-0.6,1.2-0.3c0,0,0.1,0.1,0.1,0c0.1,0,0.1-0.1,0-0.1c-0.3-0.4-0.3-0.6-0.4-0.7
			c0,0-0.1-0.1-0.1,0c0,0-0.1,0.1-0.3,0.2c-0.1,0.1-1.1,0.7-1.2,0.8c-0.1,0.1-0.5,0.3-0.7,0.5c-0.1,0.1-0.1,0.1-0.1,0.2
			c0,0,0.1,0,0.2,0c0.3-0.2,0.4-0.2,0.6,0c0.1,0.2,0.2,0.3,0.7,1l0.6,0.9c0.2,0.3,0.3,0.5,0.4,0.7c0.4,0.5,0.4,0.6,0.1,0.8
			c-0.1,0-0.1,0.1-0.1,0.1c0,0,0.1,0,0.2,0c0.2-0.1,0.5-0.3,0.6-0.4c0.5-0.3,1-0.6,1.5-0.9c0.1-0.1,0.1-0.1,0.1-0.3
			C56.5,89.7,56.3,89.4,56.2,89.2z"/>
	</g>
</g>
</svg>
