<svg width="65" height="52" viewBox="0 0 65 52" fill="none" xmlns="http://www.w3.org/2000/svg">
<path d="M6.41667 51.3333C4.65208 51.3333 3.14203 50.7056 1.8865 49.45C0.630972 48.1945 0.00213889 46.6834 0 44.9167V6.41667C0 4.65208 0.628834 3.14203 1.8865 1.8865C3.14417 0.630972 4.65422 0.00213889 6.41667 0H57.75C59.5146 0 61.0257 0.628833 62.2834 1.8865C63.541 3.14417 64.1688 4.65422 64.1667 6.41667V44.9167C64.1667 46.6812 63.5389 48.1924 62.2834 49.45C61.0278 50.7077 59.5167 51.3355 57.75 51.3333H6.41667ZM32.0833 28.875L6.41667 12.8333V44.9167H57.75V12.8333L32.0833 28.875ZM32.0833 22.4583L57.75 6.41667H6.41667L32.0833 22.4583ZM6.41667 12.8333V6.41667V44.9167V12.8333Z" fill="white"/>
</svg>
