<svg width="37" height="48" viewBox="0 0 37 48" fill="none" xmlns="http://www.w3.org/2000/svg">
<path d="M35.8332 22.8576C34.8661 18.7039 32.391 16.0039 28.8143 14.4707C28.8586 13.9441 28.9195 13.4092 28.9453 12.8763C29.165 7.96332 27.4226 4.14951 23.7016 1.70761C21.915 0.534941 20.1597 0 18.0964 0C16.033 0 14.2777 0.534935 12.4912 1.70761C8.77209 4.14946 7.02816 7.963 7.2474 12.8763C7.27324 13.4092 7.33414 13.942 7.3766 14.4707C3.79966 16.0063 1.3244 18.704 0.357672 22.8576C-1.48246 30.7434 4.01399 38.9015 11.4226 37.7834C11.9855 37.7184 12.3971 37.1498 12.3417 36.51C12.2864 35.8702 11.7862 35.4003 11.2232 35.4611C11.2232 35.4611 11.2195 35.4611 11.2177 35.4632C11.2066 35.4653 11.1955 35.4653 11.1845 35.4674C11.1734 35.4695 11.1623 35.4716 11.1513 35.4737C10.6584 35.5493 10.1583 35.5744 9.6618 35.5451C9.19484 35.5178 8.72971 35.4423 8.27569 35.3206C7.83641 35.201 7.40639 35.0374 6.99296 34.8297C6.58321 34.6241 6.19009 34.3787 5.81909 34.0976C5.44626 33.8144 5.0956 33.4955 4.76887 33.1473C4.37943 32.7298 4.02507 32.2704 3.71128 31.7774C3.17236 30.9299 2.75339 29.9859 2.47283 28.9915C2.2901 28.3496 2.16644 27.6846 2.10369 27.0133C2.05385 26.4763 2.04278 25.9371 2.07047 25.398C2.1 24.8463 2.16829 24.2967 2.27903 23.7575C2.30672 23.617 2.33809 23.4764 2.37316 23.338C2.40823 23.1932 2.44699 23.0506 2.48575 22.9079C2.56326 22.6331 2.65001 22.3625 2.74968 22.0961C2.93424 21.5947 3.15757 21.1102 3.41783 20.6549C3.66885 20.2144 3.95676 19.799 4.27423 19.4172C4.59907 19.027 4.95345 18.6704 5.33182 18.3452C5.73418 18.0012 6.16237 17.697 6.60534 17.4264C7.08889 17.1306 7.59092 16.8789 8.10405 16.6586C8.26647 16.5894 8.43074 16.5202 8.59318 16.4488C9.1709 16.2013 9.5308 15.5447 9.47358 14.8482C9.45697 14.651 9.44035 14.4538 9.42374 14.2566C9.40529 14.03 9.38314 13.8056 9.36283 13.579C9.34622 13.4007 9.32961 13.2203 9.31669 13.042C9.31116 12.9623 9.30562 12.8805 9.30193 12.8007C9.30008 12.7567 9.29824 12.7126 9.29639 12.6686C9.2927 12.5742 9.28901 12.4777 9.28716 12.3833C9.28347 12.1966 9.28162 12.0099 9.28532 11.8232C9.29085 11.4644 9.31115 11.1078 9.34622 10.7512C9.36284 10.5792 9.38314 10.4092 9.40713 10.2393C9.43113 10.0757 9.45697 9.91207 9.4865 9.75054C9.54556 9.43587 9.61754 9.12537 9.70429 8.8191C9.78735 8.52331 9.88517 8.23384 9.99775 7.95061C10.1085 7.6716 10.2303 7.40101 10.3669 7.13877C10.5035 6.87445 10.6548 6.61642 10.8172 6.37097C10.9833 6.11924 11.1624 5.87799 11.3525 5.64721C11.55 5.40806 11.7585 5.1815 11.9763 4.96963C12.207 4.74307 12.447 4.5291 12.6961 4.32981C12.9619 4.11583 13.2369 3.91864 13.5175 3.73402C14.9774 2.77531 16.4096 2.33896 18.0966 2.33896C19.7817 2.33896 21.2158 2.77531 22.6757 3.73402C22.9581 3.91863 23.2313 4.11582 23.4971 4.32981C23.7463 4.5291 23.9862 4.74097 24.2169 4.96963C24.4347 5.18361 24.6432 5.41017 24.8407 5.64721C25.0308 5.87797 25.2099 6.11922 25.3778 6.37097C25.5402 6.61641 25.6916 6.87234 25.8282 7.13877C25.9647 7.401 26.0884 7.67371 26.1973 7.95061C26.3099 8.23381 26.4077 8.5233 26.4908 8.8191C26.5775 9.12538 26.6495 9.43583 26.7085 9.75054C26.7381 9.91207 26.7658 10.0757 26.7879 10.2393C26.8119 10.4092 26.8322 10.5792 26.8488 10.7512C26.8839 11.1078 26.9023 11.4644 26.9097 11.8232C26.9134 12.0099 26.9116 12.1966 26.9079 12.3833C26.906 12.4777 26.9023 12.5742 26.8987 12.6686C26.8968 12.7126 26.895 12.7567 26.8931 12.8007C26.8894 12.8805 26.8839 12.9623 26.8784 13.042C26.8654 13.2224 26.8488 13.4007 26.8322 13.579C26.8119 13.8056 26.7898 14.0301 26.7713 14.2566C26.7547 14.4538 26.7381 14.651 26.7215 14.8482C26.6643 15.5468 27.0242 16.2013 27.6019 16.4488C27.7643 16.5202 27.9286 16.5894 28.091 16.6586C28.6041 16.8789 29.1061 17.1327 29.5897 17.4264C30.0327 17.697 30.4609 18.0012 30.8632 18.3452C31.2416 18.6683 31.596 19.027 31.9208 19.4172C32.2383 19.799 32.5262 20.2144 32.7772 20.6549C33.0375 21.1101 33.2608 21.5947 33.4454 22.0961C33.5432 22.3625 33.6318 22.6331 33.7093 22.9079C33.7499 23.0506 33.7868 23.1932 33.8219 23.338C33.8551 23.4764 33.8883 23.617 33.916 23.7575C34.0268 24.2967 34.0969 24.8463 34.1246 25.398C34.1523 25.9371 34.1412 26.4763 34.0895 27.0133C34.0268 27.6846 33.9012 28.3496 33.7204 28.9915C33.438 29.9859 33.019 30.9299 32.4819 31.7774C32.1681 32.2704 31.8138 32.7298 31.4243 33.1473C31.0976 33.4955 30.747 33.8144 30.3723 34.0976C30.0013 34.3787 29.6081 34.6241 29.1984 34.8297C28.785 35.0353 28.3549 35.201 27.9157 35.3206C27.4616 35.4444 26.9965 35.5199 26.5296 35.5451C26.0331 35.5744 25.5329 35.5471 25.0401 35.4737C25.029 35.4716 25.018 35.4695 25.0069 35.4674C24.9958 35.4653 24.9847 35.4653 24.9737 35.4632L24.9681 35.4611C24.4052 35.4003 23.905 35.8702 23.8496 36.51C23.7943 37.1498 24.2058 37.7184 24.7688 37.7834C32.1775 38.9015 37.6731 30.7412 35.8332 22.8576Z" fill="#DBF7DA"/>
<path d="M29.3923 45.491H19.1212V32.2789C20.6937 30.2629 22.2662 28.2469 23.8406 26.2308C24.2172 25.7483 24.1784 25.0099 23.7539 24.584C23.3294 24.1561 22.6816 24.2001 22.305 24.6826C21.2437 26.0419 20.1825 27.4013 19.123 28.7607V18.186C19.123 17.542 18.6635 17.0196 18.0968 17.0196C17.5302 17.0196 17.0706 17.5419 17.0706 18.186V29.7258C15.9983 28.3517 14.9278 26.9798 13.8554 25.6057C13.4789 25.1232 12.8311 25.0792 12.4066 25.5071C11.9821 25.9351 11.9433 26.6714 12.3198 27.1539C13.9034 29.1824 15.487 31.2131 17.0708 33.2417V45.4888H6.79965C6.23303 45.4888 5.77344 46.0112 5.77344 46.6552C5.77344 47.2992 6.23302 47.8237 6.79965 47.8237H29.3944C29.961 47.8237 30.4206 47.3013 30.4206 46.6552C30.4188 46.0133 29.959 45.491 29.3923 45.491Z" fill="#DBF7DA"/>
</svg>
