<svg width="25" height="21" viewBox="0 0 25 21" fill="none" xmlns="http://www.w3.org/2000/svg">
<path d="M3.7207 0.5H6.2002C8.19877 0.5 10.0713 1.52329 11.3359 3.35059V3.35156L11.9883 4.29785L12.4004 4.89551L12.8115 4.29785L13.4639 3.35156C14.7286 1.52367 16.6033 0.5 18.6006 0.5H21.0801C22.1186 0.5 23.0605 1.46965 23.0605 2.78516C23.0603 6.91421 20.0774 10.1748 16.5332 10.1748H12.7266V15.7568L13.1641 15.8125L13.8945 15.9033V15.9043C15.9092 16.1629 17.16 16.9624 18.3262 17.71V17.709C19.0176 18.1544 19.7334 18.6164 20.624 18.959C21.5224 19.3046 22.5808 19.5234 23.9736 19.5234C24.0999 19.5234 24.3008 19.661 24.3008 19.9521C24.3007 20.2431 24.0999 20.3799 23.9736 20.3799C21.0081 20.3798 19.4707 19.3938 18.0488 18.4814H18.0498C17.3582 18.0359 16.6417 17.5751 15.751 17.2324C14.8525 16.8868 13.7934 16.667 12.4004 16.667C11.0087 16.667 9.96394 16.8777 9.07129 17.2197C8.40806 17.4739 7.83911 17.7974 7.29297 18.1377L6.21094 18.8252C4.92387 19.6252 3.42346 20.3799 0.827148 20.3799C0.700558 20.3799 0.500131 20.2427 0.5 19.9521C0.5 19.661 0.700872 19.5234 0.827148 19.5234C2.22089 19.5234 3.27945 19.303 4.17773 18.957C5.06809 18.6141 5.7836 18.1523 6.47363 17.709L6.47461 17.71C7.64097 16.9624 8.89164 16.1629 10.9062 15.9043L10.9053 15.9033L11.6367 15.8125L12.0732 15.7568V10.1748H8.2666C4.7225 10.1746 1.74044 6.9141 1.74023 2.78516C1.74023 1.46965 2.68219 0.5 3.7207 0.5ZM3.7207 1.35059C2.93636 1.35059 2.39356 2.04793 2.39355 2.7793C2.39355 6.32803 4.97414 9.3125 8.26758 9.3125H12.0742V7.88477C12.0742 4.33604 9.49364 1.35059 6.2002 1.35059H3.7207ZM18.6006 1.35059C15.3071 1.35059 12.7275 4.33604 12.7275 7.88477V9.3125H16.5342C19.8275 9.31232 22.4072 6.32792 22.4072 2.7793C22.4072 2.04796 21.8645 1.35059 21.0801 1.35059H18.6006Z" fill="#214120" stroke="black"/>
</svg>
