<svg width="58" height="58" viewBox="0 0 58 58" fill="none" xmlns="http://www.w3.org/2000/svg">
<path d="M16.675 0H40.825C50.025 0 57.5 7.475 57.5 16.675V40.825C57.5 45.2475 55.7432 49.4888 52.616 52.616C49.4888 55.7432 45.2475 57.5 40.825 57.5H16.675C7.475 57.5 0 50.025 0 40.825V16.675C0 12.2525 1.75683 8.01116 4.88399 4.88399C8.01116 1.75683 12.2525 0 16.675 0ZM16.1 5.75C13.355 5.75 10.7224 6.84044 8.78145 8.78145C6.84044 10.7224 5.75 13.355 5.75 16.1V41.4C5.75 47.1213 10.3787 51.75 16.1 51.75H41.4C44.145 51.75 46.7776 50.6596 48.7186 48.7186C50.6596 46.7776 51.75 44.145 51.75 41.4V16.1C51.75 10.3787 47.1213 5.75 41.4 5.75H16.1ZM43.8438 10.0625C44.7969 10.0625 45.711 10.4411 46.3849 11.1151C47.0589 11.789 47.4375 12.7031 47.4375 13.6562C47.4375 14.6094 47.0589 15.5235 46.3849 16.1974C45.711 16.8714 44.7969 17.25 43.8438 17.25C42.8906 17.25 41.9765 16.8714 41.3026 16.1974C40.6286 15.5235 40.25 14.6094 40.25 13.6562C40.25 12.7031 40.6286 11.789 41.3026 11.1151C41.9765 10.4411 42.8906 10.0625 43.8438 10.0625ZM28.75 14.375C32.5625 14.375 36.2188 15.8895 38.9147 18.5853C41.6105 21.2812 43.125 24.9375 43.125 28.75C43.125 32.5625 41.6105 36.2188 38.9147 38.9147C36.2188 41.6105 32.5625 43.125 28.75 43.125C24.9375 43.125 21.2812 41.6105 18.5853 38.9147C15.8895 36.2188 14.375 32.5625 14.375 28.75C14.375 24.9375 15.8895 21.2812 18.5853 18.5853C21.2812 15.8895 24.9375 14.375 28.75 14.375ZM28.75 20.125C26.4625 20.125 24.2687 21.0337 22.6512 22.6512C21.0337 24.2687 20.125 26.4625 20.125 28.75C20.125 31.0375 21.0337 33.2313 22.6512 34.8488C24.2687 36.4663 26.4625 37.375 28.75 37.375C31.0375 37.375 33.2313 36.4663 34.8488 34.8488C36.4663 33.2313 37.375 31.0375 37.375 28.75C37.375 26.4625 36.4663 24.2687 34.8488 22.6512C33.2313 21.0337 31.0375 20.125 28.75 20.125Z" fill="white"/>
</svg>
