<svg width="20" height="27" viewBox="0 0 20 27" fill="none" xmlns="http://www.w3.org/2000/svg">
<path d="M5.3584 19.4902L6.72852 25.8174L6.81445 26.2119H15.2617L15.3477 25.8174L16.7178 19.4902L16.8486 18.8838H5.22754L5.3584 19.4902ZM4.04785 18.5957H18.0283V16.1055H4.04785V18.5957ZM16.2344 6.92285C15.1792 6.90989 14.0009 7.04206 13.0459 7.72559C12.0669 8.42631 11.4227 9.63177 11.2812 11.542L11.2412 12.0781H11.7793C12.7844 12.0781 13.7186 12.0692 14.5498 11.9922C15.3797 11.9153 16.1402 11.7683 16.792 11.4756C17.4545 11.178 17.9997 10.7316 18.3887 10.0752C18.7725 9.42731 18.9845 8.60722 19.0439 7.59082L19.0732 7.09082L18.5732 7.0625C18.345 7.04974 18.1327 7.03811 17.9229 7.01465L17.9131 7.01367L17.9023 7.0127C17.3814 6.97591 16.7924 6.9232 16.2344 6.92285ZM6.2832 0.850586C4.95988 0.705956 3.54211 0.811779 2.38281 0.886719C2.21245 0.893238 2.04655 0.902903 1.88867 0.912109C1.72474 0.92167 1.56992 0.930426 1.41992 0.936523L0.917969 0.957031L0.941406 1.45898C1.00365 2.81766 1.26787 3.89379 1.75098 4.7334C2.24002 5.58313 2.93379 6.15636 3.78711 6.53613C4.62848 6.91056 5.62017 7.09584 6.7168 7.19043C7.81466 7.28513 9.05328 7.29199 10.3955 7.29199H10.8555L10.8936 6.83398C11.0705 4.73126 10.6166 3.27484 9.70215 2.31348C8.8 1.3651 7.53406 0.988703 6.28418 0.850586H6.2832ZM10.8252 7.56738H10.3252C8.715 7.56738 7.2905 7.55783 6.0498 7.43555C4.80831 7.31316 3.7907 7.08116 2.9834 6.66113C2.19048 6.24852 1.58237 5.64506 1.16406 4.73633C0.739419 3.81355 0.5 2.55203 0.5 0.817383C0.500142 0.778639 0.546523 0.673898 0.706055 0.673828C1.18814 0.673828 1.73768 0.64743 2.34766 0.609375H2.35254C3.58225 0.520901 4.99794 0.435167 6.34863 0.569336C7.91633 0.741339 9.28711 1.19668 10.1895 2.18164C11.0789 3.15263 11.6045 4.74176 11.2559 7.39551L11.251 7.42871V8.87891L12.1162 7.9541C12.9969 7.01286 14.2603 6.6994 15.6387 6.65234L16.2354 6.64746H16.2432C16.8685 6.64747 17.4098 6.69488 17.9404 6.7334V6.73438C18.4112 6.77152 18.8875 6.8115 19.2793 6.81152C19.3606 6.81152 19.4218 6.84017 19.457 6.87109C19.4898 6.89997 19.5 6.92882 19.5 6.95605C19.5 8.35007 19.3102 9.35732 18.9785 10.0908C18.6529 10.8108 18.1815 11.2877 17.5674 11.6162C16.9395 11.952 16.1425 12.1433 15.1572 12.2471C14.1722 12.3507 13.0384 12.364 11.75 12.3672L11.251 12.3682V15.8301H17.7539C18.2036 15.8301 18.4688 16.144 18.4688 16.4033V18.2979C18.4687 18.5642 18.1956 18.8838 17.7539 18.8838H17.2803L17.1953 19.2783L15.6699 26.3262L15.665 26.3457L15.6631 26.3652C15.6578 26.4046 15.5983 26.4999 15.4521 26.5H6.64258C6.56523 26.4971 6.50465 26.4727 6.46582 26.4443C6.44763 26.431 6.43431 26.4174 6.4248 26.4033L6.40625 26.3604L4.88184 19.2783L4.79688 18.8838H4.32227C4.1177 18.8838 3.93775 18.8098 3.79492 18.6943C3.66751 18.5683 3.60744 18.4321 3.60742 18.2979V16.4033C3.60742 16.144 3.87255 15.8301 4.32227 15.8301H10.8252V7.56738Z" fill="#214120" stroke="black"/>
</svg>
